<svg xmlns="http://www.w3.org/2000/svg" width="940" height="460" viewBox="0 0 940 460">
<rect width="100%" height="100%" fill="#ffffff"/>
<text x="470.0" y="34" text-anchor="middle" font-family="Pretendard, Arial, sans-serif" font-size="24" font-weight="700">모델별 당량점 예측 MAE 상위 Headline</text>
<text x="218" y="82.2" text-anchor="end" font-family="Pretendard, Arial, sans-serif" font-size="15">baseline extra trees sensor signal</text>
<rect x="230" y="60.0" width="601.7" height="31.75" rx="8" fill="#2563eb"/>
<text x="839.7" y="82.2" font-family="Pretendard, Arial, sans-serif" font-size="15" font-weight="600">8.06 mL</text>
<text x="218" y="122.0" text-anchor="end" font-family="Pretendard, Arial, sans-serif" font-size="15">baseline extra trees sensor signal</text>
<rect x="230" y="99.75" width="607.0" height="31.75" rx="8" fill="#2563eb"/>
<text x="845.0" y="122.0" font-family="Pretendard, Arial, sans-serif" font-size="15" font-weight="600">8.13 mL</text>
<text x="218" y="161.7" text-anchor="end" font-family="Pretendard, Arial, sans-serif" font-size="15">baseline extra trees sensor signal</text>
<rect x="230" y="139.5" width="608.2" height="31.75" rx="8" fill="#2563eb"/>
<text x="846.2" y="161.7" font-family="Pretendard, Arial, sans-serif" font-size="15" font-weight="600">8.15 mL</text>
<text x="218" y="201.5" text-anchor="end" font-family="Pretendard, Arial, sans-serif" font-size="15">svr rbf sensor plus current volume</text>
<rect x="230" y="179.25" width="656.7" height="31.75" rx="8" fill="#2563eb"/>
<text x="894.7" y="201.5" font-family="Pretendard, Arial, sans-serif" font-size="15" font-weight="600">8.8 mL</text>
<text x="218" y="241.2" text-anchor="end" font-family="Pretendard, Arial, sans-serif" font-size="15">svr rbf sensor plus current volume</text>
<rect x="230" y="219.0" width="662.8" height="31.75" rx="8" fill="#2563eb"/>
<text x="900.8" y="241.2" font-family="Pretendard, Arial, sans-serif" font-size="15" font-weight="600">8.88 mL</text>
<text x="218" y="281.0" text-anchor="end" font-family="Pretendard, Arial, sans-serif" font-size="15">svr rbf sensor plus current volume</text>
<rect x="230" y="258.75" width="665.1" height="31.75" rx="8" fill="#2563eb"/>
<text x="903.1" y="281.0" font-family="Pretendard, Arial, sans-serif" font-size="15" font-weight="600">8.91 mL</text>
<text x="218" y="320.7" text-anchor="end" font-family="Pretendard, Arial, sans-serif" font-size="15">extra trees sensor plus current vo</text>
<rect x="230" y="298.5" width="668.1" height="31.75" rx="8" fill="#2563eb"/>
<text x="906.1" y="320.7" font-family="Pretendard, Arial, sans-serif" font-size="15" font-weight="600">8.95 mL</text>
<text x="218" y="360.5" text-anchor="end" font-family="Pretendard, Arial, sans-serif" font-size="15">baseline extra trees sensor signal</text>
<rect x="230" y="338.25" width="670.0" height="31.75" rx="8" fill="#2563eb"/>
<text x="908.0" y="360.5" font-family="Pretendard, Arial, sans-serif" font-size="15" font-weight="600">8.98 mL</text>
<text x="565.0" y="434" text-anchor="middle" font-family="Pretendard, Arial, sans-serif" font-size="14" fill="#555">진행률/전체 run 길이 제외, 현재 주입량 mL와 센서 변화만 사용</text>
</svg>