<?xml version="1.0" encoding="utf-8" standalone="no"?>
<!DOCTYPE svg PUBLIC "-//W3C//DTD SVG 1.1//EN"
  "http://www.w3.org/Graphics/SVG/1.1/DTD/svg11.dtd">
<svg xmlns:xlink="http://www.w3.org/1999/xlink" width="795.621406pt" height="463.175312pt" viewBox="0 0 795.621406 463.175312" xmlns="http://www.w3.org/2000/svg" version="1.1">
 <metadata>
  <rdf:RDF xmlns:dc="http://purl.org/dc/elements/1.1/" xmlns:cc="http://creativecommons.org/ns#" xmlns:rdf="http://www.w3.org/1999/02/22-rdf-syntax-ns#">
   <cc:Work>
    <dc:type rdf:resource="http://purl.org/dc/dcmitype/StillImage"/>
    <dc:date>2026-06-09T11:42:24.419654</dc:date>
    <dc:format>image/svg+xml</dc:format>
    <dc:creator>
     <cc:Agent>
      <dc:title>Matplotlib v3.10.9, https://matplotlib.org/</dc:title>
     </cc:Agent>
    </dc:creator>
   </cc:Work>
  </rdf:RDF>
 </metadata>
 <defs>
  <style type="text/css">*{stroke-linejoin: round; stroke-linecap: butt}</style>
 </defs>
 <g id="figure_1">
  <g id="patch_1">
   <path d="M 0 463.175312 
L 795.621406 463.175312 
L 795.621406 0 
L 0 0 
z
" style="fill: #ffffff"/>
  </g>
  <g id="axes_1">
   <g id="patch_2">
    <path d="M 51.861406 391.942812 
L 788.421406 391.942812 
L 788.421406 31.582812 
L 51.861406 31.582812 
z
" style="fill: #ffffff"/>
   </g>
   <g id="matplotlib.axis_1">
    <g id="xtick_1">
     <g id="line2d_1">
      <defs>
       <path id="mcd33ab4e8e" d="M 0 0 
L 0 3.5 
" style="stroke: #334155; stroke-width: 0.8"/>
      </defs>
      <g>
       <use xlink:href="#mcd33ab4e8e" x="130.271276" y="391.942812" style="fill: #334155; stroke: #334155; stroke-width: 0.8"/>
      </g>
     </g>
     <g id="text_1">
      <!-- 프레임 -->
      <g style="fill: #334155" transform="translate(110.826355 409.548281) scale(0.15 -0.15)">
       <defs>
        <path id="Pretendard-Regular-d504" d="M 5313 206 
L 225 206 
L 225 625 
L 5313 625 
L 5313 206 
z
M 4825 4081 
L 3944 4081 
L 3944 2138 
L 4813 2138 
L 4813 1738 
L 688 1738 
L 688 2138 
L 1556 2138 
L 1556 4081 
L 675 4081 
L 675 4488 
L 4825 4488 
L 4825 4081 
z
M 3463 2138 
L 3463 4081 
L 2044 4081 
L 2044 2138 
L 3463 2138 
z
" transform="scale(0.015625)"/>
        <path id="Pretendard-Regular-b808" d="M 2394 2513 
L 888 2513 
L 888 1275 
Q 1447 1278 1906 1309 
Q 2366 1341 2875 1431 
L 2913 1025 
Q 2375 928 1906 898 
Q 1438 869 781 863 
L 413 863 
L 413 2919 
L 1925 2919 
L 1925 4025 
L 400 4025 
L 400 4431 
L 2394 4431 
L 2394 2513 
z
M 4975 -506 
L 4506 -506 
L 4506 5050 
L 4975 5050 
L 4975 -506 
z
M 3838 -213 
L 3375 -213 
L 3375 2644 
L 2663 2644 
L 2663 3044 
L 3375 3044 
L 3375 4913 
L 3838 4913 
L 3838 -213 
z
" transform="scale(0.015625)"/>
        <path id="Pretendard-Regular-c784" d="M 4813 1869 
L 4325 1869 
L 4325 5044 
L 4813 5044 
L 4813 1869 
z
M 4813 -431 
L 1200 -431 
L 1200 1569 
L 4813 1569 
L 4813 -431 
z
M 1681 -31 
L 4331 -31 
L 4331 1169 
L 1681 1169 
L 1681 -31 
z
M 1813 4750 
Q 2231 4750 2562 4586 
Q 2894 4422 3081 4126 
Q 3269 3831 3269 3450 
Q 3269 3075 3081 2779 
Q 2894 2484 2562 2320 
Q 2231 2156 1813 2156 
Q 1394 2156 1062 2320 
Q 731 2484 543 2779 
Q 356 3075 356 3450 
Q 356 3831 543 4126 
Q 731 4422 1062 4586 
Q 1394 4750 1813 4750 
z
M 1813 4331 
Q 1531 4334 1307 4221 
Q 1084 4109 959 3907 
Q 834 3706 838 3450 
Q 834 3197 959 2998 
Q 1084 2800 1307 2687 
Q 1531 2575 1813 2575 
Q 2091 2575 2312 2687 
Q 2534 2800 2661 2998 
Q 2788 3197 2788 3450 
Q 2788 3706 2661 3907 
Q 2534 4109 2312 4221 
Q 2091 4334 1813 4331 
z
" transform="scale(0.015625)"/>
       </defs>
       <use xlink:href="#Pretendard-Regular-d504"/>
       <use xlink:href="#Pretendard-Regular-b808" transform="translate(86.425781 0)"/>
       <use xlink:href="#Pretendard-Regular-c784" transform="translate(172.851562 0)"/>
      </g>
      <!-- 잔여량 회귀 -->
      <g style="fill: #334155" transform="translate(95.981042 425.263125) scale(0.15 -0.15)">
       <defs>
        <path id="Pretendard-Regular-c794" d="M 2106 3888 
Q 2106 3516 2278 3175 
Q 2450 2834 2762 2573 
Q 3075 2313 3481 2169 
L 3206 1806 
Q 2744 1969 2395 2295 
Q 2047 2622 1869 3056 
Q 1691 2575 1323 2206 
Q 956 1838 469 1656 
L 206 2050 
Q 619 2200 939 2481 
Q 1259 2763 1440 3130 
Q 1622 3497 1625 3888 
L 1625 4156 
L 369 4156 
L 369 4563 
L 3356 4563 
L 3356 4156 
L 2106 4156 
L 2106 3888 
z
M 4569 3344 
L 5406 3344 
L 5406 2938 
L 4569 2938 
L 4569 988 
L 4081 988 
L 4081 5050 
L 4569 5050 
L 4569 3344 
z
M 4825 -388 
L 1094 -388 
L 1094 1344 
L 1575 1344 
L 1575 25 
L 4825 25 
L 4825 -388 
z
" transform="scale(0.015625)"/>
        <path id="Pretendard-Regular-c5ec" d="M 1719 4619 
Q 2100 4616 2400 4405 
Q 2700 4194 2881 3806 
L 4344 3806 
L 4344 5050 
L 4831 5050 
L 4831 -519 
L 4344 -519 
L 4344 1638 
L 2916 1638 
Q 2741 1213 2430 981 
Q 2119 750 1719 750 
Q 1313 750 995 987 
Q 678 1225 501 1662 
Q 325 2100 325 2681 
Q 325 3263 501 3700 
Q 678 4138 993 4377 
Q 1309 4616 1719 4619 
z
M 1719 4181 
Q 1447 4178 1236 3992 
Q 1025 3806 909 3467 
Q 794 3128 794 2681 
Q 794 2234 909 1895 
Q 1025 1556 1236 1372 
Q 1447 1188 1719 1188 
Q 1988 1188 2198 1372 
Q 2409 1556 2526 1895 
Q 2644 2234 2644 2681 
Q 2644 3128 2526 3467 
Q 2409 3806 2200 3992 
Q 1991 4178 1719 4181 
z
M 3025 3394 
Q 3106 3044 3106 2681 
Q 3106 2356 3041 2044 
L 4344 2044 
L 4344 3394 
L 3025 3394 
z
" transform="scale(0.015625)"/>
        <path id="Pretendard-Regular-b7c9" d="M 5413 3763 
L 4569 3763 
L 4569 3006 
L 5413 3006 
L 5413 2588 
L 4569 2588 
L 4569 1681 
L 4081 1681 
L 4081 5044 
L 4569 5044 
L 4569 4175 
L 5413 4175 
L 5413 3763 
z
M 2981 3200 
L 956 3200 
L 956 2425 
Q 1744 2425 2325 2462 
Q 2906 2500 3525 2606 
L 3575 2194 
Q 2941 2088 2341 2050 
Q 1741 2013 906 2013 
L 475 2013 
L 475 3588 
L 2500 3588 
L 2500 4294 
L 463 4294 
L 463 4700 
L 2981 4700 
L 2981 3200 
z
M 2788 1519 
Q 3350 1519 3762 1398 
Q 4175 1278 4397 1050 
Q 4619 822 4619 506 
Q 4619 191 4398 -34 
Q 4178 -259 3765 -376 
Q 3353 -494 2788 -494 
Q 2213 -494 1798 -376 
Q 1384 -259 1164 -34 
Q 944 191 944 506 
Q 944 822 1164 1050 
Q 1384 1278 1800 1398 
Q 2216 1519 2788 1519 
z
M 2788 1131 
Q 2366 1131 2056 1056 
Q 1747 981 1584 840 
Q 1422 700 1425 506 
Q 1422 316 1586 175 
Q 1750 34 2058 -39 
Q 2366 -113 2788 -113 
Q 3206 -113 3512 -39 
Q 3819 34 3981 173 
Q 4144 313 4144 506 
Q 4144 700 3981 840 
Q 3819 981 3512 1056 
Q 3206 1131 2788 1131 
z
" transform="scale(0.015625)"/>
        <path id="Pretendard-Regular-20" transform="scale(0.015625)"/>
        <path id="Pretendard-Regular-d68c" d="M 4781 -506 
L 4294 -506 
L 4294 5050 
L 4781 5050 
L 4781 -506 
z
M 256 975 
Q 1297 981 1838 997 
L 1838 1606 
Q 1506 1641 1257 1775 
Q 1009 1909 875 2123 
Q 741 2338 744 2613 
Q 741 2922 906 3155 
Q 1072 3388 1375 3516 
Q 1678 3644 2075 3644 
Q 2472 3644 2776 3516 
Q 3081 3388 3250 3155 
Q 3419 2922 3419 2613 
Q 3419 2341 3284 2127 
Q 3150 1913 2904 1780 
Q 2659 1647 2331 1609 
L 2331 1016 
Q 3238 1056 3925 1150 
L 3963 775 
Q 3134 641 2240 598 
Q 1347 556 331 556 
L 256 975 
z
M 3781 3963 
L 375 3963 
L 375 4363 
L 1838 4363 
L 1838 5044 
L 2331 5044 
L 2331 4363 
L 3781 4363 
L 3781 3963 
z
M 2075 3263 
Q 1822 3263 1622 3181 
Q 1422 3100 1311 2951 
Q 1200 2803 1200 2613 
Q 1200 2422 1311 2278 
Q 1422 2134 1622 2056 
Q 1822 1978 2075 1981 
Q 2331 1978 2529 2054 
Q 2728 2131 2839 2276 
Q 2950 2422 2950 2613 
Q 2950 2803 2839 2951 
Q 2728 3100 2529 3181 
Q 2331 3263 2075 3263 
z
" transform="scale(0.015625)"/>
        <path id="Pretendard-Regular-adc0" d="M 4850 -506 
L 4363 -506 
L 4363 5050 
L 4850 5050 
L 4850 -506 
z
M 188 2394 
Q 1659 2400 2647 2447 
Q 2744 2978 2780 3401 
Q 2816 3825 2822 4213 
L 681 4213 
L 681 4619 
L 3313 4619 
L 3313 4394 
L 3313 4319 
Q 3306 3897 3275 3467 
Q 3244 3038 3153 2475 
Q 3606 2506 3956 2544 
L 3994 2175 
Q 3219 2078 2256 2025 
L 2256 -175 
L 1763 -175 
L 1763 2006 
Q 1059 1981 256 1981 
L 188 2394 
z
" transform="scale(0.015625)"/>
       </defs>
       <use xlink:href="#Pretendard-Regular-c794"/>
       <use xlink:href="#Pretendard-Regular-c5ec" transform="translate(86.425781 0)"/>
       <use xlink:href="#Pretendard-Regular-b7c9" transform="translate(172.851562 0)"/>
       <use xlink:href="#Pretendard-Regular-20" transform="translate(259.277344 0)"/>
       <use xlink:href="#Pretendard-Regular-d68c" transform="translate(284.375 0)"/>
       <use xlink:href="#Pretendard-Regular-adc0" transform="translate(370.800781 0)"/>
      </g>
     </g>
    </g>
    <g id="xtick_2">
     <g id="line2d_2">
      <g>
       <use xlink:href="#mcd33ab4e8e" x="275.206341" y="391.942812" style="fill: #334155; stroke: #334155; stroke-width: 0.8"/>
      </g>
     </g>
     <g id="text_2">
      <!-- 실험곡선 -->
      <g style="fill: #334155" transform="translate(249.279779 409.548281) scale(0.15 -0.15)">
       <defs>
        <path id="Pretendard-Regular-c2e4" d="M 4806 2169 
L 4325 2169 
L 4325 5050 
L 4806 5050 
L 4806 2169 
z
M 4813 556 
L 1694 556 
L 1694 -44 
L 5013 -44 
L 5013 -444 
L 1213 -444 
L 1213 938 
L 4325 938 
L 4325 1494 
L 1200 1494 
L 1200 1888 
L 4813 1888 
L 4813 556 
z
M 2194 4463 
Q 2191 4075 2372 3725 
Q 2553 3375 2876 3111 
Q 3200 2847 3613 2713 
L 3369 2331 
Q 2878 2497 2508 2833 
Q 2138 3169 1950 3619 
Q 1763 3134 1388 2768 
Q 1013 2403 519 2225 
L 263 2613 
Q 678 2759 1003 3039 
Q 1328 3319 1511 3689 
Q 1694 4059 1694 4463 
L 1694 4888 
L 2194 4888 
L 2194 4463 
z
" transform="scale(0.015625)"/>
        <path id="Pretendard-Regular-d5d8" d="M 4831 1681 
L 4338 1681 
L 4338 2950 
L 3394 2950 
L 3394 3356 
L 4338 3356 
L 4338 5050 
L 4831 5050 
L 4831 1681 
z
M 4831 -431 
L 1200 -431 
L 1200 1381 
L 4831 1381 
L 4831 -431 
z
M 1688 -31 
L 4350 -31 
L 4350 988 
L 1688 988 
L 1688 -31 
z
M 3475 4063 
L 231 4063 
L 231 4463 
L 1613 4463 
L 1613 5100 
L 2094 5100 
L 2094 4463 
L 3475 4463 
L 3475 4063 
z
M 1850 3775 
Q 2225 3775 2517 3650 
Q 2809 3525 2975 3300 
Q 3141 3075 3144 2788 
Q 3141 2491 2977 2266 
Q 2813 2041 2519 1917 
Q 2225 1794 1850 1794 
Q 1475 1794 1183 1917 
Q 891 2041 727 2266 
Q 563 2491 563 2788 
Q 563 3075 727 3300 
Q 891 3525 1183 3650 
Q 1475 3775 1850 3775 
z
M 1850 3394 
Q 1613 3394 1427 3317 
Q 1241 3241 1136 3102 
Q 1031 2963 1031 2788 
Q 1031 2606 1134 2467 
Q 1238 2328 1423 2250 
Q 1609 2172 1850 2169 
Q 2091 2172 2277 2250 
Q 2463 2328 2566 2467 
Q 2669 2606 2669 2788 
Q 2669 2963 2564 3102 
Q 2459 3241 2273 3317 
Q 2088 3394 1850 3394 
z
" transform="scale(0.015625)"/>
        <path id="Pretendard-Regular-ace1" d="M 5288 2000 
L 231 2000 
L 231 2406 
L 2325 2406 
L 2325 3531 
L 2806 3531 
L 2806 2406 
L 5288 2406 
L 5288 2000 
z
M 4644 -506 
L 4144 -506 
L 4144 956 
L 769 956 
L 769 1363 
L 4644 1363 
L 4644 -506 
z
M 4644 4325 
Q 4644 3888 4620 3547 
Q 4597 3206 4506 2788 
L 4013 2838 
Q 4109 3253 4132 3576 
Q 4156 3900 4156 4325 
L 4156 4344 
L 831 4344 
L 831 4744 
L 4644 4744 
L 4644 4325 
z
" transform="scale(0.015625)"/>
        <path id="Pretendard-Regular-c120" d="M 2125 4000 
Q 2125 3616 2298 3258 
Q 2472 2900 2784 2623 
Q 3097 2347 3500 2200 
L 3225 1819 
Q 2769 2000 2420 2348 
Q 2072 2697 1891 3150 
Q 1716 2647 1350 2262 
Q 984 1878 494 1681 
L 231 2081 
Q 644 2234 962 2528 
Q 1281 2822 1461 3209 
Q 1641 3597 1644 4019 
L 1644 4706 
L 2125 4706 
L 2125 4000 
z
M 4831 881 
L 4338 881 
L 4338 3325 
L 3100 3325 
L 3100 3738 
L 4338 3738 
L 4338 5044 
L 4831 5044 
L 4831 881 
z
M 4956 -388 
L 1238 -388 
L 1238 1356 
L 1731 1356 
L 1731 25 
L 4956 25 
L 4956 -388 
z
" transform="scale(0.015625)"/>
       </defs>
       <use xlink:href="#Pretendard-Regular-c2e4"/>
       <use xlink:href="#Pretendard-Regular-d5d8" transform="translate(86.425781 0)"/>
       <use xlink:href="#Pretendard-Regular-ace1" transform="translate(172.851562 0)"/>
       <use xlink:href="#Pretendard-Regular-c120" transform="translate(259.277344 0)"/>
      </g>
      <!-- 요약 회귀 -->
      <g style="fill: #334155" transform="translate(247.397748 425.263125) scale(0.15 -0.15)">
       <defs>
        <path id="Pretendard-Regular-c694" d="M 5313 206 
L 225 206 
L 225 619 
L 1488 619 
L 1488 2119 
Q 1125 2306 925 2601 
Q 725 2897 725 3269 
Q 725 3694 984 4017 
Q 1244 4341 1705 4519 
Q 2166 4697 2756 4700 
Q 3347 4697 3808 4519 
Q 4269 4341 4528 4017 
Q 4788 3694 4788 3269 
Q 4788 2903 4594 2611 
Q 4400 2319 4050 2131 
L 4050 619 
L 5313 619 
L 5313 206 
z
M 2756 4294 
Q 2303 4297 1950 4169 
Q 1597 4041 1398 3808 
Q 1200 3575 1200 3269 
Q 1200 2963 1398 2727 
Q 1597 2491 1950 2361 
Q 2303 2231 2756 2231 
Q 3206 2231 3559 2362 
Q 3913 2494 4113 2728 
Q 4313 2963 4313 3269 
Q 4313 3575 4113 3808 
Q 3913 4041 3559 4169 
Q 3206 4297 2756 4294 
z
M 3556 619 
L 3556 1941 
Q 3184 1844 2756 1844 
Q 2325 1844 1969 1938 
L 1969 619 
L 3556 619 
z
" transform="scale(0.015625)"/>
        <path id="Pretendard-Regular-c57d" d="M 5394 3788 
L 4569 3788 
L 4569 3006 
L 5394 3006 
L 5394 2588 
L 4569 2588 
L 4569 1744 
L 4081 1744 
L 4081 5050 
L 4569 5050 
L 4569 4188 
L 5394 4188 
L 5394 3788 
z
M 4569 -506 
L 4081 -506 
L 4081 1081 
L 931 1081 
L 931 1488 
L 4569 1488 
L 4569 -506 
z
M 1788 4713 
Q 2203 4716 2536 4550 
Q 2869 4384 3058 4084 
Q 3247 3784 3250 3406 
Q 3247 3022 3058 2722 
Q 2869 2422 2537 2255 
Q 2206 2088 1788 2088 
Q 1369 2088 1036 2255 
Q 703 2422 515 2722 
Q 328 3022 331 3406 
Q 328 3784 515 4082 
Q 703 4381 1036 4548 
Q 1369 4716 1788 4713 
z
M 1788 4294 
Q 1509 4294 1286 4181 
Q 1063 4069 936 3867 
Q 809 3666 813 3406 
Q 809 3144 936 2939 
Q 1063 2734 1286 2621 
Q 1509 2509 1788 2513 
Q 2069 2509 2292 2621 
Q 2516 2734 2642 2939 
Q 2769 3144 2769 3406 
Q 2769 3666 2642 3867 
Q 2516 4069 2292 4181 
Q 2069 4294 1788 4294 
z
" transform="scale(0.015625)"/>
       </defs>
       <use xlink:href="#Pretendard-Regular-c694"/>
       <use xlink:href="#Pretendard-Regular-c57d" transform="translate(86.425781 0)"/>
       <use xlink:href="#Pretendard-Regular-20" transform="translate(172.851562 0)"/>
       <use xlink:href="#Pretendard-Regular-d68c" transform="translate(197.949219 0)"/>
       <use xlink:href="#Pretendard-Regular-adc0" transform="translate(284.375 0)"/>
      </g>
     </g>
    </g>
    <g id="xtick_3">
     <g id="line2d_3">
      <g>
       <use xlink:href="#mcd33ab4e8e" x="420.141406" y="391.942812" style="fill: #334155; stroke: #334155; stroke-width: 0.8"/>
      </g>
     </g>
     <g id="text_3">
      <!-- 후보 오차 -->
      <g style="fill: #334155" transform="translate(392.332813 409.548281) scale(0.15 -0.15)">
       <defs>
        <path id="Pretendard-Regular-d6c4" d="M 4994 4006 
L 488 4006 
L 488 4413 
L 2513 4413 
L 2513 5081 
L 2994 5081 
L 2994 4413 
L 4994 4413 
L 4994 4006 
z
M 5313 1044 
L 2994 1044 
L 2994 -519 
L 2513 -519 
L 2513 1044 
L 225 1044 
L 225 1450 
L 5313 1450 
L 5313 1044 
z
M 2756 3688 
Q 3322 3688 3730 3580 
Q 4138 3472 4353 3262 
Q 4569 3053 4569 2756 
Q 4569 2466 4351 2259 
Q 4134 2053 3728 1943 
Q 3322 1834 2756 1831 
Q 2188 1834 1780 1943 
Q 1372 2053 1156 2259 
Q 941 2466 944 2756 
Q 941 3053 1156 3262 
Q 1372 3472 1780 3580 
Q 2188 3688 2756 3688 
z
M 2756 3313 
Q 2134 3313 1789 3166 
Q 1444 3019 1450 2756 
Q 1447 2500 1789 2356 
Q 2131 2213 2756 2213 
Q 3372 2213 3715 2356 
Q 4059 2500 4063 2756 
Q 4056 3019 3712 3166 
Q 3369 3313 2756 3313 
z
" transform="scale(0.015625)"/>
        <path id="Pretendard-Regular-bcf4" d="M 5313 206 
L 225 206 
L 225 613 
L 2513 613 
L 2513 1813 
L 825 1813 
L 825 4656 
L 1319 4656 
L 1319 3650 
L 4206 3650 
L 4206 4656 
L 4688 4656 
L 4688 1813 
L 2994 1813 
L 2994 613 
L 5313 613 
L 5313 206 
z
M 4206 2213 
L 4206 3250 
L 1319 3250 
L 1319 2213 
L 4206 2213 
z
" transform="scale(0.015625)"/>
        <path id="Pretendard-Regular-c624" d="M 2756 4688 
Q 3344 4684 3806 4503 
Q 4269 4322 4528 3992 
Q 4788 3663 4788 3231 
Q 4788 2825 4561 2509 
Q 4334 2194 3928 2006 
Q 3522 1819 2994 1784 
L 2994 619 
L 5313 619 
L 5313 206 
L 225 206 
L 225 619 
L 2513 619 
L 2513 1784 
Q 1988 1819 1581 2008 
Q 1175 2197 950 2511 
Q 725 2825 725 3231 
Q 725 3663 984 3992 
Q 1244 4322 1706 4503 
Q 2169 4684 2756 4688 
z
M 2756 4281 
Q 2309 4281 1954 4148 
Q 1600 4016 1400 3777 
Q 1200 3538 1200 3231 
Q 1200 2916 1400 2675 
Q 1600 2434 1953 2303 
Q 2306 2172 2756 2169 
Q 3206 2172 3559 2303 
Q 3913 2434 4113 2675 
Q 4313 2916 4313 3231 
Q 4313 3538 4113 3777 
Q 3913 4016 3558 4148 
Q 3203 4281 2756 4281 
z
" transform="scale(0.015625)"/>
        <path id="Pretendard-Regular-cc28" d="M 2075 3238 
Q 2075 2800 2253 2367 
Q 2431 1934 2748 1587 
Q 3066 1241 3463 1050 
L 3175 669 
Q 2719 891 2370 1320 
Q 2022 1750 1847 2291 
Q 1666 1713 1298 1255 
Q 931 797 456 569 
L 175 950 
Q 578 1138 901 1497 
Q 1225 1856 1411 2311 
Q 1597 2766 1600 3238 
L 1600 3681 
L 325 3681 
L 325 4081 
L 1594 4081 
L 1594 4944 
L 2088 4944 
L 2088 4081 
L 3338 4081 
L 3338 3681 
L 2075 3681 
L 2075 3238 
z
M 4525 2769 
L 5456 2769 
L 5456 2350 
L 4525 2350 
L 4525 -506 
L 4038 -506 
L 4038 5050 
L 4525 5050 
L 4525 2769 
z
" transform="scale(0.015625)"/>
       </defs>
       <use xlink:href="#Pretendard-Regular-d6c4"/>
       <use xlink:href="#Pretendard-Regular-bcf4" transform="translate(86.425781 0)"/>
       <use xlink:href="#Pretendard-Regular-20" transform="translate(172.851562 0)"/>
       <use xlink:href="#Pretendard-Regular-c624" transform="translate(197.949219 0)"/>
       <use xlink:href="#Pretendard-Regular-cc28" transform="translate(284.375 0)"/>
      </g>
      <!-- 보정 회귀 -->
      <g style="fill: #334155" transform="translate(392.332813 425.263125) scale(0.15 -0.15)">
       <defs>
        <path id="Pretendard-Regular-c815" d="M 4831 1738 
L 4338 1738 
L 4338 3194 
L 3219 3194 
L 3219 3600 
L 4338 3600 
L 4338 5050 
L 4831 5050 
L 4831 1738 
z
M 2988 1563 
Q 3566 1563 3984 1441 
Q 4403 1319 4626 1087 
Q 4850 856 4850 531 
Q 4850 206 4626 -26 
Q 4403 -259 3984 -381 
Q 3566 -503 2988 -506 
Q 2409 -503 1990 -381 
Q 1572 -259 1348 -26 
Q 1125 206 1125 531 
Q 1125 856 1348 1087 
Q 1572 1319 1990 1441 
Q 2409 1563 2988 1563 
z
M 2988 1181 
Q 2566 1181 2253 1103 
Q 1941 1025 1775 878 
Q 1609 731 1613 531 
Q 1609 334 1775 189 
Q 1941 44 2253 -34 
Q 2566 -113 2988 -113 
Q 3409 -113 3720 -34 
Q 4031 44 4197 189 
Q 4363 334 4363 531 
Q 4363 731 4197 878 
Q 4031 1025 3720 1103 
Q 3409 1181 2988 1181 
z
M 2156 4031 
Q 2156 3672 2328 3336 
Q 2500 3000 2811 2739 
Q 3122 2478 3525 2338 
L 3269 1944 
Q 2803 2113 2451 2444 
Q 2100 2775 1922 3209 
Q 1741 2722 1370 2348 
Q 1000 1975 506 1788 
L 250 2181 
Q 659 2331 981 2614 
Q 1303 2897 1483 3265 
Q 1663 3634 1663 4025 
L 1663 4231 
L 406 4231 
L 406 4644 
L 3400 4644 
L 3400 4231 
L 2156 4231 
L 2156 4031 
z
" transform="scale(0.015625)"/>
       </defs>
       <use xlink:href="#Pretendard-Regular-bcf4"/>
       <use xlink:href="#Pretendard-Regular-c815" transform="translate(86.425781 0)"/>
       <use xlink:href="#Pretendard-Regular-20" transform="translate(172.851562 0)"/>
       <use xlink:href="#Pretendard-Regular-d68c" transform="translate(197.949219 0)"/>
       <use xlink:href="#Pretendard-Regular-adc0" transform="translate(284.375 0)"/>
      </g>
     </g>
    </g>
    <g id="xtick_4">
     <g id="line2d_4">
      <g>
       <use xlink:href="#mcd33ab4e8e" x="565.076471" y="391.942812" style="fill: #334155; stroke: #334155; stroke-width: 0.8"/>
      </g>
     </g>
     <g id="text_4">
      <!-- 프레임 -->
      <g style="fill: #334155" transform="translate(545.631549 409.548281) scale(0.15 -0.15)">
       <use xlink:href="#Pretendard-Regular-d504"/>
       <use xlink:href="#Pretendard-Regular-b808" transform="translate(86.425781 0)"/>
       <use xlink:href="#Pretendard-Regular-c784" transform="translate(172.851562 0)"/>
      </g>
      <!-- 구간 분류 -->
      <g style="fill: #334155" transform="translate(537.267877 425.263125) scale(0.15 -0.15)">
       <defs>
        <path id="Pretendard-Regular-ad6c" d="M 4619 4200 
Q 4619 3663 4592 3247 
Q 4566 2831 4459 2300 
L 5288 2300 
L 5288 1894 
L 2994 1894 
L 2994 -519 
L 2500 -519 
L 2500 1894 
L 225 1894 
L 225 2300 
L 3963 2300 
Q 4075 2831 4103 3250 
Q 4131 3669 4131 4200 
L 4131 4281 
L 863 4281 
L 863 4688 
L 4619 4688 
L 4619 4200 
z
" transform="scale(0.015625)"/>
        <path id="Pretendard-Regular-ac04" d="M 4569 3356 
L 5406 3356 
L 5406 2944 
L 4569 2944 
L 4569 981 
L 4075 981 
L 4075 5050 
L 4569 5050 
L 4569 3356 
z
M 3069 4619 
Q 3069 3916 2748 3328 
Q 2428 2741 1839 2309 
Q 1250 1878 444 1625 
L 231 2019 
Q 897 2228 1397 2554 
Q 1897 2881 2190 3301 
Q 2484 3722 2534 4206 
L 463 4206 
L 463 4619 
L 3069 4619 
z
M 4825 -388 
L 1088 -388 
L 1088 1394 
L 1575 1394 
L 1575 25 
L 4825 25 
L 4825 -388 
z
" transform="scale(0.015625)"/>
        <path id="Pretendard-Regular-bd84" d="M 5306 1706 
L 3044 1706 
L 3044 619 
L 2556 619 
L 2556 1706 
L 219 1706 
L 219 2106 
L 5306 2106 
L 5306 1706 
z
M 4738 -388 
L 869 -388 
L 869 1131 
L 1356 1131 
L 1356 25 
L 4738 25 
L 4738 -388 
z
M 1388 4156 
L 4138 4156 
L 4138 4869 
L 4625 4869 
L 4625 2650 
L 900 2650 
L 900 4869 
L 1388 4869 
L 1388 4156 
z
M 4138 3050 
L 4138 3781 
L 1388 3781 
L 1388 3050 
L 4138 3050 
z
" transform="scale(0.015625)"/>
        <path id="Pretendard-Regular-b958" d="M 5306 1338 
L 3969 1338 
L 3969 -506 
L 3481 -506 
L 3481 1338 
L 2044 1338 
L 2044 -506 
L 1550 -506 
L 1550 1338 
L 219 1338 
L 219 1731 
L 5306 1731 
L 5306 1338 
z
M 4688 3406 
L 1338 3406 
L 1338 2713 
L 4806 2713 
L 4806 2306 
L 844 2306 
L 844 3788 
L 4188 3788 
L 4188 4425 
L 831 4425 
L 831 4831 
L 4688 4831 
L 4688 3406 
z
" transform="scale(0.015625)"/>
       </defs>
       <use xlink:href="#Pretendard-Regular-ad6c"/>
       <use xlink:href="#Pretendard-Regular-ac04" transform="translate(86.425781 0)"/>
       <use xlink:href="#Pretendard-Regular-20" transform="translate(172.851562 0)"/>
       <use xlink:href="#Pretendard-Regular-bd84" transform="translate(197.949219 0)"/>
       <use xlink:href="#Pretendard-Regular-b958" transform="translate(284.375 0)"/>
      </g>
     </g>
    </g>
    <g id="xtick_5">
     <g id="line2d_5">
      <g>
       <use xlink:href="#mcd33ab4e8e" x="710.011536" y="391.942812" style="fill: #334155; stroke: #334155; stroke-width: 0.8"/>
      </g>
     </g>
     <g id="text_5">
      <!-- 적정 종류별 -->
      <g style="fill: #334155" transform="translate(675.721302 409.548281) scale(0.15 -0.15)">
       <defs>
        <path id="Pretendard-Regular-c801" d="M 2156 4025 
Q 2156 3666 2328 3330 
Q 2500 2994 2811 2733 
Q 3122 2472 3525 2331 
L 3269 1944 
Q 2803 2113 2451 2444 
Q 2100 2775 1919 3206 
Q 1738 2725 1369 2359 
Q 1000 1994 506 1813 
L 250 2200 
Q 656 2347 978 2626 
Q 1300 2906 1481 3270 
Q 1663 3634 1663 4019 
L 1663 4263 
L 406 4263 
L 406 4663 
L 3400 4663 
L 3400 4263 
L 2156 4263 
L 2156 4025 
z
M 4831 -506 
L 4338 -506 
L 4338 1019 
L 1094 1019 
L 1094 1425 
L 4831 1425 
L 4831 -506 
z
M 4831 1719 
L 4338 1719 
L 4338 3181 
L 3225 3181 
L 3225 3594 
L 4338 3594 
L 4338 5050 
L 4831 5050 
L 4831 1719 
z
" transform="scale(0.015625)"/>
        <path id="Pretendard-Regular-c885" d="M 2994 2281 
L 5288 2281 
L 5288 1875 
L 225 1875 
L 225 2281 
L 2513 2281 
L 2513 3075 
L 2994 3075 
L 2994 2281 
z
M 2756 1419 
Q 3353 1419 3781 1308 
Q 4209 1197 4437 983 
Q 4666 769 4669 463 
Q 4666 156 4437 -58 
Q 4209 -272 3781 -383 
Q 3353 -494 2756 -494 
Q 2153 -494 1723 -383 
Q 1294 -272 1066 -58 
Q 838 156 838 463 
Q 838 769 1066 983 
Q 1294 1197 1723 1308 
Q 2153 1419 2756 1419 
z
M 2756 1031 
Q 2078 1031 1706 882 
Q 1334 734 1338 463 
Q 1334 281 1501 153 
Q 1669 25 1989 -44 
Q 2309 -113 2756 -113 
Q 3197 -113 3517 -44 
Q 3838 25 4006 153 
Q 4175 281 4175 463 
Q 4175 734 3800 882 
Q 3425 1031 2756 1031 
z
M 4838 4388 
L 3075 4388 
Q 3091 4091 3364 3834 
Q 3638 3578 4077 3409 
Q 4516 3241 5006 3188 
L 4825 2800 
Q 4363 2856 3947 3004 
Q 3531 3153 3218 3387 
Q 2906 3622 2756 3922 
Q 2609 3622 2298 3387 
Q 1988 3153 1570 3004 
Q 1153 2856 688 2800 
L 506 3188 
Q 997 3241 1434 3408 
Q 1872 3575 2145 3831 
Q 2419 4088 2438 4388 
L 688 4388 
L 688 4788 
L 4838 4788 
L 4838 4388 
z
" transform="scale(0.015625)"/>
        <path id="Pretendard-Regular-bcc4" d="M 4825 2144 
L 4338 2144 
L 4338 2856 
L 3025 2856 
L 3025 2369 
L 506 2369 
L 506 4788 
L 994 4788 
L 994 3988 
L 2544 3988 
L 2544 4788 
L 3025 4788 
L 3025 4250 
L 4338 4250 
L 4338 5050 
L 4825 5050 
L 4825 2144 
z
M 4825 569 
L 1725 569 
L 1725 -38 
L 5038 -38 
L 5038 -431 
L 1238 -431 
L 1238 944 
L 4338 944 
L 4338 1481 
L 1225 1481 
L 1225 1875 
L 4825 1875 
L 4825 569 
z
M 2544 2769 
L 2544 3600 
L 994 3600 
L 994 2769 
L 2544 2769 
z
M 4338 3244 
L 4338 3869 
L 3025 3869 
L 3025 3244 
L 4338 3244 
z
" transform="scale(0.015625)"/>
       </defs>
       <use xlink:href="#Pretendard-Regular-c801"/>
       <use xlink:href="#Pretendard-Regular-c815" transform="translate(86.425781 0)"/>
       <use xlink:href="#Pretendard-Regular-20" transform="translate(172.851562 0)"/>
       <use xlink:href="#Pretendard-Regular-c885" transform="translate(197.949219 0)"/>
       <use xlink:href="#Pretendard-Regular-b958" transform="translate(284.375 0)"/>
       <use xlink:href="#Pretendard-Regular-bcc4" transform="translate(370.800781 0)"/>
      </g>
      <!-- 모델 선택 -->
      <g style="fill: #334155" transform="translate(682.202942 425.263125) scale(0.15 -0.15)">
       <defs>
        <path id="Pretendard-Regular-baa8" d="M 5313 206 
L 225 206 
L 225 619 
L 2513 619 
L 2513 1975 
L 825 1975 
L 825 4581 
L 4681 4581 
L 4681 1975 
L 2994 1975 
L 2994 619 
L 5313 619 
L 5313 206 
z
M 1306 2369 
L 4206 2369 
L 4206 4188 
L 1306 4188 
L 1306 2369 
z
" transform="scale(0.015625)"/>
        <path id="Pretendard-Regular-b378" d="M 4956 2088 
L 4488 2088 
L 4488 5044 
L 4956 5044 
L 4956 2088 
z
M 3888 2138 
L 3419 2138 
L 3419 3431 
L 2269 3431 
L 2269 3819 
L 3419 3819 
L 3419 4931 
L 3888 4931 
L 3888 2138 
z
M 2619 4325 
L 988 4325 
L 988 2769 
Q 1609 2772 2029 2801 
Q 2450 2831 2894 2919 
L 2925 2513 
Q 2447 2428 1989 2398 
Q 1531 2369 850 2369 
L 500 2369 
L 500 4719 
L 2619 4719 
L 2619 4325 
z
M 4956 550 
L 1756 550 
L 1756 -38 
L 5169 -38 
L 5169 -431 
L 1269 -431 
L 1269 931 
L 4481 931 
L 4481 1450 
L 1256 1450 
L 1256 1844 
L 4956 1844 
L 4956 550 
z
" transform="scale(0.015625)"/>
        <path id="Pretendard-Regular-d0dd" d="M 2631 4231 
L 944 4231 
L 944 3538 
L 2569 3538 
L 2569 3150 
L 944 3150 
L 944 2381 
Q 1584 2384 2006 2415 
Q 2428 2447 2856 2531 
L 2906 2125 
Q 2431 2034 1979 2001 
Q 1528 1969 825 1969 
L 475 1969 
L 475 4644 
L 2631 4644 
L 2631 4231 
z
M 4944 1675 
L 4475 1675 
L 4475 3194 
L 3694 3194 
L 3694 1713 
L 3238 1713 
L 3238 4938 
L 3694 4938 
L 3694 3594 
L 4475 3594 
L 4475 5044 
L 4944 5044 
L 4944 1675 
z
M 4944 -506 
L 4463 -506 
L 4463 988 
L 1200 988 
L 1200 1388 
L 4944 1388 
L 4944 -506 
z
" transform="scale(0.015625)"/>
       </defs>
       <use xlink:href="#Pretendard-Regular-baa8"/>
       <use xlink:href="#Pretendard-Regular-b378" transform="translate(86.425781 0)"/>
       <use xlink:href="#Pretendard-Regular-20" transform="translate(172.851562 0)"/>
       <use xlink:href="#Pretendard-Regular-c120" transform="translate(197.949219 0)"/>
       <use xlink:href="#Pretendard-Regular-d0dd" transform="translate(284.375 0)"/>
      </g>
     </g>
    </g>
   </g>
   <g id="matplotlib.axis_2">
    <g id="ytick_1">
     <g id="line2d_6">
      <path d="M 51.861406 391.942812 
L 788.421406 391.942812 
" clip-path="url(#p1986658f6c)" style="fill: none; stroke: #e5e7eb; stroke-width: 1.15; stroke-linecap: square"/>
     </g>
     <g id="line2d_7">
      <defs>
       <path id="m0cb3f49f39" d="M 0 0 
L -3.5 0 
" style="stroke: #334155; stroke-width: 0.8"/>
      </defs>
      <g>
       <use xlink:href="#m0cb3f49f39" x="51.861406" y="391.942812" style="fill: #334155; stroke: #334155; stroke-width: 0.8"/>
      </g>
     </g>
     <g id="text_6">
      <!-- 0 -->
      <g style="fill: #334155" transform="translate(35.924688 397.245547) scale(0.15 -0.15)">
       <defs>
        <path id="Pretendard-Regular-30" d="M 1906 -63 
Q 1406 -63 1051 209 
Q 697 481 511 1003 
Q 325 1525 325 2263 
Q 325 2991 512 3514 
Q 700 4038 1056 4313 
Q 1413 4588 1906 4588 
Q 2400 4588 2756 4313 
Q 3113 4038 3300 3514 
Q 3488 2991 3488 2263 
Q 3488 1525 3302 1003 
Q 3116 481 2759 209 
Q 2403 -63 1906 -63 
z
M 1906 438 
Q 2231 438 2462 650 
Q 2694 863 2816 1272 
Q 2938 1681 2938 2263 
Q 2938 2844 2816 3256 
Q 2694 3669 2462 3884 
Q 2231 4100 1906 4100 
Q 1581 4100 1348 3884 
Q 1116 3669 992 3256 
Q 869 2844 869 2263 
Q 869 1681 991 1272 
Q 1113 863 1345 650 
Q 1578 438 1906 438 
z
" transform="scale(0.015625)"/>
       </defs>
       <use xlink:href="#Pretendard-Regular-30"/>
      </g>
     </g>
    </g>
    <g id="ytick_2">
     <g id="line2d_8">
      <path d="M 51.861406 317.202687 
L 788.421406 317.202687 
" clip-path="url(#p1986658f6c)" style="fill: none; stroke: #e5e7eb; stroke-width: 1.15; stroke-linecap: square"/>
     </g>
     <g id="line2d_9">
      <g>
       <use xlink:href="#m0cb3f49f39" x="51.861406" y="317.202687" style="fill: #334155; stroke: #334155; stroke-width: 0.8"/>
      </g>
     </g>
     <g id="text_7">
      <!-- 5 -->
      <g style="fill: #334155" transform="translate(35.910625 322.505422) scale(0.15 -0.15)">
       <defs>
        <path id="Pretendard-Regular-35" d="M 1900 -63 
Q 1497 -63 1167 92 
Q 838 247 642 520 
Q 447 794 431 1138 
L 975 1138 
Q 997 938 1125 777 
Q 1253 616 1456 523 
Q 1659 431 1900 431 
Q 2188 431 2419 562 
Q 2650 694 2781 922 
Q 2913 1150 2913 1431 
Q 2913 1722 2777 1955 
Q 2641 2188 2402 2320 
Q 2163 2453 1863 2456 
Q 1259 2466 1019 2050 
L 475 2050 
L 794 4525 
L 3244 4525 
L 3244 4025 
L 1263 4025 
L 1094 2700 
L 1138 2700 
Q 1291 2819 1509 2891 
Q 1728 2963 1963 2963 
Q 2388 2963 2730 2767 
Q 3072 2572 3267 2225 
Q 3463 1878 3463 1444 
Q 3463 1013 3259 669 
Q 3056 325 2700 131 
Q 2344 -63 1900 -63 
z
" transform="scale(0.015625)"/>
       </defs>
       <use xlink:href="#Pretendard-Regular-35"/>
      </g>
     </g>
    </g>
    <g id="ytick_3">
     <g id="line2d_10">
      <path d="M 51.861406 242.462562 
L 788.421406 242.462562 
" clip-path="url(#p1986658f6c)" style="fill: none; stroke: #e5e7eb; stroke-width: 1.15; stroke-linecap: square"/>
     </g>
     <g id="line2d_11">
      <g>
       <use xlink:href="#m0cb3f49f39" x="51.861406" y="242.462562" style="fill: #334155; stroke: #334155; stroke-width: 0.8"/>
      </g>
     </g>
     <g id="text_8">
      <!-- 10 -->
      <g style="fill: #334155" transform="translate(29.348125 247.765296) scale(0.15 -0.15)">
       <defs>
        <path id="Pretendard-Regular-31" d="M 2025 0 
L 1456 0 
L 1456 3938 
L 1431 3938 
L 331 3206 
L 331 3775 
L 1456 4525 
L 2025 4525 
L 2025 0 
z
" transform="scale(0.015625)"/>
       </defs>
       <use xlink:href="#Pretendard-Regular-31"/>
       <use xlink:href="#Pretendard-Regular-30" transform="translate(43.847656 0)"/>
      </g>
     </g>
    </g>
    <g id="ytick_4">
     <g id="line2d_12">
      <path d="M 51.861406 167.722437 
L 788.421406 167.722437 
" clip-path="url(#p1986658f6c)" style="fill: none; stroke: #e5e7eb; stroke-width: 1.15; stroke-linecap: square"/>
     </g>
     <g id="line2d_13">
      <g>
       <use xlink:href="#m0cb3f49f39" x="51.861406" y="167.722437" style="fill: #334155; stroke: #334155; stroke-width: 0.8"/>
      </g>
     </g>
     <g id="text_9">
      <!-- 15 -->
      <g style="fill: #334155" transform="translate(29.334063 173.025171) scale(0.15 -0.15)">
       <use xlink:href="#Pretendard-Regular-31"/>
       <use xlink:href="#Pretendard-Regular-35" transform="translate(43.847656 0)"/>
      </g>
     </g>
    </g>
    <g id="ytick_5">
     <g id="line2d_14">
      <path d="M 51.861406 92.982311 
L 788.421406 92.982311 
" clip-path="url(#p1986658f6c)" style="fill: none; stroke: #e5e7eb; stroke-width: 1.15; stroke-linecap: square"/>
     </g>
     <g id="line2d_15">
      <g>
       <use xlink:href="#m0cb3f49f39" x="51.861406" y="92.982311" style="fill: #334155; stroke: #334155; stroke-width: 0.8"/>
      </g>
     </g>
     <g id="text_10">
      <!-- 20 -->
      <g style="fill: #334155" transform="translate(27.121563 98.285046) scale(0.15 -0.15)">
       <defs>
        <path id="Pretendard-Regular-32" d="M 419 413 
L 1963 2038 
Q 2269 2359 2430 2557 
Q 2591 2756 2673 2942 
Q 2756 3128 2756 3331 
Q 2756 3556 2637 3731 
Q 2519 3906 2314 4003 
Q 2109 4100 1856 4100 
Q 1591 4100 1391 3994 
Q 1191 3888 1083 3694 
Q 975 3500 975 3250 
L 444 3250 
Q 441 3644 627 3947 
Q 813 4250 1141 4419 
Q 1469 4588 1875 4588 
Q 2278 4588 2598 4422 
Q 2919 4256 3100 3968 
Q 3281 3681 3281 3331 
Q 3281 3072 3187 2836 
Q 3094 2600 2873 2314 
Q 2653 2028 2244 1606 
L 1206 538 
L 1206 500 
L 3363 500 
L 3363 0 
L 425 0 
L 419 413 
z
" transform="scale(0.015625)"/>
       </defs>
       <use xlink:href="#Pretendard-Regular-32"/>
       <use xlink:href="#Pretendard-Regular-30" transform="translate(58.691406 0)"/>
      </g>
     </g>
    </g>
    <g id="text_11">
     <!-- MAPE (%) -->
     <g style="fill: #111827" transform="translate(19.734844 249.712656) rotate(-90) scale(0.17 -0.17)">
      <defs>
       <path id="Pretendard-Regular-4d" d="M 1175 4525 
L 2700 800 
L 2756 800 
L 4281 4525 
L 4956 4525 
L 4956 0 
L 4425 0 
L 4425 3419 
L 4381 3419 
L 2975 0 
L 2475 0 
L 1069 3419 
L 1031 3419 
L 1031 0 
L 500 0 
L 500 4525 
L 1175 4525 
z
" transform="scale(0.015625)"/>
       <path id="Pretendard-Regular-41" d="M 113 0 
L 1769 4525 
L 2363 4525 
L 4019 0 
L 3425 0 
L 2972 1275 
L 1153 1275 
L 700 0 
L 113 0 
z
M 2800 1769 
L 2081 3794 
L 2044 3794 
L 1325 1769 
L 2800 1769 
z
" transform="scale(0.015625)"/>
       <path id="Pretendard-Regular-50" d="M 500 4525 
L 2038 4525 
Q 2550 4525 2897 4337 
Q 3244 4150 3412 3826 
Q 3581 3503 3581 3088 
Q 3581 2675 3412 2348 
Q 3244 2022 2898 1833 
Q 2553 1644 2044 1644 
L 1063 1644 
L 1063 0 
L 500 0 
L 500 4525 
z
M 2019 2144 
Q 2531 2144 2778 2401 
Q 3025 2659 3025 3088 
Q 3025 3519 2778 3772 
Q 2531 4025 2013 4025 
L 1063 4025 
L 1063 2144 
L 2019 2144 
z
" transform="scale(0.015625)"/>
       <path id="Pretendard-Regular-45" d="M 500 4525 
L 3244 4525 
L 3244 4025 
L 1063 4025 
L 1063 2513 
L 3100 2513 
L 3100 2019 
L 1063 2019 
L 1063 500 
L 3275 500 
L 3275 0 
L 500 0 
L 500 4525 
z
" transform="scale(0.015625)"/>
       <path id="Pretendard-Regular-28" d="M 569 1725 
Q 578 3431 1469 4719 
L 1944 4719 
Q 1728 4406 1540 3909 
Q 1353 3413 1239 2838 
Q 1125 2263 1125 1725 
Q 1125 1188 1239 609 
Q 1353 31 1540 -466 
Q 1728 -963 1944 -1275 
L 1469 -1275 
Q 1028 -634 800 109 
Q 572 853 569 1725 
z
" transform="scale(0.015625)"/>
       <path id="Pretendard-Regular-25" d="M 1381 2425 
Q 1094 2425 889 2559 
Q 684 2694 579 2939 
Q 475 3184 475 3513 
Q 475 3831 583 4076 
Q 691 4322 895 4458 
Q 1100 4594 1381 4594 
Q 1672 4594 1875 4458 
Q 2078 4322 2183 4078 
Q 2288 3834 2288 3513 
Q 2288 3188 2181 2942 
Q 2075 2697 1870 2561 
Q 1666 2425 1381 2425 
z
M 1381 2813 
Q 1606 2813 1718 2998 
Q 1831 3184 1831 3513 
Q 1831 3841 1722 4025 
Q 1613 4209 1381 4206 
Q 1163 4206 1047 4020 
Q 931 3834 931 3513 
Q 931 3188 1047 3000 
Q 1163 2813 1381 2813 
z
M 4144 -63 
Q 3856 -66 3650 68 
Q 3444 203 3339 448 
Q 3234 694 3238 1019 
Q 3234 1341 3342 1587 
Q 3450 1834 3656 1970 
Q 3863 2106 4144 2106 
Q 4431 2106 4634 1970 
Q 4838 1834 4941 1589 
Q 5044 1344 5044 1019 
Q 5044 697 4937 450 
Q 4831 203 4628 68 
Q 4425 -66 4144 -63 
z
M 4144 325 
Q 4363 325 4475 509 
Q 4588 694 4588 1019 
Q 4588 1347 4481 1533 
Q 4375 1719 4156 1719 
Q 3931 1719 3809 1533 
Q 3688 1347 3688 1019 
Q 3688 697 3803 511 
Q 3919 325 4144 325 
z
M 4031 4525 
L 4538 4525 
L 1425 0 
L 919 0 
L 4031 4525 
z
" transform="scale(0.015625)"/>
       <path id="Pretendard-Regular-29" d="M 1613 1725 
Q 1609 853 1381 109 
Q 1153 -634 713 -1275 
L 238 -1275 
Q 453 -963 640 -466 
Q 828 31 942 609 
Q 1056 1188 1056 1725 
Q 1056 2263 942 2838 
Q 828 3413 640 3909 
Q 453 4406 238 4719 
L 713 4719 
Q 1603 3431 1613 1725 
z
" transform="scale(0.015625)"/>
      </defs>
      <use xlink:href="#Pretendard-Regular-4d"/>
      <use xlink:href="#Pretendard-Regular-41" transform="translate(85.253906 0)"/>
      <use xlink:href="#Pretendard-Regular-50" transform="translate(149.804688 0)"/>
      <use xlink:href="#Pretendard-Regular-45" transform="translate(210.253906 0)"/>
      <use xlink:href="#Pretendard-Regular-20" transform="translate(266.992188 0)"/>
      <use xlink:href="#Pretendard-Regular-28" transform="translate(292.089844 0)"/>
      <use xlink:href="#Pretendard-Regular-25" transform="translate(326.171875 0)"/>
      <use xlink:href="#Pretendard-Regular-29" transform="translate(412.402344 0)"/>
     </g>
    </g>
   </g>
   <g id="patch_3">
    <path d="M 85.341406 391.942812 
L 175.201147 391.942812 
L 175.201147 143.226256 
L 85.341406 143.226256 
z
" clip-path="url(#p1986658f6c)" style="fill: #64748b; stroke: #ffffff; stroke-width: 1.5; stroke-linejoin: miter"/>
   </g>
   <g id="patch_4">
    <path d="M 230.276471 391.942812 
L 320.136211 391.942812 
L 320.136211 151.603578 
L 230.276471 151.603578 
z
" clip-path="url(#p1986658f6c)" style="fill: #94a3b8; stroke: #ffffff; stroke-width: 1.5; stroke-linejoin: miter"/>
   </g>
   <g id="patch_5">
    <path d="M 375.211536 391.942812 
L 465.071276 391.942812 
L 465.071276 103.654812 
L 375.211536 103.654812 
z
" clip-path="url(#p1986658f6c)" style="fill: #a1a1aa; stroke: #ffffff; stroke-width: 1.5; stroke-linejoin: miter"/>
   </g>
   <g id="patch_6">
    <path d="M 520.146601 391.942812 
L 610.006341 391.942812 
L 610.006341 301.809241 
L 520.146601 301.809241 
z
" clip-path="url(#p1986658f6c)" style="fill: #2563eb; stroke: #ffffff; stroke-width: 1.5; stroke-linejoin: miter"/>
   </g>
   <g id="patch_7">
    <path d="M 665.081666 391.942812 
L 754.941406 391.942812 
L 754.941406 372.941675 
L 665.081666 372.941675 
z
" clip-path="url(#p1986658f6c)" style="fill: #16a34a; stroke: #ffffff; stroke-width: 1.5; stroke-linejoin: miter"/>
   </g>
   <g id="patch_8">
    <path d="M 51.861406 391.942812 
L 51.861406 31.582812 
" style="fill: none; stroke: #cbd5e1; stroke-width: 0.8; stroke-linejoin: miter; stroke-linecap: square"/>
   </g>
   <g id="patch_9">
    <path d="M 51.861406 391.942812 
L 788.421406 391.942812 
" style="fill: none; stroke: #cbd5e1; stroke-width: 0.8; stroke-linejoin: miter; stroke-linecap: square"/>
   </g>
   <g id="text_12">
    <!-- 16.64% -->
    <g style="fill: #111827" transform="translate(101.043776 131.029756) scale(0.16 -0.16)">
     <defs>
      <path id="Pretendard-Bold-31" d="M 2306 0 
L 1363 0 
L 1363 3631 
L 1338 3631 
L 300 2981 
L 300 3813 
L 1419 4525 
L 2306 4525 
L 2306 0 
z
" transform="scale(0.015625)"/>
      <path id="Pretendard-Bold-36" d="M 2119 -63 
Q 1613 -63 1200 154 
Q 788 372 534 867 
Q 281 1363 281 2156 
Q 281 2909 509 3457 
Q 738 4006 1159 4297 
Q 1581 4588 2144 4588 
Q 2588 4588 2941 4416 
Q 3294 4244 3508 3944 
Q 3722 3644 3769 3269 
L 2844 3269 
Q 2788 3509 2602 3645 
Q 2416 3781 2144 3781 
Q 1691 3781 1448 3398 
Q 1206 3016 1200 2338 
L 1244 2338 
Q 1397 2634 1709 2804 
Q 2022 2975 2400 2975 
Q 2803 2975 3126 2786 
Q 3450 2597 3634 2264 
Q 3819 1931 3819 1513 
Q 3819 1059 3605 701 
Q 3391 344 3003 140 
Q 2616 -63 2119 -63 
z
M 2100 681 
Q 2328 681 2512 787 
Q 2697 894 2801 1078 
Q 2906 1263 2906 1488 
Q 2906 1709 2804 1893 
Q 2703 2078 2522 2186 
Q 2341 2294 2113 2294 
Q 1884 2294 1698 2186 
Q 1513 2078 1405 1892 
Q 1297 1706 1294 1488 
Q 1297 1266 1401 1081 
Q 1506 897 1690 789 
Q 1875 681 2100 681 
z
" transform="scale(0.015625)"/>
      <path id="Pretendard-Bold-2e" d="M 906 -56 
Q 763 -56 641 16 
Q 519 88 448 208 
Q 378 328 381 469 
Q 378 609 448 728 
Q 519 847 641 917 
Q 763 988 906 988 
Q 1041 988 1161 917 
Q 1281 847 1353 728 
Q 1425 609 1425 469 
Q 1425 328 1353 208 
Q 1281 88 1161 16 
Q 1041 -56 906 -56 
z
" transform="scale(0.015625)"/>
      <path id="Pretendard-Bold-34" d="M 281 1544 
L 2194 4525 
L 3375 4525 
L 3375 1556 
L 3950 1556 
L 3950 800 
L 3375 800 
L 3375 0 
L 2481 0 
L 2481 800 
L 281 800 
L 281 1544 
z
M 2494 1556 
L 2494 3494 
L 2450 3494 
L 1231 1594 
L 1231 1556 
L 2494 1556 
z
" transform="scale(0.015625)"/>
      <path id="Pretendard-Bold-25" d="M 1544 2263 
Q 1213 2263 978 2414 
Q 744 2566 622 2837 
Q 500 3109 500 3469 
Q 500 3828 623 4103 
Q 747 4378 983 4529 
Q 1219 4681 1544 4681 
Q 1878 4681 2111 4529 
Q 2344 4378 2464 4104 
Q 2584 3831 2588 3469 
Q 2584 3106 2462 2834 
Q 2341 2563 2106 2413 
Q 1872 2263 1544 2263 
z
M 1544 2819 
Q 1741 2819 1842 2994 
Q 1944 3169 1950 3469 
Q 1944 3775 1845 3950 
Q 1747 4125 1544 4125 
Q 1347 4125 1242 3945 
Q 1138 3766 1138 3469 
Q 1138 3172 1244 2995 
Q 1350 2819 1544 2819 
z
M 4594 -150 
Q 4266 -150 4031 1 
Q 3797 153 3676 425 
Q 3556 697 3556 1056 
Q 3556 1416 3679 1691 
Q 3803 1966 4037 2117 
Q 4272 2269 4594 2269 
Q 4928 2269 5162 2117 
Q 5397 1966 5519 1692 
Q 5641 1419 5644 1056 
Q 5641 694 5519 422 
Q 5397 150 5161 0 
Q 4925 -150 4594 -150 
z
M 4594 406 
Q 4794 406 4897 578 
Q 5000 750 5006 1056 
Q 5000 1363 4900 1536 
Q 4800 1709 4594 1706 
Q 4403 1706 4298 1528 
Q 4194 1350 4194 1056 
Q 4194 756 4298 581 
Q 4403 406 4594 406 
z
M 4263 4525 
L 4963 4525 
L 1850 0 
L 1150 0 
L 4263 4525 
z
" transform="scale(0.015625)"/>
     </defs>
     <use xlink:href="#Pretendard-Bold-31"/>
     <use xlink:href="#Pretendard-Bold-36" transform="translate(46.875 0)"/>
     <use xlink:href="#Pretendard-Bold-2e" transform="translate(111.132812 0)"/>
     <use xlink:href="#Pretendard-Bold-36" transform="translate(139.355469 0)"/>
     <use xlink:href="#Pretendard-Bold-34" transform="translate(203.613281 0)"/>
     <use xlink:href="#Pretendard-Bold-25" transform="translate(269.335938 0)"/>
    </g>
   </g>
   <g id="text_13">
    <!-- 16.08% -->
    <g style="fill: #111827" transform="translate(245.947591 139.407078) scale(0.16 -0.16)">
     <defs>
      <path id="Pretendard-Bold-30" d="M 2113 -63 
Q 1547 -63 1139 210 
Q 731 484 512 1006 
Q 294 1528 294 2263 
Q 294 2997 512 3519 
Q 731 4041 1139 4314 
Q 1547 4588 2113 4588 
Q 2675 4588 3084 4314 
Q 3494 4041 3712 3517 
Q 3931 2994 3931 2263 
Q 3931 1525 3712 1003 
Q 3494 481 3086 209 
Q 2678 -63 2113 -63 
z
M 2113 713 
Q 2375 713 2567 881 
Q 2759 1050 2864 1390 
Q 2969 1731 2969 2231 
Q 2969 3009 2744 3414 
Q 2519 3819 2113 3819 
Q 1706 3819 1481 3414 
Q 1256 3009 1256 2231 
Q 1256 1731 1361 1390 
Q 1466 1050 1658 881 
Q 1850 713 2113 713 
z
" transform="scale(0.015625)"/>
      <path id="Pretendard-Bold-38" d="M 2056 -63 
Q 1547 -63 1142 103 
Q 738 269 509 561 
Q 281 853 281 1219 
Q 281 1497 412 1737 
Q 544 1978 773 2136 
Q 1003 2294 1281 2338 
L 1281 2369 
Q 1041 2416 853 2558 
Q 666 2700 561 2912 
Q 456 3125 456 3369 
Q 456 3719 662 3995 
Q 869 4272 1234 4430 
Q 1600 4588 2056 4588 
Q 2513 4588 2878 4430 
Q 3244 4272 3451 3995 
Q 3659 3719 3663 3369 
Q 3659 3122 3553 2911 
Q 3447 2700 3259 2558 
Q 3072 2416 2838 2369 
L 2838 2338 
Q 3113 2294 3339 2136 
Q 3566 1978 3698 1737 
Q 3831 1497 3831 1219 
Q 3831 853 3603 561 
Q 3375 269 2970 103 
Q 2566 -63 2056 -63 
z
M 2056 656 
Q 2291 656 2470 739 
Q 2650 822 2750 972 
Q 2850 1122 2850 1313 
Q 2850 1506 2748 1662 
Q 2647 1819 2465 1906 
Q 2284 1994 2056 1994 
Q 1828 1994 1645 1906 
Q 1463 1819 1361 1662 
Q 1259 1506 1263 1313 
Q 1259 1122 1357 972 
Q 1456 822 1637 739 
Q 1819 656 2056 656 
z
M 2056 2656 
Q 2253 2656 2411 2736 
Q 2569 2816 2656 2956 
Q 2744 3097 2744 3275 
Q 2744 3447 2656 3584 
Q 2569 3722 2412 3798 
Q 2256 3875 2056 3875 
Q 1856 3875 1701 3800 
Q 1547 3725 1461 3587 
Q 1375 3450 1375 3275 
Q 1375 3097 1462 2956 
Q 1550 2816 1704 2736 
Q 1859 2656 2056 2656 
z
" transform="scale(0.015625)"/>
     </defs>
     <use xlink:href="#Pretendard-Bold-31"/>
     <use xlink:href="#Pretendard-Bold-36" transform="translate(46.875 0)"/>
     <use xlink:href="#Pretendard-Bold-2e" transform="translate(111.132812 0)"/>
     <use xlink:href="#Pretendard-Bold-30" transform="translate(139.355469 0)"/>
     <use xlink:href="#Pretendard-Bold-38" transform="translate(205.371094 0)"/>
     <use xlink:href="#Pretendard-Bold-25" transform="translate(269.726562 0)"/>
    </g>
   </g>
   <g id="text_14">
    <!-- 19.29% -->
    <g style="fill: #111827" transform="translate(391.288906 91.458312) scale(0.16 -0.16)">
     <defs>
      <path id="Pretendard-Bold-39" d="M 1994 4588 
Q 2497 4588 2911 4370 
Q 3325 4153 3578 3661 
Q 3831 3169 3831 2381 
Q 3834 1622 3606 1070 
Q 3378 519 2958 228 
Q 2538 -63 1969 -63 
Q 1522 -63 1170 109 
Q 819 281 605 586 
Q 391 891 344 1275 
L 1269 1275 
Q 1325 1025 1511 884 
Q 1697 744 1969 744 
Q 2428 744 2670 1128 
Q 2913 1513 2913 2200 
L 2875 2200 
Q 2716 1900 2405 1731 
Q 2094 1563 1713 1563 
Q 1313 1563 989 1750 
Q 666 1938 481 2270 
Q 297 2603 294 3019 
Q 294 3469 506 3826 
Q 719 4184 1106 4386 
Q 1494 4588 1994 4588 
z
M 2013 3850 
Q 1788 3850 1605 3744 
Q 1422 3638 1317 3456 
Q 1213 3275 1213 3056 
Q 1213 2831 1314 2647 
Q 1416 2463 1597 2356 
Q 1778 2250 2006 2250 
Q 2231 2250 2417 2358 
Q 2603 2466 2711 2650 
Q 2819 2834 2819 3050 
Q 2816 3266 2709 3448 
Q 2603 3631 2420 3740 
Q 2238 3850 2013 3850 
z
" transform="scale(0.015625)"/>
      <path id="Pretendard-Bold-32" d="M 350 681 
L 1975 2175 
Q 2216 2406 2348 2559 
Q 2481 2713 2553 2864 
Q 2625 3016 2625 3188 
Q 2625 3384 2533 3531 
Q 2441 3678 2277 3758 
Q 2113 3838 1906 3838 
Q 1588 3838 1397 3648 
Q 1206 3459 1206 3138 
L 313 3138 
Q 309 3575 511 3903 
Q 713 4231 1078 4409 
Q 1444 4588 1919 4588 
Q 2397 4588 2762 4417 
Q 3128 4247 3329 3944 
Q 3531 3641 3531 3250 
Q 3531 2984 3428 2739 
Q 3325 2494 3070 2192 
Q 2816 1891 2350 1469 
L 1663 800 
L 1663 775 
L 3594 775 
L 3594 0 
L 356 0 
L 350 681 
z
" transform="scale(0.015625)"/>
     </defs>
     <use xlink:href="#Pretendard-Bold-31"/>
     <use xlink:href="#Pretendard-Bold-39" transform="translate(46.875 0)"/>
     <use xlink:href="#Pretendard-Bold-2e" transform="translate(111.132812 0)"/>
     <use xlink:href="#Pretendard-Bold-32" transform="translate(139.355469 0)"/>
     <use xlink:href="#Pretendard-Bold-39" transform="translate(200.390625 0)"/>
     <use xlink:href="#Pretendard-Bold-25" transform="translate(264.648438 0)"/>
    </g>
   </g>
   <g id="text_15">
    <!-- 6.03% -->
    <g style="fill: #111827" transform="translate(539.606471 289.612741) scale(0.16 -0.16)">
     <defs>
      <path id="Pretendard-Bold-33" d="M 2031 -63 
Q 1541 -63 1152 107 
Q 763 278 539 583 
Q 316 888 306 1275 
L 1256 1275 
Q 1266 1109 1369 981 
Q 1472 853 1647 783 
Q 1822 713 2038 713 
Q 2259 713 2436 792 
Q 2613 872 2711 1012 
Q 2809 1153 2806 1331 
Q 2809 1516 2704 1659 
Q 2600 1803 2406 1883 
Q 2213 1963 1950 1963 
L 1531 1963 
L 1531 2656 
L 1950 2656 
Q 2169 2656 2341 2731 
Q 2513 2806 2609 2943 
Q 2706 3081 2706 3256 
Q 2706 3428 2623 3559 
Q 2541 3691 2391 3764 
Q 2241 3838 2044 3838 
Q 1844 3838 1676 3767 
Q 1509 3697 1407 3567 
Q 1306 3438 1300 3269 
L 400 3269 
Q 406 3653 622 3953 
Q 838 4253 1211 4420 
Q 1584 4588 2044 4588 
Q 2506 4588 2864 4420 
Q 3222 4253 3419 3961 
Q 3616 3669 3613 3313 
Q 3616 3066 3508 2864 
Q 3400 2663 3204 2531 
Q 3009 2400 2756 2356 
L 2756 2319 
Q 3084 2278 3315 2137 
Q 3547 1997 3665 1773 
Q 3784 1550 3781 1269 
Q 3784 888 3559 583 
Q 3334 278 2934 107 
Q 2534 -63 2031 -63 
z
" transform="scale(0.015625)"/>
     </defs>
     <use xlink:href="#Pretendard-Bold-36"/>
     <use xlink:href="#Pretendard-Bold-2e" transform="translate(64.257812 0)"/>
     <use xlink:href="#Pretendard-Bold-30" transform="translate(92.480469 0)"/>
     <use xlink:href="#Pretendard-Bold-33" transform="translate(158.496094 0)"/>
     <use xlink:href="#Pretendard-Bold-25" transform="translate(222.363281 0)"/>
    </g>
   </g>
   <g id="text_16">
    <!-- 1.27% -->
    <g style="fill: #111827" transform="translate(686.840286 360.745175) scale(0.16 -0.16)">
     <defs>
      <path id="Pretendard-Bold-37" d="M 2438 3725 
L 2438 3756 
L 219 3756 
L 219 4525 
L 3413 4525 
L 3413 3744 
L 1506 0 
L 531 0 
L 2438 3725 
z
" transform="scale(0.015625)"/>
     </defs>
     <use xlink:href="#Pretendard-Bold-31"/>
     <use xlink:href="#Pretendard-Bold-2e" transform="translate(46.875 0)"/>
     <use xlink:href="#Pretendard-Bold-32" transform="translate(75.097656 0)"/>
     <use xlink:href="#Pretendard-Bold-37" transform="translate(136.132812 0)"/>
     <use xlink:href="#Pretendard-Bold-25" transform="translate(193.652344 0)"/>
    </g>
   </g>
   <g id="text_17">
    <!-- 예측 방식별 최고 성능 비교 -->
    <g style="fill: #111827" transform="translate(284.57375 25.582812) scale(0.26 -0.26)">
     <defs>
      <path id="Pretendard-Bold-c608" d="M 5100 -575 
L 4338 -575 
L 4338 5113 
L 5100 5113 
L 5100 -575 
z
M 3938 -313 
L 3188 -313 
L 3188 1450 
L 2519 1450 
Q 2359 1031 2086 806 
Q 1813 581 1456 581 
Q 1084 581 804 831 
Q 525 1081 372 1548 
Q 219 2016 219 2650 
Q 219 3281 372 3745 
Q 525 4209 804 4457 
Q 1084 4706 1456 4706 
Q 1809 4706 2082 4484 
Q 2356 4263 2516 3850 
L 3188 3850 
L 3188 5031 
L 3938 5031 
L 3938 -313 
z
M 1456 3956 
Q 1206 3956 1073 3625 
Q 941 3294 944 2650 
Q 941 2003 1072 1673 
Q 1203 1344 1456 1350 
Q 1709 1344 1848 1673 
Q 1988 2003 1988 2650 
Q 1988 3288 1847 3622 
Q 1706 3956 1456 3956 
z
M 2675 3213 
Q 2713 2950 2713 2650 
Q 2713 2353 2675 2094 
L 3188 2094 
L 3188 3213 
L 2675 3213 
z
" transform="scale(0.015625)"/>
      <path id="Pretendard-Bold-ce21" d="M 5356 1656 
L 169 1656 
L 169 2294 
L 5356 2294 
L 5356 1656 
z
M 4725 -575 
L 3931 -575 
L 3931 600 
L 744 600 
L 744 1225 
L 4725 1225 
L 4725 -575 
z
M 3150 4581 
L 4856 4581 
L 4856 3963 
L 3213 3963 
Q 3259 3750 3479 3569 
Q 3700 3388 4114 3266 
Q 4528 3144 5125 3106 
L 4881 2500 
Q 4109 2556 3568 2773 
Q 3028 2991 2756 3341 
Q 2481 2991 1940 2773 
Q 1400 2556 631 2500 
L 388 3106 
Q 981 3144 1393 3266 
Q 1806 3388 2026 3569 
Q 2247 3750 2297 3963 
L 669 3963 
L 669 4581 
L 2363 4581 
L 2363 5094 
L 3150 5094 
L 3150 4581 
z
" transform="scale(0.015625)"/>
      <path id="Pretendard-Bold-20" transform="scale(0.015625)"/>
      <path id="Pretendard-Bold-bc29" d="M 2819 1631 
Q 3406 1631 3839 1500 
Q 4272 1369 4505 1122 
Q 4738 875 4738 531 
Q 4738 181 4505 -69 
Q 4272 -319 3840 -450 
Q 3409 -581 2819 -581 
Q 2216 -581 1778 -450 
Q 1341 -319 1105 -69 
Q 869 181 869 531 
Q 869 875 1105 1122 
Q 1341 1369 1780 1500 
Q 2219 1631 2819 1631 
z
M 2819 1013 
Q 2250 1013 1958 892 
Q 1666 772 1669 531 
Q 1666 288 1959 163 
Q 2253 38 2819 38 
Q 3372 38 3661 163 
Q 3950 288 3950 531 
Q 3950 1013 2819 1013 
z
M 4681 3794 
L 5450 3794 
L 5450 3125 
L 4681 3125 
L 4681 1756 
L 3881 1756 
L 3881 5113 
L 4681 5113 
L 4681 3794 
z
M 1131 4038 
L 2294 4038 
L 2294 4756 
L 3094 4756 
L 3094 2081 
L 338 2081 
L 338 4756 
L 1131 4756 
L 1131 4038 
z
M 2294 2713 
L 2294 3419 
L 1131 3419 
L 1131 2713 
L 2294 2713 
z
" transform="scale(0.015625)"/>
      <path id="Pretendard-Bold-c2dd" d="M 2350 4306 
Q 2347 3938 2489 3606 
Q 2631 3275 2932 3017 
Q 3234 2759 3688 2625 
L 3288 2000 
Q 2813 2150 2473 2440 
Q 2134 2731 1938 3131 
Q 1741 2700 1391 2386 
Q 1041 2072 550 1913 
L 150 2538 
Q 606 2684 914 2959 
Q 1222 3234 1370 3582 
Q 1519 3931 1519 4306 
L 1519 4850 
L 2350 4850 
L 2350 4306 
z
M 4931 -575 
L 4131 -575 
L 4131 838 
L 1019 838 
L 1019 1475 
L 4931 1475 
L 4931 -575 
z
M 4931 1719 
L 4131 1719 
L 4131 5113 
L 4931 5113 
L 4931 1719 
z
" transform="scale(0.015625)"/>
      <path id="Pretendard-Bold-bcc4" d="M 4963 2188 
L 4169 2188 
L 4169 2756 
L 3119 2756 
L 3119 2350 
L 413 2350 
L 413 4869 
L 1213 4869 
L 1213 4206 
L 2331 4206 
L 2331 4869 
L 3119 4869 
L 3119 4388 
L 4169 4388 
L 4169 5113 
L 4963 5113 
L 4963 2188 
z
M 4963 456 
L 1981 456 
L 1981 113 
L 5131 113 
L 5131 -513 
L 1181 -513 
L 1181 1038 
L 4169 1038 
L 4169 1363 
L 1175 1363 
L 1175 1975 
L 4963 1975 
L 4963 456 
z
M 2331 2975 
L 2331 3600 
L 1213 3600 
L 1213 2975 
L 2331 2975 
z
M 4169 3356 
L 4169 3794 
L 3119 3794 
L 3119 3356 
L 4169 3356 
z
" transform="scale(0.015625)"/>
      <path id="Pretendard-Bold-cd5c" d="M 2450 1181 
Q 3213 1228 3831 1319 
L 3894 738 
Q 3056 575 2184 528 
Q 1313 481 288 481 
L 194 1125 
Q 1150 1131 1656 1147 
L 1656 2038 
L 2450 2038 
L 2450 1181 
z
M 3625 3800 
L 2463 3800 
Q 2491 3516 2647 3264 
Q 2803 3013 3093 2819 
Q 3384 2625 3800 2525 
L 3438 1906 
Q 2950 2028 2601 2290 
Q 2253 2553 2053 2919 
Q 1859 2534 1514 2261 
Q 1169 1988 681 1863 
L 306 2463 
Q 922 2625 1258 2984 
Q 1594 3344 1638 3800 
L 488 3800 
L 488 4444 
L 1656 4444 
L 1656 5063 
L 2450 5063 
L 2450 4444 
L 3625 4444 
L 3625 3800 
z
M 4950 -588 
L 4156 -588 
L 4156 5113 
L 4950 5113 
L 4950 -588 
z
" transform="scale(0.015625)"/>
      <path id="Pretendard-Bold-ace0" d="M 4856 4081 
Q 4856 3597 4845 3236 
Q 4834 2875 4782 2398 
Q 4731 1922 4625 1363 
L 3825 1444 
Q 3969 2156 4009 2725 
Q 4050 3294 4056 3988 
L 706 3988 
L 706 4619 
L 4856 4619 
L 4856 4081 
z
M 5356 119 
L 169 119 
L 169 769 
L 2025 769 
L 2025 2725 
L 2819 2725 
L 2819 769 
L 5356 769 
L 5356 119 
z
" transform="scale(0.015625)"/>
      <path id="Pretendard-Bold-c131" d="M 2319 4338 
Q 2316 3944 2455 3600 
Q 2594 3256 2886 2993 
Q 3178 2731 3619 2594 
L 3200 1969 
Q 2750 2125 2433 2409 
Q 2116 2694 1934 3088 
Q 1738 2628 1388 2295 
Q 1038 1963 538 1794 
L 119 2431 
Q 588 2581 900 2867 
Q 1213 3153 1361 3520 
Q 1509 3888 1513 4300 
L 1513 4819 
L 2319 4819 
L 2319 4338 
z
M 4963 1781 
L 4169 1781 
L 4169 3419 
L 3100 3419 
L 3100 4069 
L 4169 4069 
L 4169 5113 
L 4963 5113 
L 4963 1781 
z
M 3019 1631 
Q 3622 1631 4062 1500 
Q 4503 1369 4740 1120 
Q 4978 872 4981 525 
Q 4978 178 4740 -69 
Q 4503 -316 4064 -445 
Q 3625 -575 3019 -575 
Q 2413 -575 1973 -445 
Q 1534 -316 1298 -69 
Q 1063 178 1063 525 
Q 1063 872 1298 1120 
Q 1534 1369 1975 1500 
Q 2416 1631 3019 1631 
z
M 3019 1013 
Q 2447 1013 2151 891 
Q 1856 769 1856 525 
Q 1856 291 2154 167 
Q 2453 44 3019 44 
Q 3588 44 3888 167 
Q 4188 291 4188 525 
Q 4188 766 3889 889 
Q 3591 1013 3019 1013 
z
" transform="scale(0.015625)"/>
      <path id="Pretendard-Bold-b2a5" d="M 4781 3050 
L 825 3050 
L 825 5025 
L 1619 5025 
L 1619 3688 
L 4781 3688 
L 4781 3050 
z
M 5369 1913 
L 169 1913 
L 169 2563 
L 5369 2563 
L 5369 1913 
z
M 2756 1556 
Q 3372 1553 3815 1428 
Q 4259 1303 4496 1067 
Q 4734 831 4738 500 
Q 4734 166 4496 -71 
Q 4259 -309 3815 -432 
Q 3372 -556 2756 -556 
Q 2134 -556 1687 -432 
Q 1241 -309 1002 -71 
Q 763 166 763 500 
Q 763 831 1002 1067 
Q 1241 1303 1687 1428 
Q 2134 1553 2756 1556 
z
M 2756 938 
Q 2156 931 1864 826 
Q 1572 722 1575 500 
Q 1569 278 1869 164 
Q 2169 50 2756 50 
Q 3331 50 3631 164 
Q 3931 278 3938 500 
Q 3934 722 3639 826 
Q 3344 931 2756 938 
z
" transform="scale(0.015625)"/>
      <path id="Pretendard-Bold-be44" d="M 4931 -588 
L 4125 -588 
L 4125 5113 
L 4931 5113 
L 4931 -588 
z
M 1250 3275 
L 2475 3275 
L 2475 4663 
L 3263 4663 
L 3263 744 
L 450 744 
L 450 4663 
L 1250 4663 
L 1250 3275 
z
M 2475 1388 
L 2475 2656 
L 1250 2656 
L 1250 1388 
L 2475 1388 
z
" transform="scale(0.015625)"/>
      <path id="Pretendard-Bold-ad50" d="M 4888 4063 
L 4888 3994 
Q 4881 3291 4843 2734 
Q 4806 2178 4675 1444 
L 3894 1513 
Q 4019 2206 4053 2765 
Q 4088 3325 4088 3988 
L 681 3988 
L 681 4619 
L 4888 4619 
L 4888 4063 
z
M 5356 119 
L 169 119 
L 169 769 
L 1275 769 
L 1275 2556 
L 2069 2556 
L 2069 769 
L 2694 769 
L 2694 2556 
L 3481 2556 
L 3481 769 
L 5356 769 
L 5356 119 
z
" transform="scale(0.015625)"/>
     </defs>
     <use xlink:href="#Pretendard-Bold-c608"/>
     <use xlink:href="#Pretendard-Bold-ce21" transform="translate(86.425781 0)"/>
     <use xlink:href="#Pretendard-Bold-20" transform="translate(172.851562 0)"/>
     <use xlink:href="#Pretendard-Bold-bc29" transform="translate(195.898438 0)"/>
     <use xlink:href="#Pretendard-Bold-c2dd" transform="translate(282.324219 0)"/>
     <use xlink:href="#Pretendard-Bold-bcc4" transform="translate(368.75 0)"/>
     <use xlink:href="#Pretendard-Bold-20" transform="translate(455.175781 0)"/>
     <use xlink:href="#Pretendard-Bold-cd5c" transform="translate(478.222656 0)"/>
     <use xlink:href="#Pretendard-Bold-ace0" transform="translate(564.648438 0)"/>
     <use xlink:href="#Pretendard-Bold-20" transform="translate(651.074219 0)"/>
     <use xlink:href="#Pretendard-Bold-c131" transform="translate(674.121094 0)"/>
     <use xlink:href="#Pretendard-Bold-b2a5" transform="translate(760.546875 0)"/>
     <use xlink:href="#Pretendard-Bold-20" transform="translate(846.972656 0)"/>
     <use xlink:href="#Pretendard-Bold-be44" transform="translate(870.019531 0)"/>
     <use xlink:href="#Pretendard-Bold-ad50" transform="translate(956.445312 0)"/>
    </g>
   </g>
  </g>
  <g id="text_18">
   <!-- 전체 실험 부피를 직접 회귀하는 방식보다, 프레임을 먼저 분류하는 방식에서 오차가 감소하였다. -->
   <g style="fill: #475569" transform="translate(112.448906 452.782812) scale(0.16 -0.16)">
    <defs>
     <path id="Pretendard-Regular-c804" d="M 4831 969 
L 4338 969 
L 4338 3100 
L 3194 3100 
L 3194 3506 
L 4338 3506 
L 4338 5044 
L 4831 5044 
L 4831 969 
z
M 4988 -388 
L 1263 -388 
L 1263 1338 
L 1756 1338 
L 1756 25 
L 4988 25 
L 4988 -388 
z
M 2156 3900 
Q 2156 3544 2329 3205 
Q 2503 2866 2814 2603 
Q 3125 2341 3525 2206 
L 3269 1813 
Q 2803 1981 2451 2314 
Q 2100 2647 1919 3081 
Q 1738 2600 1369 2233 
Q 1000 1866 506 1681 
L 250 2081 
Q 656 2225 978 2501 
Q 1300 2778 1481 3142 
Q 1663 3506 1663 3900 
L 1663 4188 
L 406 4188 
L 406 4594 
L 3400 4594 
L 3400 4188 
L 2156 4188 
L 2156 3900 
z
" transform="scale(0.015625)"/>
     <path id="Pretendard-Regular-ccb4" d="M 1850 3338 
Q 1850 2891 1997 2456 
Q 2144 2022 2419 1673 
Q 2694 1325 3063 1125 
L 2781 756 
Q 2375 975 2078 1379 
Q 1781 1784 1625 2300 
Q 1472 1753 1176 1315 
Q 881 878 475 631 
L 181 1006 
Q 550 1219 822 1591 
Q 1094 1963 1239 2419 
Q 1384 2875 1388 3338 
L 1388 3613 
L 331 3613 
L 331 4019 
L 1388 4019 
L 1388 4844 
L 1856 4844 
L 1856 4019 
L 2894 4019 
L 2894 3613 
L 1850 3613 
L 1850 3338 
z
M 4975 -506 
L 4506 -506 
L 4506 5050 
L 4975 5050 
L 4975 -506 
z
M 3850 -219 
L 3388 -219 
L 3388 2438 
L 2513 2438 
L 2513 2856 
L 3388 2856 
L 3388 4913 
L 3850 4913 
L 3850 -219 
z
" transform="scale(0.015625)"/>
     <path id="Pretendard-Regular-bd80" d="M 5306 1350 
L 2988 1350 
L 2988 -506 
L 2506 -506 
L 2506 1350 
L 219 1350 
L 219 1750 
L 5306 1750 
L 5306 1350 
z
M 1356 4050 
L 4156 4050 
L 4156 4819 
L 4650 4819 
L 4650 2425 
L 869 2425 
L 869 4819 
L 1356 4819 
L 1356 4050 
z
M 4156 2825 
L 4156 3650 
L 1356 3650 
L 1356 2825 
L 4156 2825 
z
" transform="scale(0.015625)"/>
     <path id="Pretendard-Regular-d53c" d="M 4819 -506 
L 4325 -506 
L 4325 5050 
L 4819 5050 
L 4819 -506 
z
M 3538 4038 
L 2906 4038 
L 2906 1363 
Q 3413 1397 3825 1450 
L 3856 1081 
Q 3050 956 2184 915 
Q 1319 875 275 869 
L 219 1288 
L 988 1291 
L 988 4038 
L 363 4038 
L 363 4444 
L 3538 4444 
L 3538 4038 
z
M 1469 1300 
Q 1891 1309 2425 1334 
L 2425 4038 
L 1469 4038 
L 1469 1300 
z
" transform="scale(0.015625)"/>
     <path id="Pretendard-Regular-b97c" d="M 5306 2081 
L 219 2081 
L 219 2469 
L 5306 2469 
L 5306 2081 
z
M 4669 456 
L 1331 456 
L 1331 -75 
L 4850 -75 
L 4850 -431 
L 838 -431 
L 838 794 
L 4181 794 
L 4181 1269 
L 831 1269 
L 831 1638 
L 4669 1638 
L 4669 456 
z
M 4650 3731 
L 1369 3731 
L 1369 3244 
L 4750 3244 
L 4750 2888 
L 881 2888 
L 881 4069 
L 4156 4069 
L 4156 4525 
L 863 4525 
L 863 4881 
L 4650 4881 
L 4650 3731 
z
" transform="scale(0.015625)"/>
     <path id="Pretendard-Regular-c9c1" d="M 2225 4019 
Q 2225 3650 2406 3309 
Q 2588 2969 2913 2711 
Q 3238 2453 3650 2319 
L 3400 1938 
Q 2913 2103 2544 2433 
Q 2175 2763 1988 3203 
Q 1806 2731 1431 2372 
Q 1056 2013 563 1831 
L 306 2213 
Q 719 2359 1044 2636 
Q 1369 2913 1550 3272 
Q 1731 3631 1731 4019 
L 1731 4256 
L 431 4256 
L 431 4656 
L 3506 4656 
L 3506 4256 
L 2225 4256 
L 2225 4019 
z
M 4813 1688 
L 4325 1688 
L 4325 5050 
L 4813 5050 
L 4813 1688 
z
M 4813 -506 
L 4325 -506 
L 4325 988 
L 1075 988 
L 1075 1394 
L 4813 1394 
L 4813 -506 
z
" transform="scale(0.015625)"/>
     <path id="Pretendard-Regular-c811" d="M 4825 2031 
L 4338 2031 
L 4338 3288 
L 3213 3288 
L 3213 3700 
L 4338 3700 
L 4338 5050 
L 4825 5050 
L 4825 2031 
z
M 1744 1069 
L 4338 1069 
L 4338 1763 
L 4825 1763 
L 4825 -431 
L 1250 -431 
L 1250 1763 
L 1744 1763 
L 1744 1069 
z
M 4338 -31 
L 4338 675 
L 1744 675 
L 1744 -31 
L 4338 -31 
z
M 2156 4144 
Q 2156 3791 2329 3453 
Q 2503 3116 2814 2852 
Q 3125 2588 3525 2450 
L 3269 2069 
Q 2800 2238 2448 2570 
Q 2097 2903 1919 3334 
Q 1738 2850 1367 2483 
Q 997 2116 506 1938 
L 250 2325 
Q 656 2472 978 2751 
Q 1300 3031 1481 3393 
Q 1663 3756 1663 4144 
L 1663 4306 
L 406 4306 
L 406 4713 
L 3400 4713 
L 3400 4306 
L 2156 4306 
L 2156 4144 
z
" transform="scale(0.015625)"/>
     <path id="Pretendard-Regular-d558" d="M 4525 2756 
L 5456 2756 
L 5456 2350 
L 4525 2350 
L 4525 -506 
L 4038 -506 
L 4038 5050 
L 4525 5050 
L 4525 2756 
z
M 3500 3750 
L 194 3750 
L 194 4156 
L 1625 4156 
L 1625 4981 
L 2113 4981 
L 2113 4156 
L 3500 4156 
L 3500 3750 
z
M 1875 3288 
Q 2266 3288 2575 3125 
Q 2884 2963 3059 2672 
Q 3234 2381 3238 2013 
Q 3234 1644 3059 1353 
Q 2884 1063 2575 900 
Q 2266 738 1875 738 
Q 1481 738 1170 900 
Q 859 1063 684 1353 
Q 509 1644 513 2013 
Q 509 2381 684 2672 
Q 859 2963 1170 3125 
Q 1481 3288 1875 3288 
z
M 1875 2875 
Q 1619 2875 1414 2764 
Q 1209 2653 1093 2456 
Q 978 2259 981 2013 
Q 978 1763 1093 1567 
Q 1209 1372 1414 1262 
Q 1619 1153 1875 1156 
Q 2128 1153 2331 1262 
Q 2534 1372 2650 1567 
Q 2766 1763 2769 2013 
Q 2766 2259 2650 2456 
Q 2534 2653 2331 2764 
Q 2128 2875 1875 2875 
z
" transform="scale(0.015625)"/>
     <path id="Pretendard-Regular-b294" d="M 4719 2969 
L 913 2969 
L 913 4844 
L 1400 4844 
L 1400 3363 
L 4719 3363 
L 4719 2969 
z
M 5306 1813 
L 219 1813 
L 219 2213 
L 5306 2213 
L 5306 1813 
z
M 4750 -369 
L 881 -369 
L 881 1244 
L 1369 1244 
L 1369 38 
L 4750 38 
L 4750 -369 
z
" transform="scale(0.015625)"/>
     <path id="Pretendard-Regular-bc29" d="M 2788 1556 
Q 3356 1556 3768 1436 
Q 4181 1316 4400 1084 
Q 4619 853 4619 531 
Q 4619 206 4400 -26 
Q 4181 -259 3770 -381 
Q 3359 -503 2788 -506 
Q 2216 -503 1802 -381 
Q 1388 -259 1166 -26 
Q 944 206 944 531 
Q 944 853 1166 1084 
Q 1388 1316 1803 1436 
Q 2219 1556 2788 1556 
z
M 2788 1169 
Q 2369 1166 2064 1089 
Q 1759 1013 1596 870 
Q 1434 728 1438 531 
Q 1434 334 1596 190 
Q 1759 47 2065 -29 
Q 2372 -106 2788 -106 
Q 3206 -106 3512 -29 
Q 3819 47 3981 190 
Q 4144 334 4144 531 
Q 4144 728 3981 870 
Q 3819 1013 3514 1089 
Q 3209 1166 2788 1169 
z
M 4569 3650 
L 5406 3650 
L 5406 3231 
L 4569 3231 
L 4569 1706 
L 4081 1706 
L 4081 5050 
L 4569 5050 
L 4569 3650 
z
M 944 3850 
L 2563 3850 
L 2563 4700 
L 3050 4700 
L 3050 2138 
L 463 2138 
L 463 4700 
L 944 4700 
L 944 3850 
z
M 2563 2538 
L 2563 3463 
L 944 3463 
L 944 2538 
L 2563 2538 
z
" transform="scale(0.015625)"/>
     <path id="Pretendard-Regular-c2dd" d="M 2194 4244 
Q 2191 3844 2369 3481 
Q 2547 3119 2867 2844 
Q 3188 2569 3600 2425 
L 3350 2038 
Q 2866 2213 2500 2559 
Q 2134 2906 1947 3369 
Q 1766 2875 1395 2501 
Q 1025 2128 538 1938 
L 281 2325 
Q 694 2478 1014 2770 
Q 1334 3063 1514 3447 
Q 1694 3831 1694 4244 
L 1694 4775 
L 2194 4775 
L 2194 4244 
z
M 4813 -506 
L 4325 -506 
L 4325 1019 
L 1075 1019 
L 1075 1425 
L 4813 1425 
L 4813 -506 
z
M 4813 1700 
L 4325 1700 
L 4325 5050 
L 4813 5050 
L 4813 1700 
z
" transform="scale(0.015625)"/>
     <path id="Pretendard-Regular-b2e4" d="M 4525 2850 
L 5456 2850 
L 5456 2438 
L 4525 2438 
L 4525 -519 
L 4038 -519 
L 4038 5050 
L 4525 5050 
L 4525 2850 
z
M 3063 4100 
L 956 4100 
L 956 1288 
Q 1734 1288 2315 1331 
Q 2897 1375 3500 1488 
L 3563 1063 
Q 2947 950 2353 912 
Q 1759 875 906 875 
L 469 875 
L 469 4506 
L 3063 4506 
L 3063 4100 
z
" transform="scale(0.015625)"/>
     <path id="Pretendard-Regular-2c" d="M 654 -1277 
L 191 -1277 
L 535 423 
L 1141 423 
L 654 -1277 
z
" transform="scale(0.015625)"/>
     <path id="Pretendard-Regular-c744" d="M 2756 4950 
Q 3375 4950 3815 4839 
Q 4256 4728 4487 4514 
Q 4719 4300 4719 3994 
Q 4719 3525 4206 3275 
Q 3694 3025 2756 3019 
Q 2138 3022 1695 3134 
Q 1253 3247 1020 3464 
Q 788 3681 788 3994 
Q 788 4300 1020 4514 
Q 1253 4728 1695 4839 
Q 2138 4950 2756 4950 
z
M 2756 4581 
Q 2297 4581 1969 4511 
Q 1641 4441 1469 4308 
Q 1297 4175 1300 3994 
Q 1297 3706 1678 3550 
Q 2059 3394 2756 3394 
Q 3450 3394 3834 3550 
Q 4219 3706 4219 3994 
Q 4219 4175 4044 4306 
Q 3869 4438 3541 4509 
Q 3213 4581 2756 4581 
z
M 5288 2244 
L 225 2244 
L 225 2644 
L 5288 2644 
L 5288 2244 
z
M 4638 519 
L 1338 519 
L 1338 -56 
L 4806 -56 
L 4806 -444 
L 850 -444 
L 850 881 
L 4156 881 
L 4156 1388 
L 838 1388 
L 838 1763 
L 4638 1763 
L 4638 519 
z
" transform="scale(0.015625)"/>
     <path id="Pretendard-Regular-ba3c" d="M 3038 3494 
L 4338 3494 
L 4338 5044 
L 4831 5044 
L 4831 988 
L 4338 988 
L 4338 3094 
L 3038 3094 
L 3038 1988 
L 488 1988 
L 488 4563 
L 3038 4563 
L 3038 3494 
z
M 975 2381 
L 2556 2381 
L 2556 4156 
L 975 4156 
L 975 2381 
z
M 4988 -388 
L 1263 -388 
L 1263 1363 
L 1756 1363 
L 1756 25 
L 4988 25 
L 4988 -388 
z
" transform="scale(0.015625)"/>
     <path id="Pretendard-Regular-c800" d="M 4831 -519 
L 4338 -519 
L 4338 2619 
L 3119 2619 
L 3119 3025 
L 4338 3025 
L 4338 5050 
L 4831 5050 
L 4831 -519 
z
M 2150 3400 
Q 2150 2947 2348 2483 
Q 2547 2019 2884 1650 
Q 3222 1281 3625 1100 
L 3331 706 
Q 2859 938 2479 1408 
Q 2100 1878 1909 2463 
Q 1719 1847 1334 1345 
Q 950 844 475 594 
L 175 975 
Q 575 1172 914 1558 
Q 1253 1944 1453 2430 
Q 1653 2916 1656 3400 
L 1656 4069 
L 388 4069 
L 388 4475 
L 3425 4475 
L 3425 4069 
L 2150 4069 
L 2150 3400 
z
" transform="scale(0.015625)"/>
     <path id="Pretendard-Regular-c5d0" d="M 4988 -506 
L 4513 -506 
L 4513 5050 
L 4988 5050 
L 4988 -506 
z
M 3869 -225 
L 3400 -225 
L 3400 2475 
L 2684 2475 
Q 2659 1938 2506 1542 
Q 2353 1147 2090 933 
Q 1828 719 1488 719 
Q 1128 719 858 955 
Q 588 1191 441 1628 
Q 294 2066 294 2650 
Q 294 3234 441 3671 
Q 588 4109 858 4345 
Q 1128 4581 1488 4581 
Q 1822 4581 2081 4375 
Q 2341 4169 2495 3784 
Q 2650 3400 2681 2881 
L 3400 2881 
L 3400 4931 
L 3869 4931 
L 3869 -225 
z
M 1488 4119 
Q 1263 4119 1097 3941 
Q 931 3763 842 3430 
Q 753 3097 756 2650 
Q 753 2203 842 1872 
Q 931 1541 1098 1362 
Q 1266 1184 1488 1188 
Q 1709 1184 1876 1362 
Q 2044 1541 2134 1872 
Q 2225 2203 2225 2650 
Q 2225 3100 2134 3431 
Q 2044 3763 1878 3941 
Q 1713 4119 1488 4119 
z
" transform="scale(0.015625)"/>
     <path id="Pretendard-Regular-c11c" d="M 2181 3556 
Q 2181 3063 2375 2581 
Q 2569 2100 2900 1726 
Q 3231 1353 3631 1169 
L 3338 769 
Q 2866 1013 2494 1484 
Q 2122 1956 1938 2550 
Q 1750 1922 1379 1422 
Q 1009 922 538 669 
L 219 1063 
Q 622 1259 956 1654 
Q 1291 2050 1486 2551 
Q 1681 3053 1681 3556 
L 1681 4569 
L 2181 4569 
L 2181 3556 
z
M 4831 -519 
L 4344 -519 
L 4344 2750 
L 3025 2750 
L 3025 3150 
L 4344 3150 
L 4344 5050 
L 4831 5050 
L 4831 -519 
z
" transform="scale(0.015625)"/>
     <path id="Pretendard-Regular-ac00" d="M 4525 2788 
L 5425 2788 
L 5425 2375 
L 4525 2375 
L 4525 -506 
L 4038 -506 
L 4038 5050 
L 4525 5050 
L 4525 2788 
z
M 3088 4450 
Q 3088 3209 2466 2201 
Q 1844 1194 538 550 
L 263 938 
Q 1334 1472 1921 2258 
Q 2509 3044 2594 4038 
L 519 4038 
L 519 4450 
L 3088 4450 
z
" transform="scale(0.015625)"/>
     <path id="Pretendard-Regular-ac10" d="M 4569 3688 
L 5406 3688 
L 5406 3281 
L 4569 3281 
L 4569 1894 
L 4081 1894 
L 4081 5050 
L 4569 5050 
L 4569 3688 
z
M 3050 4688 
Q 3047 3994 2734 3431 
Q 2422 2869 1833 2466 
Q 1244 2063 419 1838 
L 219 2231 
Q 900 2416 1400 2717 
Q 1900 3019 2186 3416 
Q 2472 3813 2522 4281 
L 469 4281 
L 469 4688 
L 3050 4688 
z
M 4569 -431 
L 1050 -431 
L 1050 1638 
L 4569 1638 
L 4569 -431 
z
M 1538 -31 
L 4081 -31 
L 4081 1231 
L 1538 1231 
L 1538 -31 
z
" transform="scale(0.015625)"/>
     <path id="Pretendard-Regular-c18c" d="M 5313 219 
L 225 219 
L 225 625 
L 2500 625 
L 2500 1988 
L 2981 1988 
L 2981 625 
L 5313 625 
L 5313 219 
z
M 2994 4244 
Q 2994 3800 3301 3390 
Q 3609 2981 4089 2698 
Q 4569 2416 5063 2331 
L 4844 1925 
Q 4413 2013 3997 2228 
Q 3581 2444 3248 2766 
Q 2916 3088 2741 3475 
Q 2566 3088 2234 2766 
Q 1903 2444 1489 2228 
Q 1075 2013 644 1925 
L 425 2331 
Q 919 2416 1395 2698 
Q 1872 2981 2176 3389 
Q 2481 3797 2481 4244 
L 2481 4669 
L 2994 4669 
L 2994 4244 
z
" transform="scale(0.015625)"/>
     <path id="Pretendard-Regular-c600" d="M 2138 1319 
Q 2138 931 2342 573 
Q 2547 216 2928 -3 
Q 3184 153 3367 379 
Q 3550 606 3644 853 
Q 3738 1100 3738 1319 
L 3738 1700 
L 4219 1700 
L 4219 1319 
Q 4219 1031 4353 756 
Q 4488 481 4745 264 
Q 5003 47 5356 -69 
L 5100 -444 
Q 4697 -294 4408 -19 
Q 4119 256 3972 613 
Q 3834 250 3573 -40 
Q 3313 -331 2938 -488 
Q 2553 -341 2290 -58 
Q 2028 225 1894 594 
Q 1741 247 1455 -23 
Q 1169 -294 781 -444 
L 538 -69 
Q 881 53 1136 276 
Q 1391 500 1528 773 
Q 1666 1047 1669 1319 
L 1669 1700 
L 2138 1700 
L 2138 1319 
z
M 1756 4744 
Q 2103 4744 2393 4619 
Q 2684 4494 2878 4269 
L 4338 4269 
L 4338 5050 
L 4831 5050 
L 4831 1875 
L 4338 1875 
L 4338 2613 
L 2894 2613 
Q 2697 2381 2403 2253 
Q 2109 2125 1756 2125 
Q 1344 2125 1017 2290 
Q 691 2456 505 2754 
Q 319 3053 319 3431 
Q 319 3809 505 4109 
Q 691 4409 1017 4576 
Q 1344 4744 1756 4744 
z
M 1756 4325 
Q 1481 4325 1261 4209 
Q 1041 4094 916 3891 
Q 791 3688 794 3431 
Q 791 3172 914 2970 
Q 1038 2769 1259 2655 
Q 1481 2541 1756 2538 
Q 2025 2541 2244 2655 
Q 2463 2769 2588 2972 
Q 2713 3175 2713 3431 
Q 2713 3688 2588 3891 
Q 2463 4094 2244 4209 
Q 2025 4325 1756 4325 
z
M 3113 3869 
Q 3188 3653 3188 3431 
Q 3188 3225 3122 3019 
L 4338 3019 
L 4338 3869 
L 3113 3869 
z
" transform="scale(0.015625)"/>
     <path id="Pretendard-Regular-2e" d="M 813 -38 
Q 703 -38 611 17 
Q 519 72 464 165 
Q 409 259 413 369 
Q 409 475 464 567 
Q 519 659 611 714 
Q 703 769 813 769 
Q 919 769 1011 714 
Q 1103 659 1158 567 
Q 1213 475 1213 369 
Q 1213 259 1158 165 
Q 1103 72 1011 17 
Q 919 -38 813 -38 
z
" transform="scale(0.015625)"/>
    </defs>
    <use xlink:href="#Pretendard-Regular-c804"/>
    <use xlink:href="#Pretendard-Regular-ccb4" transform="translate(86.425781 0)"/>
    <use xlink:href="#Pretendard-Regular-20" transform="translate(172.851562 0)"/>
    <use xlink:href="#Pretendard-Regular-c2e4" transform="translate(197.949219 0)"/>
    <use xlink:href="#Pretendard-Regular-d5d8" transform="translate(284.375 0)"/>
    <use xlink:href="#Pretendard-Regular-20" transform="translate(370.800781 0)"/>
    <use xlink:href="#Pretendard-Regular-bd80" transform="translate(395.898438 0)"/>
    <use xlink:href="#Pretendard-Regular-d53c" transform="translate(482.324219 0)"/>
    <use xlink:href="#Pretendard-Regular-b97c" transform="translate(568.75 0)"/>
    <use xlink:href="#Pretendard-Regular-20" transform="translate(655.175781 0)"/>
    <use xlink:href="#Pretendard-Regular-c9c1" transform="translate(680.273438 0)"/>
    <use xlink:href="#Pretendard-Regular-c811" transform="translate(766.699219 0)"/>
    <use xlink:href="#Pretendard-Regular-20" transform="translate(853.125 0)"/>
    <use xlink:href="#Pretendard-Regular-d68c" transform="translate(878.222656 0)"/>
    <use xlink:href="#Pretendard-Regular-adc0" transform="translate(964.648438 0)"/>
    <use xlink:href="#Pretendard-Regular-d558" transform="translate(1051.074219 0)"/>
    <use xlink:href="#Pretendard-Regular-b294" transform="translate(1137.5 0)"/>
    <use xlink:href="#Pretendard-Regular-20" transform="translate(1223.925781 0)"/>
    <use xlink:href="#Pretendard-Regular-bc29" transform="translate(1249.023438 0)"/>
    <use xlink:href="#Pretendard-Regular-c2dd" transform="translate(1335.449219 0)"/>
    <use xlink:href="#Pretendard-Regular-bcf4" transform="translate(1421.875 0)"/>
    <use xlink:href="#Pretendard-Regular-b2e4" transform="translate(1508.300781 0)"/>
    <use xlink:href="#Pretendard-Regular-2c" transform="translate(1594.726562 0)"/>
    <use xlink:href="#Pretendard-Regular-20" transform="translate(1620.507812 0)"/>
    <use xlink:href="#Pretendard-Regular-d504" transform="translate(1645.605469 0)"/>
    <use xlink:href="#Pretendard-Regular-b808" transform="translate(1732.03125 0)"/>
    <use xlink:href="#Pretendard-Regular-c784" transform="translate(1818.457031 0)"/>
    <use xlink:href="#Pretendard-Regular-c744" transform="translate(1904.882812 0)"/>
    <use xlink:href="#Pretendard-Regular-20" transform="translate(1991.308594 0)"/>
    <use xlink:href="#Pretendard-Regular-ba3c" transform="translate(2016.40625 0)"/>
    <use xlink:href="#Pretendard-Regular-c800" transform="translate(2102.832031 0)"/>
    <use xlink:href="#Pretendard-Regular-20" transform="translate(2189.257812 0)"/>
    <use xlink:href="#Pretendard-Regular-bd84" transform="translate(2214.355469 0)"/>
    <use xlink:href="#Pretendard-Regular-b958" transform="translate(2300.78125 0)"/>
    <use xlink:href="#Pretendard-Regular-d558" transform="translate(2387.207031 0)"/>
    <use xlink:href="#Pretendard-Regular-b294" transform="translate(2473.632812 0)"/>
    <use xlink:href="#Pretendard-Regular-20" transform="translate(2560.058594 0)"/>
    <use xlink:href="#Pretendard-Regular-bc29" transform="translate(2585.15625 0)"/>
    <use xlink:href="#Pretendard-Regular-c2dd" transform="translate(2671.582031 0)"/>
    <use xlink:href="#Pretendard-Regular-c5d0" transform="translate(2758.007812 0)"/>
    <use xlink:href="#Pretendard-Regular-c11c" transform="translate(2844.433594 0)"/>
    <use xlink:href="#Pretendard-Regular-20" transform="translate(2930.859375 0)"/>
    <use xlink:href="#Pretendard-Regular-c624" transform="translate(2955.957031 0)"/>
    <use xlink:href="#Pretendard-Regular-cc28" transform="translate(3042.382812 0)"/>
    <use xlink:href="#Pretendard-Regular-ac00" transform="translate(3128.808594 0)"/>
    <use xlink:href="#Pretendard-Regular-20" transform="translate(3215.234375 0)"/>
    <use xlink:href="#Pretendard-Regular-ac10" transform="translate(3240.332031 0)"/>
    <use xlink:href="#Pretendard-Regular-c18c" transform="translate(3326.757812 0)"/>
    <use xlink:href="#Pretendard-Regular-d558" transform="translate(3413.183594 0)"/>
    <use xlink:href="#Pretendard-Regular-c600" transform="translate(3499.609375 0)"/>
    <use xlink:href="#Pretendard-Regular-b2e4" transform="translate(3586.035156 0)"/>
    <use xlink:href="#Pretendard-Regular-2e" transform="translate(3672.460938 0)"/>
   </g>
  </g>
 </g>
 <defs>
  <clipPath id="p1986658f6c">
   <rect x="51.861406" y="31.582812" width="736.56" height="360.36"/>
  </clipPath>
 </defs>
</svg>
