<?xml version="1.0" encoding="utf-8" standalone="no"?>
<!DOCTYPE svg PUBLIC "-//W3C//DTD SVG 1.1//EN"
  "http://www.w3.org/Graphics/SVG/1.1/DTD/svg11.dtd">
<svg xmlns:xlink="http://www.w3.org/1999/xlink" width="859.7825pt" height="440.9525pt" viewBox="0 0 859.7825 440.9525" xmlns="http://www.w3.org/2000/svg" version="1.1">
 <metadata>
  <rdf:RDF xmlns:dc="http://purl.org/dc/elements/1.1/" xmlns:cc="http://creativecommons.org/ns#" xmlns:rdf="http://www.w3.org/1999/02/22-rdf-syntax-ns#">
   <cc:Work>
    <dc:type rdf:resource="http://purl.org/dc/dcmitype/StillImage"/>
    <dc:date>2026-06-09T11:42:23.596895</dc:date>
    <dc:format>image/svg+xml</dc:format>
    <dc:creator>
     <cc:Agent>
      <dc:title>Matplotlib v3.10.9, https://matplotlib.org/</dc:title>
     </cc:Agent>
    </dc:creator>
   </cc:Work>
  </rdf:RDF>
 </metadata>
 <defs>
  <style type="text/css">*{stroke-linejoin: round; stroke-linecap: butt}</style>
 </defs>
 <g id="figure_1">
  <g id="patch_1">
   <path d="M 0 440.9525 
L 859.7825 440.9525 
L 859.7825 -0 
L 0 -0 
z
" style="fill: #ffffff"/>
  </g>
  <g id="axes_1">
   <g id="patch_2">
    <path d="M 43.4825 378.144 
L 389.251731 378.144 
L 389.251731 67.68 
L 43.4825 67.68 
z
" style="fill: #ffffff"/>
   </g>
   <g id="matplotlib.axis_1">
    <g id="xtick_1">
     <g id="line2d_1">
      <defs>
       <path id="md9ddccfbf2" d="M 0 0 
L 0 3.5 
" style="stroke: #334155; stroke-width: 0.8"/>
      </defs>
      <g>
       <use xlink:href="#md9ddccfbf2" x="116.893804" y="378.144" style="fill: #334155; stroke: #334155; stroke-width: 0.8"/>
      </g>
     </g>
     <g id="text_1">
      <!-- 단일 통합 모델 -->
      <g style="fill: #334155" transform="translate(74.239898 395.749469) scale(0.15 -0.15)">
       <defs>
        <path id="Pretendard-Regular-b2e8" d="M 4569 3394 
L 5413 3394 
L 5413 2981 
L 4569 2981 
L 4569 1025 
L 4081 1025 
L 4081 5050 
L 4569 5050 
L 4569 3394 
z
M 2963 4156 
L 975 4156 
L 975 2425 
Q 1866 2425 2402 2461 
Q 2938 2497 3469 2606 
L 3531 2200 
Q 2963 2091 2394 2052 
Q 1825 2013 919 2013 
L 488 2013 
L 488 4569 
L 2963 4569 
L 2963 4156 
z
M 4825 -388 
L 1094 -388 
L 1094 1431 
L 1575 1431 
L 1575 25 
L 4825 25 
L 4825 -388 
z
" transform="scale(0.015625)"/>
        <path id="Pretendard-Regular-c77c" d="M 1800 4844 
Q 2213 4841 2539 4684 
Q 2866 4528 3052 4248 
Q 3238 3969 3238 3613 
Q 3238 3256 3052 2976 
Q 2866 2697 2539 2542 
Q 2213 2388 1800 2388 
Q 1381 2388 1053 2542 
Q 725 2697 540 2976 
Q 356 3256 356 3613 
Q 356 3969 540 4248 
Q 725 4528 1053 4684 
Q 1381 4841 1800 4844 
z
M 1800 4431 
Q 1525 4431 1304 4326 
Q 1084 4222 959 4036 
Q 834 3850 838 3613 
Q 834 3372 959 3184 
Q 1084 2997 1304 2892 
Q 1525 2788 1800 2788 
Q 2072 2788 2292 2892 
Q 2513 2997 2638 3184 
Q 2763 3372 2763 3613 
Q 2763 3850 2638 4036 
Q 2513 4222 2292 4326 
Q 2072 4431 1800 4431 
z
M 4813 2194 
L 4325 2194 
L 4325 5050 
L 4813 5050 
L 4813 2194 
z
M 4813 588 
L 1694 588 
L 1694 -38 
L 5013 -38 
L 5013 -431 
L 1213 -431 
L 1213 956 
L 4325 956 
L 4325 1531 
L 1200 1531 
L 1200 1925 
L 4813 1925 
L 4813 588 
z
" transform="scale(0.015625)"/>
        <path id="Pretendard-Regular-20" transform="scale(0.015625)"/>
        <path id="Pretendard-Regular-d1b5" d="M 5288 1700 
L 219 1700 
L 219 2100 
L 2506 2100 
L 2506 2650 
L 894 2650 
L 894 4888 
L 4656 4888 
L 4656 4488 
L 1388 4488 
L 1388 3969 
L 4506 3969 
L 4506 3594 
L 1388 3594 
L 1388 3044 
L 4688 3044 
L 4688 2650 
L 2994 2650 
L 2994 2100 
L 5288 2100 
L 5288 1700 
z
M 2756 1281 
Q 3672 1288 4169 1058 
Q 4666 828 4669 394 
Q 4666 -41 4170 -267 
Q 3675 -494 2756 -494 
Q 1828 -494 1333 -267 
Q 838 -41 838 394 
Q 838 828 1334 1058 
Q 1831 1288 2756 1281 
z
M 2756 913 
Q 2069 913 1697 778 
Q 1325 644 1331 394 
Q 1328 141 1695 11 
Q 2063 -119 2756 -113 
Q 3441 -119 3808 11 
Q 4175 141 4175 394 
Q 4175 644 3804 778 
Q 3434 913 2756 913 
z
" transform="scale(0.015625)"/>
        <path id="Pretendard-Regular-d569" d="M 4569 3625 
L 5406 3625 
L 5406 3206 
L 4569 3206 
L 4569 1819 
L 4081 1819 
L 4081 5050 
L 4569 5050 
L 4569 3625 
z
M 1544 981 
L 4081 981 
L 4081 1575 
L 4569 1575 
L 4569 -431 
L 1056 -431 
L 1056 1575 
L 1544 1575 
L 1544 981 
z
M 4081 -38 
L 4081 594 
L 1544 594 
L 1544 -38 
L 4081 -38 
z
M 3550 4069 
L 238 4069 
L 238 4475 
L 1650 4475 
L 1650 5100 
L 2138 5100 
L 2138 4475 
L 3550 4475 
L 3550 4069 
z
M 1894 3813 
Q 2291 3813 2592 3692 
Q 2894 3572 3061 3351 
Q 3228 3131 3231 2838 
Q 3228 2544 3061 2323 
Q 2894 2103 2592 1983 
Q 2291 1863 1894 1863 
Q 1494 1863 1189 1983 
Q 884 2103 718 2323 
Q 553 2544 556 2838 
Q 553 3131 718 3351 
Q 884 3572 1189 3692 
Q 1494 3813 1894 3813 
z
M 1894 3431 
Q 1634 3434 1436 3361 
Q 1238 3288 1130 3150 
Q 1022 3013 1025 2838 
Q 1022 2659 1130 2523 
Q 1238 2388 1436 2313 
Q 1634 2238 1894 2238 
Q 2150 2238 2348 2313 
Q 2547 2388 2656 2523 
Q 2766 2659 2769 2838 
Q 2766 3016 2655 3152 
Q 2544 3288 2347 3361 
Q 2150 3434 1894 3431 
z
" transform="scale(0.015625)"/>
        <path id="Pretendard-Regular-baa8" d="M 5313 206 
L 225 206 
L 225 619 
L 2513 619 
L 2513 1975 
L 825 1975 
L 825 4581 
L 4681 4581 
L 4681 1975 
L 2994 1975 
L 2994 619 
L 5313 619 
L 5313 206 
z
M 1306 2369 
L 4206 2369 
L 4206 4188 
L 1306 4188 
L 1306 2369 
z
" transform="scale(0.015625)"/>
        <path id="Pretendard-Regular-b378" d="M 4956 2088 
L 4488 2088 
L 4488 5044 
L 4956 5044 
L 4956 2088 
z
M 3888 2138 
L 3419 2138 
L 3419 3431 
L 2269 3431 
L 2269 3819 
L 3419 3819 
L 3419 4931 
L 3888 4931 
L 3888 2138 
z
M 2619 4325 
L 988 4325 
L 988 2769 
Q 1609 2772 2029 2801 
Q 2450 2831 2894 2919 
L 2925 2513 
Q 2447 2428 1989 2398 
Q 1531 2369 850 2369 
L 500 2369 
L 500 4719 
L 2619 4719 
L 2619 4325 
z
M 4956 550 
L 1756 550 
L 1756 -38 
L 5169 -38 
L 5169 -431 
L 1269 -431 
L 1269 931 
L 4481 931 
L 4481 1450 
L 1256 1450 
L 1256 1844 
L 4956 1844 
L 4956 550 
z
" transform="scale(0.015625)"/>
       </defs>
       <use xlink:href="#Pretendard-Regular-b2e8"/>
       <use xlink:href="#Pretendard-Regular-c77c" transform="translate(86.425781 0)"/>
       <use xlink:href="#Pretendard-Regular-20" transform="translate(172.851562 0)"/>
       <use xlink:href="#Pretendard-Regular-d1b5" transform="translate(197.949219 0)"/>
       <use xlink:href="#Pretendard-Regular-d569" transform="translate(284.375 0)"/>
       <use xlink:href="#Pretendard-Regular-20" transform="translate(370.800781 0)"/>
       <use xlink:href="#Pretendard-Regular-baa8" transform="translate(395.898438 0)"/>
       <use xlink:href="#Pretendard-Regular-b378" transform="translate(482.324219 0)"/>
      </g>
     </g>
    </g>
    <g id="xtick_2">
     <g id="line2d_2">
      <g>
       <use xlink:href="#md9ddccfbf2" x="315.840427" y="378.144" style="fill: #334155; stroke: #334155; stroke-width: 0.8"/>
      </g>
     </g>
     <g id="text_2">
      <!-- 적정 종류별 모델 -->
      <g style="fill: #334155" transform="translate(266.70488 395.749469) scale(0.15 -0.15)">
       <defs>
        <path id="Pretendard-Regular-c801" d="M 2156 4025 
Q 2156 3666 2328 3330 
Q 2500 2994 2811 2733 
Q 3122 2472 3525 2331 
L 3269 1944 
Q 2803 2113 2451 2444 
Q 2100 2775 1919 3206 
Q 1738 2725 1369 2359 
Q 1000 1994 506 1813 
L 250 2200 
Q 656 2347 978 2626 
Q 1300 2906 1481 3270 
Q 1663 3634 1663 4019 
L 1663 4263 
L 406 4263 
L 406 4663 
L 3400 4663 
L 3400 4263 
L 2156 4263 
L 2156 4025 
z
M 4831 -506 
L 4338 -506 
L 4338 1019 
L 1094 1019 
L 1094 1425 
L 4831 1425 
L 4831 -506 
z
M 4831 1719 
L 4338 1719 
L 4338 3181 
L 3225 3181 
L 3225 3594 
L 4338 3594 
L 4338 5050 
L 4831 5050 
L 4831 1719 
z
" transform="scale(0.015625)"/>
        <path id="Pretendard-Regular-c815" d="M 4831 1738 
L 4338 1738 
L 4338 3194 
L 3219 3194 
L 3219 3600 
L 4338 3600 
L 4338 5050 
L 4831 5050 
L 4831 1738 
z
M 2988 1563 
Q 3566 1563 3984 1441 
Q 4403 1319 4626 1087 
Q 4850 856 4850 531 
Q 4850 206 4626 -26 
Q 4403 -259 3984 -381 
Q 3566 -503 2988 -506 
Q 2409 -503 1990 -381 
Q 1572 -259 1348 -26 
Q 1125 206 1125 531 
Q 1125 856 1348 1087 
Q 1572 1319 1990 1441 
Q 2409 1563 2988 1563 
z
M 2988 1181 
Q 2566 1181 2253 1103 
Q 1941 1025 1775 878 
Q 1609 731 1613 531 
Q 1609 334 1775 189 
Q 1941 44 2253 -34 
Q 2566 -113 2988 -113 
Q 3409 -113 3720 -34 
Q 4031 44 4197 189 
Q 4363 334 4363 531 
Q 4363 731 4197 878 
Q 4031 1025 3720 1103 
Q 3409 1181 2988 1181 
z
M 2156 4031 
Q 2156 3672 2328 3336 
Q 2500 3000 2811 2739 
Q 3122 2478 3525 2338 
L 3269 1944 
Q 2803 2113 2451 2444 
Q 2100 2775 1922 3209 
Q 1741 2722 1370 2348 
Q 1000 1975 506 1788 
L 250 2181 
Q 659 2331 981 2614 
Q 1303 2897 1483 3265 
Q 1663 3634 1663 4025 
L 1663 4231 
L 406 4231 
L 406 4644 
L 3400 4644 
L 3400 4231 
L 2156 4231 
L 2156 4031 
z
" transform="scale(0.015625)"/>
        <path id="Pretendard-Regular-c885" d="M 2994 2281 
L 5288 2281 
L 5288 1875 
L 225 1875 
L 225 2281 
L 2513 2281 
L 2513 3075 
L 2994 3075 
L 2994 2281 
z
M 2756 1419 
Q 3353 1419 3781 1308 
Q 4209 1197 4437 983 
Q 4666 769 4669 463 
Q 4666 156 4437 -58 
Q 4209 -272 3781 -383 
Q 3353 -494 2756 -494 
Q 2153 -494 1723 -383 
Q 1294 -272 1066 -58 
Q 838 156 838 463 
Q 838 769 1066 983 
Q 1294 1197 1723 1308 
Q 2153 1419 2756 1419 
z
M 2756 1031 
Q 2078 1031 1706 882 
Q 1334 734 1338 463 
Q 1334 281 1501 153 
Q 1669 25 1989 -44 
Q 2309 -113 2756 -113 
Q 3197 -113 3517 -44 
Q 3838 25 4006 153 
Q 4175 281 4175 463 
Q 4175 734 3800 882 
Q 3425 1031 2756 1031 
z
M 4838 4388 
L 3075 4388 
Q 3091 4091 3364 3834 
Q 3638 3578 4077 3409 
Q 4516 3241 5006 3188 
L 4825 2800 
Q 4363 2856 3947 3004 
Q 3531 3153 3218 3387 
Q 2906 3622 2756 3922 
Q 2609 3622 2298 3387 
Q 1988 3153 1570 3004 
Q 1153 2856 688 2800 
L 506 3188 
Q 997 3241 1434 3408 
Q 1872 3575 2145 3831 
Q 2419 4088 2438 4388 
L 688 4388 
L 688 4788 
L 4838 4788 
L 4838 4388 
z
" transform="scale(0.015625)"/>
        <path id="Pretendard-Regular-b958" d="M 5306 1338 
L 3969 1338 
L 3969 -506 
L 3481 -506 
L 3481 1338 
L 2044 1338 
L 2044 -506 
L 1550 -506 
L 1550 1338 
L 219 1338 
L 219 1731 
L 5306 1731 
L 5306 1338 
z
M 4688 3406 
L 1338 3406 
L 1338 2713 
L 4806 2713 
L 4806 2306 
L 844 2306 
L 844 3788 
L 4188 3788 
L 4188 4425 
L 831 4425 
L 831 4831 
L 4688 4831 
L 4688 3406 
z
" transform="scale(0.015625)"/>
        <path id="Pretendard-Regular-bcc4" d="M 4825 2144 
L 4338 2144 
L 4338 2856 
L 3025 2856 
L 3025 2369 
L 506 2369 
L 506 4788 
L 994 4788 
L 994 3988 
L 2544 3988 
L 2544 4788 
L 3025 4788 
L 3025 4250 
L 4338 4250 
L 4338 5050 
L 4825 5050 
L 4825 2144 
z
M 4825 569 
L 1725 569 
L 1725 -38 
L 5038 -38 
L 5038 -431 
L 1238 -431 
L 1238 944 
L 4338 944 
L 4338 1481 
L 1225 1481 
L 1225 1875 
L 4825 1875 
L 4825 569 
z
M 2544 2769 
L 2544 3600 
L 994 3600 
L 994 2769 
L 2544 2769 
z
M 4338 3244 
L 4338 3869 
L 3025 3869 
L 3025 3244 
L 4338 3244 
z
" transform="scale(0.015625)"/>
       </defs>
       <use xlink:href="#Pretendard-Regular-c801"/>
       <use xlink:href="#Pretendard-Regular-c815" transform="translate(86.425781 0)"/>
       <use xlink:href="#Pretendard-Regular-20" transform="translate(172.851562 0)"/>
       <use xlink:href="#Pretendard-Regular-c885" transform="translate(197.949219 0)"/>
       <use xlink:href="#Pretendard-Regular-b958" transform="translate(284.375 0)"/>
       <use xlink:href="#Pretendard-Regular-bcc4" transform="translate(370.800781 0)"/>
       <use xlink:href="#Pretendard-Regular-20" transform="translate(457.226562 0)"/>
       <use xlink:href="#Pretendard-Regular-baa8" transform="translate(482.324219 0)"/>
       <use xlink:href="#Pretendard-Regular-b378" transform="translate(568.75 0)"/>
      </g>
     </g>
    </g>
   </g>
   <g id="matplotlib.axis_2">
    <g id="ytick_1">
     <g id="line2d_3">
      <path d="M 43.4825 378.144 
L 389.251731 378.144 
" clip-path="url(#p8ea9b3f18c)" style="fill: none; stroke: #e5e7eb; stroke-width: 1.15; stroke-linecap: square"/>
     </g>
     <g id="line2d_4">
      <defs>
       <path id="m131d9ed4d2" d="M 0 0 
L -3.5 0 
" style="stroke: #334155; stroke-width: 0.8"/>
      </defs>
      <g>
       <use xlink:href="#m131d9ed4d2" x="43.4825" y="378.144" style="fill: #334155; stroke: #334155; stroke-width: 0.8"/>
      </g>
     </g>
     <g id="text_3">
      <!-- 0 -->
      <g style="fill: #334155" transform="translate(27.545781 383.446734) scale(0.15 -0.15)">
       <defs>
        <path id="Pretendard-Regular-30" d="M 1906 -63 
Q 1406 -63 1051 209 
Q 697 481 511 1003 
Q 325 1525 325 2263 
Q 325 2991 512 3514 
Q 700 4038 1056 4313 
Q 1413 4588 1906 4588 
Q 2400 4588 2756 4313 
Q 3113 4038 3300 3514 
Q 3488 2991 3488 2263 
Q 3488 1525 3302 1003 
Q 3116 481 2759 209 
Q 2403 -63 1906 -63 
z
M 1906 438 
Q 2231 438 2462 650 
Q 2694 863 2816 1272 
Q 2938 1681 2938 2263 
Q 2938 2844 2816 3256 
Q 2694 3669 2462 3884 
Q 2231 4100 1906 4100 
Q 1581 4100 1348 3884 
Q 1116 3669 992 3256 
Q 869 2844 869 2263 
Q 869 1681 991 1272 
Q 1113 863 1345 650 
Q 1578 438 1906 438 
z
" transform="scale(0.015625)"/>
       </defs>
       <use xlink:href="#Pretendard-Regular-30"/>
      </g>
     </g>
    </g>
    <g id="ytick_2">
     <g id="line2d_5">
      <path d="M 43.4825 339.137718 
L 389.251731 339.137718 
" clip-path="url(#p8ea9b3f18c)" style="fill: none; stroke: #e5e7eb; stroke-width: 1.15; stroke-linecap: square"/>
     </g>
     <g id="line2d_6">
      <g>
       <use xlink:href="#m131d9ed4d2" x="43.4825" y="339.137718" style="fill: #334155; stroke: #334155; stroke-width: 0.8"/>
      </g>
     </g>
     <g id="text_4">
      <!-- 1 -->
      <g style="fill: #334155" transform="translate(29.905938 344.440453) scale(0.15 -0.15)">
       <defs>
        <path id="Pretendard-Regular-31" d="M 2025 0 
L 1456 0 
L 1456 3938 
L 1431 3938 
L 331 3206 
L 331 3775 
L 1456 4525 
L 2025 4525 
L 2025 0 
z
" transform="scale(0.015625)"/>
       </defs>
       <use xlink:href="#Pretendard-Regular-31"/>
      </g>
     </g>
    </g>
    <g id="ytick_3">
     <g id="line2d_7">
      <path d="M 43.4825 300.131436 
L 389.251731 300.131436 
" clip-path="url(#p8ea9b3f18c)" style="fill: none; stroke: #e5e7eb; stroke-width: 1.15; stroke-linecap: square"/>
     </g>
     <g id="line2d_8">
      <g>
       <use xlink:href="#m131d9ed4d2" x="43.4825" y="300.131436" style="fill: #334155; stroke: #334155; stroke-width: 0.8"/>
      </g>
     </g>
     <g id="text_5">
      <!-- 2 -->
      <g style="fill: #334155" transform="translate(27.679375 305.434171) scale(0.15 -0.15)">
       <defs>
        <path id="Pretendard-Regular-32" d="M 419 413 
L 1963 2038 
Q 2269 2359 2430 2557 
Q 2591 2756 2673 2942 
Q 2756 3128 2756 3331 
Q 2756 3556 2637 3731 
Q 2519 3906 2314 4003 
Q 2109 4100 1856 4100 
Q 1591 4100 1391 3994 
Q 1191 3888 1083 3694 
Q 975 3500 975 3250 
L 444 3250 
Q 441 3644 627 3947 
Q 813 4250 1141 4419 
Q 1469 4588 1875 4588 
Q 2278 4588 2598 4422 
Q 2919 4256 3100 3968 
Q 3281 3681 3281 3331 
Q 3281 3072 3187 2836 
Q 3094 2600 2873 2314 
Q 2653 2028 2244 1606 
L 1206 538 
L 1206 500 
L 3363 500 
L 3363 0 
L 425 0 
L 419 413 
z
" transform="scale(0.015625)"/>
       </defs>
       <use xlink:href="#Pretendard-Regular-32"/>
      </g>
     </g>
    </g>
    <g id="ytick_4">
     <g id="line2d_9">
      <path d="M 43.4825 261.125155 
L 389.251731 261.125155 
" clip-path="url(#p8ea9b3f18c)" style="fill: none; stroke: #e5e7eb; stroke-width: 1.15; stroke-linecap: square"/>
     </g>
     <g id="line2d_10">
      <g>
       <use xlink:href="#m131d9ed4d2" x="43.4825" y="261.125155" style="fill: #334155; stroke: #334155; stroke-width: 0.8"/>
      </g>
     </g>
     <g id="text_6">
      <!-- 3 -->
      <g style="fill: #334155" transform="translate(27.224688 266.427889) scale(0.15 -0.15)">
       <defs>
        <path id="Pretendard-Regular-33" d="M 1988 -63 
Q 1541 -63 1189 87 
Q 838 238 633 509 
Q 428 781 413 1138 
L 981 1138 
Q 997 928 1133 768 
Q 1269 609 1491 523 
Q 1713 438 1981 438 
Q 2275 438 2511 539 
Q 2747 641 2880 820 
Q 3013 1000 3013 1231 
Q 3013 1481 2883 1672 
Q 2753 1863 2506 1969 
Q 2259 2075 1913 2075 
L 1544 2075 
L 1544 2569 
L 1913 2569 
Q 2184 2569 2396 2666 
Q 2609 2763 2726 2938 
Q 2844 3113 2844 3344 
Q 2844 3566 2739 3737 
Q 2634 3909 2443 4004 
Q 2253 4100 2000 4100 
Q 1756 4100 1543 4012 
Q 1331 3925 1197 3764 
Q 1063 3603 1050 3388 
L 506 3388 
Q 522 3738 725 4011 
Q 928 4284 1265 4436 
Q 1603 4588 2006 4588 
Q 2425 4588 2739 4423 
Q 3053 4259 3222 3981 
Q 3391 3703 3388 3375 
Q 3391 2994 3184 2722 
Q 2978 2450 2619 2350 
L 2619 2319 
Q 2909 2272 3123 2123 
Q 3338 1975 3452 1745 
Q 3566 1516 3563 1231 
Q 3566 866 3359 570 
Q 3153 275 2792 106 
Q 2431 -63 1988 -63 
z
" transform="scale(0.015625)"/>
       </defs>
       <use xlink:href="#Pretendard-Regular-33"/>
      </g>
     </g>
    </g>
    <g id="ytick_5">
     <g id="line2d_11">
      <path d="M 43.4825 222.118873 
L 389.251731 222.118873 
" clip-path="url(#p8ea9b3f18c)" style="fill: none; stroke: #e5e7eb; stroke-width: 1.15; stroke-linecap: square"/>
     </g>
     <g id="line2d_12">
      <g>
       <use xlink:href="#m131d9ed4d2" x="43.4825" y="222.118873" style="fill: #334155; stroke: #334155; stroke-width: 0.8"/>
      </g>
     </g>
     <g id="text_7">
      <!-- 4 -->
      <g style="fill: #334155" transform="translate(27.121563 227.421607) scale(0.15 -0.15)">
       <defs>
        <path id="Pretendard-Regular-34" d="M 313 1388 
L 2350 4525 
L 3044 4525 
L 3044 1419 
L 3675 1419 
L 3675 925 
L 3044 925 
L 3044 0 
L 2506 0 
L 2506 925 
L 313 925 
L 313 1388 
z
M 2506 1419 
L 2506 3813 
L 2450 3813 
L 919 1456 
L 919 1419 
L 2506 1419 
z
" transform="scale(0.015625)"/>
       </defs>
       <use xlink:href="#Pretendard-Regular-34"/>
      </g>
     </g>
    </g>
    <g id="ytick_6">
     <g id="line2d_13">
      <path d="M 43.4825 183.112591 
L 389.251731 183.112591 
" clip-path="url(#p8ea9b3f18c)" style="fill: none; stroke: #e5e7eb; stroke-width: 1.15; stroke-linecap: square"/>
     </g>
     <g id="line2d_14">
      <g>
       <use xlink:href="#m131d9ed4d2" x="43.4825" y="183.112591" style="fill: #334155; stroke: #334155; stroke-width: 0.8"/>
      </g>
     </g>
     <g id="text_8">
      <!-- 5 -->
      <g style="fill: #334155" transform="translate(27.531719 188.415325) scale(0.15 -0.15)">
       <defs>
        <path id="Pretendard-Regular-35" d="M 1900 -63 
Q 1497 -63 1167 92 
Q 838 247 642 520 
Q 447 794 431 1138 
L 975 1138 
Q 997 938 1125 777 
Q 1253 616 1456 523 
Q 1659 431 1900 431 
Q 2188 431 2419 562 
Q 2650 694 2781 922 
Q 2913 1150 2913 1431 
Q 2913 1722 2777 1955 
Q 2641 2188 2402 2320 
Q 2163 2453 1863 2456 
Q 1259 2466 1019 2050 
L 475 2050 
L 794 4525 
L 3244 4525 
L 3244 4025 
L 1263 4025 
L 1094 2700 
L 1138 2700 
Q 1291 2819 1509 2891 
Q 1728 2963 1963 2963 
Q 2388 2963 2730 2767 
Q 3072 2572 3267 2225 
Q 3463 1878 3463 1444 
Q 3463 1013 3259 669 
Q 3056 325 2700 131 
Q 2344 -63 1900 -63 
z
" transform="scale(0.015625)"/>
       </defs>
       <use xlink:href="#Pretendard-Regular-35"/>
      </g>
     </g>
    </g>
    <g id="ytick_7">
     <g id="line2d_15">
      <path d="M 43.4825 144.106309 
L 389.251731 144.106309 
" clip-path="url(#p8ea9b3f18c)" style="fill: none; stroke: #e5e7eb; stroke-width: 1.15; stroke-linecap: square"/>
     </g>
     <g id="line2d_16">
      <g>
       <use xlink:href="#m131d9ed4d2" x="43.4825" y="144.106309" style="fill: #334155; stroke: #334155; stroke-width: 0.8"/>
      </g>
     </g>
     <g id="text_9">
      <!-- 6 -->
      <g style="fill: #334155" transform="translate(27.283281 149.409044) scale(0.15 -0.15)">
       <defs>
        <path id="Pretendard-Regular-36" d="M 2013 -63 
Q 1575 -63 1201 135 
Q 828 334 589 814 
Q 350 1294 350 2088 
Q 350 2878 558 3440 
Q 766 4003 1152 4295 
Q 1538 4588 2069 4588 
Q 2459 4588 2770 4438 
Q 3081 4288 3279 4016 
Q 3478 3744 3538 3388 
L 2981 3388 
Q 2897 3703 2664 3895 
Q 2431 4088 2069 4088 
Q 1700 4088 1433 3883 
Q 1166 3678 1023 3290 
Q 881 2903 881 2363 
L 938 2363 
Q 1138 2647 1438 2805 
Q 1738 2963 2100 2963 
Q 2500 2963 2839 2769 
Q 3178 2575 3376 2233 
Q 3575 1891 3575 1463 
Q 3575 1041 3379 692 
Q 3184 344 2828 140 
Q 2472 -63 2013 -63 
z
M 2000 431 
Q 2288 431 2522 568 
Q 2756 706 2892 942 
Q 3028 1178 3031 1456 
Q 3028 1734 2897 1965 
Q 2766 2197 2534 2333 
Q 2303 2469 2013 2469 
Q 1722 2469 1481 2328 
Q 1241 2188 1100 1952 
Q 959 1716 956 1450 
Q 956 1184 1092 950 
Q 1228 716 1467 573 
Q 1706 431 2000 431 
z
" transform="scale(0.015625)"/>
       </defs>
       <use xlink:href="#Pretendard-Regular-36"/>
      </g>
     </g>
    </g>
    <g id="ytick_8">
     <g id="line2d_17">
      <path d="M 43.4825 105.100027 
L 389.251731 105.100027 
" clip-path="url(#p8ea9b3f18c)" style="fill: none; stroke: #e5e7eb; stroke-width: 1.15; stroke-linecap: square"/>
     </g>
     <g id="line2d_18">
      <g>
       <use xlink:href="#m131d9ed4d2" x="43.4825" y="105.100027" style="fill: #334155; stroke: #334155; stroke-width: 0.8"/>
      </g>
     </g>
     <g id="text_10">
      <!-- 7 -->
      <g style="fill: #334155" transform="translate(28.206719 110.402762) scale(0.15 -0.15)">
       <defs>
        <path id="Pretendard-Regular-37" d="M 2644 3994 
L 2644 4025 
L 250 4025 
L 250 4525 
L 3225 4525 
L 3225 4000 
L 1156 0 
L 569 0 
L 2644 3994 
z
" transform="scale(0.015625)"/>
       </defs>
       <use xlink:href="#Pretendard-Regular-37"/>
      </g>
     </g>
    </g>
    <g id="text_11">
     <!-- MAPE (%) -->
     <g style="fill: #111827" transform="translate(19.734844 260.861844) rotate(-90) scale(0.17 -0.17)">
      <defs>
       <path id="Pretendard-Regular-4d" d="M 1175 4525 
L 2700 800 
L 2756 800 
L 4281 4525 
L 4956 4525 
L 4956 0 
L 4425 0 
L 4425 3419 
L 4381 3419 
L 2975 0 
L 2475 0 
L 1069 3419 
L 1031 3419 
L 1031 0 
L 500 0 
L 500 4525 
L 1175 4525 
z
" transform="scale(0.015625)"/>
       <path id="Pretendard-Regular-41" d="M 113 0 
L 1769 4525 
L 2363 4525 
L 4019 0 
L 3425 0 
L 2972 1275 
L 1153 1275 
L 700 0 
L 113 0 
z
M 2800 1769 
L 2081 3794 
L 2044 3794 
L 1325 1769 
L 2800 1769 
z
" transform="scale(0.015625)"/>
       <path id="Pretendard-Regular-50" d="M 500 4525 
L 2038 4525 
Q 2550 4525 2897 4337 
Q 3244 4150 3412 3826 
Q 3581 3503 3581 3088 
Q 3581 2675 3412 2348 
Q 3244 2022 2898 1833 
Q 2553 1644 2044 1644 
L 1063 1644 
L 1063 0 
L 500 0 
L 500 4525 
z
M 2019 2144 
Q 2531 2144 2778 2401 
Q 3025 2659 3025 3088 
Q 3025 3519 2778 3772 
Q 2531 4025 2013 4025 
L 1063 4025 
L 1063 2144 
L 2019 2144 
z
" transform="scale(0.015625)"/>
       <path id="Pretendard-Regular-45" d="M 500 4525 
L 3244 4525 
L 3244 4025 
L 1063 4025 
L 1063 2513 
L 3100 2513 
L 3100 2019 
L 1063 2019 
L 1063 500 
L 3275 500 
L 3275 0 
L 500 0 
L 500 4525 
z
" transform="scale(0.015625)"/>
       <path id="Pretendard-Regular-28" d="M 569 1725 
Q 578 3431 1469 4719 
L 1944 4719 
Q 1728 4406 1540 3909 
Q 1353 3413 1239 2838 
Q 1125 2263 1125 1725 
Q 1125 1188 1239 609 
Q 1353 31 1540 -466 
Q 1728 -963 1944 -1275 
L 1469 -1275 
Q 1028 -634 800 109 
Q 572 853 569 1725 
z
" transform="scale(0.015625)"/>
       <path id="Pretendard-Regular-25" d="M 1381 2425 
Q 1094 2425 889 2559 
Q 684 2694 579 2939 
Q 475 3184 475 3513 
Q 475 3831 583 4076 
Q 691 4322 895 4458 
Q 1100 4594 1381 4594 
Q 1672 4594 1875 4458 
Q 2078 4322 2183 4078 
Q 2288 3834 2288 3513 
Q 2288 3188 2181 2942 
Q 2075 2697 1870 2561 
Q 1666 2425 1381 2425 
z
M 1381 2813 
Q 1606 2813 1718 2998 
Q 1831 3184 1831 3513 
Q 1831 3841 1722 4025 
Q 1613 4209 1381 4206 
Q 1163 4206 1047 4020 
Q 931 3834 931 3513 
Q 931 3188 1047 3000 
Q 1163 2813 1381 2813 
z
M 4144 -63 
Q 3856 -66 3650 68 
Q 3444 203 3339 448 
Q 3234 694 3238 1019 
Q 3234 1341 3342 1587 
Q 3450 1834 3656 1970 
Q 3863 2106 4144 2106 
Q 4431 2106 4634 1970 
Q 4838 1834 4941 1589 
Q 5044 1344 5044 1019 
Q 5044 697 4937 450 
Q 4831 203 4628 68 
Q 4425 -66 4144 -63 
z
M 4144 325 
Q 4363 325 4475 509 
Q 4588 694 4588 1019 
Q 4588 1347 4481 1533 
Q 4375 1719 4156 1719 
Q 3931 1719 3809 1533 
Q 3688 1347 3688 1019 
Q 3688 697 3803 511 
Q 3919 325 4144 325 
z
M 4031 4525 
L 4538 4525 
L 1425 0 
L 919 0 
L 4031 4525 
z
" transform="scale(0.015625)"/>
       <path id="Pretendard-Regular-29" d="M 1613 1725 
Q 1609 853 1381 109 
Q 1153 -634 713 -1275 
L 238 -1275 
Q 453 -963 640 -466 
Q 828 31 942 609 
Q 1056 1188 1056 1725 
Q 1056 2263 942 2838 
Q 828 3413 640 3909 
Q 453 4406 238 4719 
L 713 4719 
Q 1603 3431 1613 1725 
z
" transform="scale(0.015625)"/>
      </defs>
      <use xlink:href="#Pretendard-Regular-4d"/>
      <use xlink:href="#Pretendard-Regular-41" transform="translate(85.253906 0)"/>
      <use xlink:href="#Pretendard-Regular-50" transform="translate(149.804688 0)"/>
      <use xlink:href="#Pretendard-Regular-45" transform="translate(210.253906 0)"/>
      <use xlink:href="#Pretendard-Regular-20" transform="translate(266.992188 0)"/>
      <use xlink:href="#Pretendard-Regular-28" transform="translate(292.089844 0)"/>
      <use xlink:href="#Pretendard-Regular-25" transform="translate(326.171875 0)"/>
      <use xlink:href="#Pretendard-Regular-29" transform="translate(412.402344 0)"/>
     </g>
    </g>
   </g>
   <g id="patch_3">
    <path d="M 59.199283 378.144 
L 174.588325 378.144 
L 174.588325 142.944 
L 59.199283 142.944 
z
" clip-path="url(#p8ea9b3f18c)" style="fill: #94a3b8; stroke: #ffffff; stroke-width: 1.5; stroke-linejoin: miter"/>
   </g>
   <g id="patch_4">
    <path d="M 258.145906 378.144 
L 373.534948 378.144 
L 373.534948 328.561282 
L 258.145906 328.561282 
z
" clip-path="url(#p8ea9b3f18c)" style="fill: #2563eb; stroke: #ffffff; stroke-width: 1.5; stroke-linejoin: miter"/>
   </g>
   <g id="patch_5">
    <path d="M 43.4825 378.144 
L 43.4825 67.68 
" style="fill: none; stroke: #cbd5e1; stroke-width: 0.8; stroke-linejoin: miter; stroke-linecap: square"/>
   </g>
   <g id="patch_6">
    <path d="M 43.4825 378.144 
L 389.251731 378.144 
" style="fill: none; stroke: #cbd5e1; stroke-width: 0.8; stroke-linejoin: miter; stroke-linecap: square"/>
   </g>
   <g id="text_12">
    <!-- 6.03% -->
    <g style="fill: #111827" transform="translate(91.423804 131.9949) scale(0.16 -0.16)">
     <defs>
      <path id="Pretendard-Bold-36" d="M 2119 -63 
Q 1613 -63 1200 154 
Q 788 372 534 867 
Q 281 1363 281 2156 
Q 281 2909 509 3457 
Q 738 4006 1159 4297 
Q 1581 4588 2144 4588 
Q 2588 4588 2941 4416 
Q 3294 4244 3508 3944 
Q 3722 3644 3769 3269 
L 2844 3269 
Q 2788 3509 2602 3645 
Q 2416 3781 2144 3781 
Q 1691 3781 1448 3398 
Q 1206 3016 1200 2338 
L 1244 2338 
Q 1397 2634 1709 2804 
Q 2022 2975 2400 2975 
Q 2803 2975 3126 2786 
Q 3450 2597 3634 2264 
Q 3819 1931 3819 1513 
Q 3819 1059 3605 701 
Q 3391 344 3003 140 
Q 2616 -63 2119 -63 
z
M 2100 681 
Q 2328 681 2512 787 
Q 2697 894 2801 1078 
Q 2906 1263 2906 1488 
Q 2906 1709 2804 1893 
Q 2703 2078 2522 2186 
Q 2341 2294 2113 2294 
Q 1884 2294 1698 2186 
Q 1513 2078 1405 1892 
Q 1297 1706 1294 1488 
Q 1297 1266 1401 1081 
Q 1506 897 1690 789 
Q 1875 681 2100 681 
z
" transform="scale(0.015625)"/>
      <path id="Pretendard-Bold-2e" d="M 906 -56 
Q 763 -56 641 16 
Q 519 88 448 208 
Q 378 328 381 469 
Q 378 609 448 728 
Q 519 847 641 917 
Q 763 988 906 988 
Q 1041 988 1161 917 
Q 1281 847 1353 728 
Q 1425 609 1425 469 
Q 1425 328 1353 208 
Q 1281 88 1161 16 
Q 1041 -56 906 -56 
z
" transform="scale(0.015625)"/>
      <path id="Pretendard-Bold-30" d="M 2113 -63 
Q 1547 -63 1139 210 
Q 731 484 512 1006 
Q 294 1528 294 2263 
Q 294 2997 512 3519 
Q 731 4041 1139 4314 
Q 1547 4588 2113 4588 
Q 2675 4588 3084 4314 
Q 3494 4041 3712 3517 
Q 3931 2994 3931 2263 
Q 3931 1525 3712 1003 
Q 3494 481 3086 209 
Q 2678 -63 2113 -63 
z
M 2113 713 
Q 2375 713 2567 881 
Q 2759 1050 2864 1390 
Q 2969 1731 2969 2231 
Q 2969 3009 2744 3414 
Q 2519 3819 2113 3819 
Q 1706 3819 1481 3414 
Q 1256 3009 1256 2231 
Q 1256 1731 1361 1390 
Q 1466 1050 1658 881 
Q 1850 713 2113 713 
z
" transform="scale(0.015625)"/>
      <path id="Pretendard-Bold-33" d="M 2031 -63 
Q 1541 -63 1152 107 
Q 763 278 539 583 
Q 316 888 306 1275 
L 1256 1275 
Q 1266 1109 1369 981 
Q 1472 853 1647 783 
Q 1822 713 2038 713 
Q 2259 713 2436 792 
Q 2613 872 2711 1012 
Q 2809 1153 2806 1331 
Q 2809 1516 2704 1659 
Q 2600 1803 2406 1883 
Q 2213 1963 1950 1963 
L 1531 1963 
L 1531 2656 
L 1950 2656 
Q 2169 2656 2341 2731 
Q 2513 2806 2609 2943 
Q 2706 3081 2706 3256 
Q 2706 3428 2623 3559 
Q 2541 3691 2391 3764 
Q 2241 3838 2044 3838 
Q 1844 3838 1676 3767 
Q 1509 3697 1407 3567 
Q 1306 3438 1300 3269 
L 400 3269 
Q 406 3653 622 3953 
Q 838 4253 1211 4420 
Q 1584 4588 2044 4588 
Q 2506 4588 2864 4420 
Q 3222 4253 3419 3961 
Q 3616 3669 3613 3313 
Q 3616 3066 3508 2864 
Q 3400 2663 3204 2531 
Q 3009 2400 2756 2356 
L 2756 2319 
Q 3084 2278 3315 2137 
Q 3547 1997 3665 1773 
Q 3784 1550 3781 1269 
Q 3784 888 3559 583 
Q 3334 278 2934 107 
Q 2534 -63 2031 -63 
z
" transform="scale(0.015625)"/>
      <path id="Pretendard-Bold-25" d="M 1544 2263 
Q 1213 2263 978 2414 
Q 744 2566 622 2837 
Q 500 3109 500 3469 
Q 500 3828 623 4103 
Q 747 4378 983 4529 
Q 1219 4681 1544 4681 
Q 1878 4681 2111 4529 
Q 2344 4378 2464 4104 
Q 2584 3831 2588 3469 
Q 2584 3106 2462 2834 
Q 2341 2563 2106 2413 
Q 1872 2263 1544 2263 
z
M 1544 2819 
Q 1741 2819 1842 2994 
Q 1944 3169 1950 3469 
Q 1944 3775 1845 3950 
Q 1747 4125 1544 4125 
Q 1347 4125 1242 3945 
Q 1138 3766 1138 3469 
Q 1138 3172 1244 2995 
Q 1350 2819 1544 2819 
z
M 4594 -150 
Q 4266 -150 4031 1 
Q 3797 153 3676 425 
Q 3556 697 3556 1056 
Q 3556 1416 3679 1691 
Q 3803 1966 4037 2117 
Q 4272 2269 4594 2269 
Q 4928 2269 5162 2117 
Q 5397 1966 5519 1692 
Q 5641 1419 5644 1056 
Q 5641 694 5519 422 
Q 5397 150 5161 0 
Q 4925 -150 4594 -150 
z
M 4594 406 
Q 4794 406 4897 578 
Q 5000 750 5006 1056 
Q 5000 1363 4900 1536 
Q 4800 1709 4594 1706 
Q 4403 1706 4298 1528 
Q 4194 1350 4194 1056 
Q 4194 756 4298 581 
Q 4403 406 4594 406 
z
M 4263 4525 
L 4963 4525 
L 1850 0 
L 1150 0 
L 4263 4525 
z
" transform="scale(0.015625)"/>
     </defs>
     <use xlink:href="#Pretendard-Bold-36"/>
     <use xlink:href="#Pretendard-Bold-2e" transform="translate(64.257812 0)"/>
     <use xlink:href="#Pretendard-Bold-30" transform="translate(92.480469 0)"/>
     <use xlink:href="#Pretendard-Bold-33" transform="translate(158.496094 0)"/>
     <use xlink:href="#Pretendard-Bold-25" transform="translate(222.363281 0)"/>
    </g>
   </g>
   <g id="text_13">
    <!-- 1.27% -->
    <g style="fill: #111827" transform="translate(292.669177 317.612182) scale(0.16 -0.16)">
     <defs>
      <path id="Pretendard-Bold-31" d="M 2306 0 
L 1363 0 
L 1363 3631 
L 1338 3631 
L 300 2981 
L 300 3813 
L 1419 4525 
L 2306 4525 
L 2306 0 
z
" transform="scale(0.015625)"/>
      <path id="Pretendard-Bold-32" d="M 350 681 
L 1975 2175 
Q 2216 2406 2348 2559 
Q 2481 2713 2553 2864 
Q 2625 3016 2625 3188 
Q 2625 3384 2533 3531 
Q 2441 3678 2277 3758 
Q 2113 3838 1906 3838 
Q 1588 3838 1397 3648 
Q 1206 3459 1206 3138 
L 313 3138 
Q 309 3575 511 3903 
Q 713 4231 1078 4409 
Q 1444 4588 1919 4588 
Q 2397 4588 2762 4417 
Q 3128 4247 3329 3944 
Q 3531 3641 3531 3250 
Q 3531 2984 3428 2739 
Q 3325 2494 3070 2192 
Q 2816 1891 2350 1469 
L 1663 800 
L 1663 775 
L 3594 775 
L 3594 0 
L 356 0 
L 350 681 
z
" transform="scale(0.015625)"/>
      <path id="Pretendard-Bold-37" d="M 2438 3725 
L 2438 3756 
L 219 3756 
L 219 4525 
L 3413 4525 
L 3413 3744 
L 1506 0 
L 531 0 
L 2438 3725 
z
" transform="scale(0.015625)"/>
     </defs>
     <use xlink:href="#Pretendard-Bold-31"/>
     <use xlink:href="#Pretendard-Bold-2e" transform="translate(46.875 0)"/>
     <use xlink:href="#Pretendard-Bold-32" transform="translate(75.097656 0)"/>
     <use xlink:href="#Pretendard-Bold-37" transform="translate(136.132812 0)"/>
     <use xlink:href="#Pretendard-Bold-25" transform="translate(193.652344 0)"/>
    </g>
   </g>
   <g id="text_14">
    <!-- 평균 상대오차 비교 -->
    <g style="fill: #111827" transform="translate(120.496178 61.68) scale(0.26 -0.26)">
     <defs>
      <path id="Pretendard-Bold-d3c9" d="M 3344 4100 
L 2875 4100 
L 2875 2581 
Q 3172 2606 3431 2638 
L 3463 2050 
Q 2750 1928 1945 1889 
Q 1141 1850 250 1850 
L 169 2494 
L 775 2500 
L 775 4100 
L 313 4100 
L 313 4738 
L 3344 4738 
L 3344 4100 
z
M 4963 1638 
L 4169 1638 
L 4169 2488 
L 3469 2488 
L 3469 3125 
L 4169 3125 
L 4169 3563 
L 3469 3563 
L 3469 4188 
L 4169 4188 
L 4169 5113 
L 4963 5113 
L 4963 1638 
z
M 3019 1550 
Q 3631 1547 4070 1422 
Q 4509 1297 4743 1058 
Q 4978 819 4981 481 
Q 4978 153 4743 -84 
Q 4509 -322 4068 -448 
Q 3628 -575 3019 -575 
Q 2413 -575 1972 -448 
Q 1531 -322 1297 -84 
Q 1063 153 1063 481 
Q 1063 819 1297 1058 
Q 1531 1297 1970 1422 
Q 2409 1547 3019 1550 
z
M 3019 938 
Q 2441 938 2148 825 
Q 1856 713 1856 481 
Q 1856 256 2150 143 
Q 2444 31 3019 31 
Q 3594 31 3891 143 
Q 4188 256 4188 481 
Q 4188 938 3019 938 
z
M 2113 2534 
L 2113 4100 
L 1544 4100 
L 1544 2516 
L 2113 2534 
z
" transform="scale(0.015625)"/>
      <path id="Pretendard-Bold-ade0" d="M 4756 4356 
Q 4756 3888 4737 3530 
Q 4719 3172 4641 2744 
L 5375 2744 
L 5375 2106 
L 4069 2106 
L 4069 863 
L 3294 863 
L 3294 2106 
L 2675 2106 
L 2675 863 
L 1894 863 
L 1894 2106 
L 169 2106 
L 169 2744 
L 3844 2744 
Q 3916 3147 3939 3489 
Q 3963 3831 3963 4219 
L 794 4219 
L 794 4844 
L 4756 4844 
L 4756 4356 
z
M 4906 -475 
L 725 -475 
L 725 1375 
L 1519 1375 
L 1519 163 
L 4906 163 
L 4906 -475 
z
" transform="scale(0.015625)"/>
      <path id="Pretendard-Bold-20" transform="scale(0.015625)"/>
      <path id="Pretendard-Bold-c0c1" d="M 2244 4219 
Q 2244 3866 2384 3545 
Q 2525 3225 2817 2973 
Q 3109 2722 3544 2588 
L 3119 1969 
Q 2675 2116 2356 2394 
Q 2038 2672 1850 3053 
Q 1659 2613 1323 2292 
Q 988 1972 513 1813 
L 81 2438 
Q 541 2591 844 2875 
Q 1147 3159 1294 3523 
Q 1441 3888 1444 4294 
L 1444 4813 
L 2244 4813 
L 2244 4219 
z
M 4681 3781 
L 5450 3781 
L 5450 3119 
L 4681 3119 
L 4681 1738 
L 3881 1738 
L 3881 5113 
L 4681 5113 
L 4681 3781 
z
M 2819 1625 
Q 3406 1625 3837 1494 
Q 4269 1363 4503 1116 
Q 4738 869 4738 525 
Q 4738 178 4505 -69 
Q 4272 -316 3839 -445 
Q 3406 -575 2819 -575 
Q 2219 -575 1780 -445 
Q 1341 -316 1105 -69 
Q 869 178 869 525 
Q 869 869 1105 1116 
Q 1341 1363 1781 1494 
Q 2222 1625 2819 1625 
z
M 2819 1000 
Q 2253 1000 1959 879 
Q 1666 759 1669 525 
Q 1659 50 2819 50 
Q 3950 50 3950 525 
Q 3950 759 3661 879 
Q 3372 1000 2819 1000 
z
" transform="scale(0.015625)"/>
      <path id="Pretendard-Bold-b300" d="M 5088 -575 
L 4331 -575 
L 4331 2281 
L 3781 2281 
L 3781 -300 
L 3050 -300 
L 3050 5019 
L 3781 5019 
L 3781 2919 
L 4331 2919 
L 4331 5113 
L 5088 5113 
L 5088 -575 
z
M 2450 3813 
L 1131 3813 
L 1131 1384 
Q 1581 1391 1956 1419 
Q 2331 1447 2719 1519 
L 2775 869 
Q 2297 778 1837 748 
Q 1378 719 725 713 
L 331 713 
L 331 4456 
L 2450 4456 
L 2450 3813 
z
" transform="scale(0.015625)"/>
      <path id="Pretendard-Bold-c624" d="M 2763 4819 
Q 3372 4819 3859 4625 
Q 4347 4431 4625 4076 
Q 4903 3722 4906 3263 
Q 4903 2844 4681 2512 
Q 4459 2181 4064 1976 
Q 3669 1772 3156 1713 
L 3156 744 
L 5375 744 
L 5375 88 
L 169 88 
L 169 744 
L 2363 744 
L 2363 1716 
Q 1853 1772 1459 1978 
Q 1066 2184 845 2514 
Q 625 2844 625 3263 
Q 625 3722 901 4076 
Q 1178 4431 1665 4625 
Q 2153 4819 2763 4819 
z
M 2763 4181 
Q 2366 4181 2059 4070 
Q 1753 3959 1583 3750 
Q 1413 3541 1413 3263 
Q 1413 2969 1583 2758 
Q 1753 2547 2058 2436 
Q 2363 2325 2763 2325 
Q 3166 2325 3470 2434 
Q 3775 2544 3945 2756 
Q 4116 2969 4119 3263 
Q 4116 3544 3945 3751 
Q 3775 3959 3469 4070 
Q 3163 4181 2763 4181 
z
" transform="scale(0.015625)"/>
      <path id="Pretendard-Bold-cc28" d="M 2225 3331 
Q 2225 2913 2372 2497 
Q 2519 2081 2817 1732 
Q 3116 1384 3550 1181 
L 3106 581 
Q 2666 778 2345 1154 
Q 2025 1531 1838 2025 
Q 1647 1494 1308 1089 
Q 969 684 500 481 
L 63 1100 
Q 506 1294 815 1653 
Q 1125 2013 1279 2450 
Q 1434 2888 1438 3331 
L 1438 3550 
L 263 3550 
L 263 4188 
L 1431 4188 
L 1431 4988 
L 2231 4988 
L 2231 4188 
L 3388 4188 
L 3388 3550 
L 2225 3550 
L 2225 3331 
z
M 4656 2906 
L 5494 2906 
L 5494 2238 
L 4656 2238 
L 4656 -575 
L 3856 -575 
L 3856 5113 
L 4656 5113 
L 4656 2906 
z
" transform="scale(0.015625)"/>
      <path id="Pretendard-Bold-be44" d="M 4931 -588 
L 4125 -588 
L 4125 5113 
L 4931 5113 
L 4931 -588 
z
M 1250 3275 
L 2475 3275 
L 2475 4663 
L 3263 4663 
L 3263 744 
L 450 744 
L 450 4663 
L 1250 4663 
L 1250 3275 
z
M 2475 1388 
L 2475 2656 
L 1250 2656 
L 1250 1388 
L 2475 1388 
z
" transform="scale(0.015625)"/>
      <path id="Pretendard-Bold-ad50" d="M 4888 4063 
L 4888 3994 
Q 4881 3291 4843 2734 
Q 4806 2178 4675 1444 
L 3894 1513 
Q 4019 2206 4053 2765 
Q 4088 3325 4088 3988 
L 681 3988 
L 681 4619 
L 4888 4619 
L 4888 4063 
z
M 5356 119 
L 169 119 
L 169 769 
L 1275 769 
L 1275 2556 
L 2069 2556 
L 2069 769 
L 2694 769 
L 2694 2556 
L 3481 2556 
L 3481 769 
L 5356 769 
L 5356 119 
z
" transform="scale(0.015625)"/>
     </defs>
     <use xlink:href="#Pretendard-Bold-d3c9"/>
     <use xlink:href="#Pretendard-Bold-ade0" transform="translate(86.425781 0)"/>
     <use xlink:href="#Pretendard-Bold-20" transform="translate(172.851562 0)"/>
     <use xlink:href="#Pretendard-Bold-c0c1" transform="translate(195.898438 0)"/>
     <use xlink:href="#Pretendard-Bold-b300" transform="translate(282.324219 0)"/>
     <use xlink:href="#Pretendard-Bold-c624" transform="translate(368.75 0)"/>
     <use xlink:href="#Pretendard-Bold-cc28" transform="translate(455.175781 0)"/>
     <use xlink:href="#Pretendard-Bold-20" transform="translate(541.601562 0)"/>
     <use xlink:href="#Pretendard-Bold-be44" transform="translate(564.648438 0)"/>
     <use xlink:href="#Pretendard-Bold-ad50" transform="translate(651.074219 0)"/>
    </g>
   </g>
  </g>
  <g id="axes_2">
   <g id="patch_7">
    <path d="M 506.813269 378.144 
L 852.5825 378.144 
L 852.5825 67.68 
L 506.813269 67.68 
z
" style="fill: #ffffff"/>
   </g>
   <g id="matplotlib.axis_3">
    <g id="xtick_3">
     <g id="line2d_19">
      <g>
       <use xlink:href="#md9ddccfbf2" x="580.224573" y="378.144" style="fill: #334155; stroke: #334155; stroke-width: 0.8"/>
      </g>
     </g>
     <g id="text_15">
      <!-- 단일 통합 모델 -->
      <g style="fill: #334155" transform="translate(537.570667 395.749469) scale(0.15 -0.15)">
       <use xlink:href="#Pretendard-Regular-b2e8"/>
       <use xlink:href="#Pretendard-Regular-c77c" transform="translate(86.425781 0)"/>
       <use xlink:href="#Pretendard-Regular-20" transform="translate(172.851562 0)"/>
       <use xlink:href="#Pretendard-Regular-d1b5" transform="translate(197.949219 0)"/>
       <use xlink:href="#Pretendard-Regular-d569" transform="translate(284.375 0)"/>
       <use xlink:href="#Pretendard-Regular-20" transform="translate(370.800781 0)"/>
       <use xlink:href="#Pretendard-Regular-baa8" transform="translate(395.898438 0)"/>
       <use xlink:href="#Pretendard-Regular-b378" transform="translate(482.324219 0)"/>
      </g>
     </g>
    </g>
    <g id="xtick_4">
     <g id="line2d_20">
      <g>
       <use xlink:href="#md9ddccfbf2" x="779.171196" y="378.144" style="fill: #334155; stroke: #334155; stroke-width: 0.8"/>
      </g>
     </g>
     <g id="text_16">
      <!-- 적정 종류별 모델 -->
      <g style="fill: #334155" transform="translate(730.035649 395.749469) scale(0.15 -0.15)">
       <use xlink:href="#Pretendard-Regular-c801"/>
       <use xlink:href="#Pretendard-Regular-c815" transform="translate(86.425781 0)"/>
       <use xlink:href="#Pretendard-Regular-20" transform="translate(172.851562 0)"/>
       <use xlink:href="#Pretendard-Regular-c885" transform="translate(197.949219 0)"/>
       <use xlink:href="#Pretendard-Regular-b958" transform="translate(284.375 0)"/>
       <use xlink:href="#Pretendard-Regular-bcc4" transform="translate(370.800781 0)"/>
       <use xlink:href="#Pretendard-Regular-20" transform="translate(457.226562 0)"/>
       <use xlink:href="#Pretendard-Regular-baa8" transform="translate(482.324219 0)"/>
       <use xlink:href="#Pretendard-Regular-b378" transform="translate(568.75 0)"/>
      </g>
     </g>
    </g>
   </g>
   <g id="matplotlib.axis_4">
    <g id="ytick_9">
     <g id="line2d_21">
      <path d="M 506.813269 378.144 
L 852.5825 378.144 
" clip-path="url(#p6bb7059c92)" style="fill: none; stroke: #e5e7eb; stroke-width: 1.15; stroke-linecap: square"/>
     </g>
     <g id="line2d_22">
      <g>
       <use xlink:href="#m131d9ed4d2" x="506.813269" y="378.144" style="fill: #334155; stroke: #334155; stroke-width: 0.8"/>
      </g>
     </g>
     <g id="text_17">
      <!-- 0.0 -->
      <g style="fill: #334155" transform="translate(478.131238 383.446734) scale(0.15 -0.15)">
       <defs>
        <path id="Pretendard-Regular-2e" d="M 813 -38 
Q 703 -38 611 17 
Q 519 72 464 165 
Q 409 259 413 369 
Q 409 475 464 567 
Q 519 659 611 714 
Q 703 769 813 769 
Q 919 769 1011 714 
Q 1103 659 1158 567 
Q 1213 475 1213 369 
Q 1213 259 1158 165 
Q 1103 72 1011 17 
Q 919 -38 813 -38 
z
" transform="scale(0.015625)"/>
       </defs>
       <use xlink:href="#Pretendard-Regular-30"/>
       <use xlink:href="#Pretendard-Regular-2e" transform="translate(59.570312 0)"/>
       <use xlink:href="#Pretendard-Regular-30" transform="translate(84.960938 0)"/>
      </g>
     </g>
    </g>
    <g id="ytick_10">
     <g id="line2d_23">
      <path d="M 506.813269 319.715256 
L 852.5825 319.715256 
" clip-path="url(#p6bb7059c92)" style="fill: none; stroke: #e5e7eb; stroke-width: 1.15; stroke-linecap: square"/>
     </g>
     <g id="line2d_24">
      <g>
       <use xlink:href="#m131d9ed4d2" x="506.813269" y="319.715256" style="fill: #334155; stroke: #334155; stroke-width: 0.8"/>
      </g>
     </g>
     <g id="text_18">
      <!-- 0.5 -->
      <g style="fill: #334155" transform="translate(478.117175 325.017991) scale(0.15 -0.15)">
       <use xlink:href="#Pretendard-Regular-30"/>
       <use xlink:href="#Pretendard-Regular-2e" transform="translate(59.570312 0)"/>
       <use xlink:href="#Pretendard-Regular-35" transform="translate(84.960938 0)"/>
      </g>
     </g>
    </g>
    <g id="ytick_11">
     <g id="line2d_25">
      <path d="M 506.813269 261.286512 
L 852.5825 261.286512 
" clip-path="url(#p6bb7059c92)" style="fill: none; stroke: #e5e7eb; stroke-width: 1.15; stroke-linecap: square"/>
     </g>
     <g id="line2d_26">
      <g>
       <use xlink:href="#m131d9ed4d2" x="506.813269" y="261.286512" style="fill: #334155; stroke: #334155; stroke-width: 0.8"/>
      </g>
     </g>
     <g id="text_19">
      <!-- 1.0 -->
      <g style="fill: #334155" transform="translate(480.491394 266.589247) scale(0.15 -0.15)">
       <use xlink:href="#Pretendard-Regular-31"/>
       <use xlink:href="#Pretendard-Regular-2e" transform="translate(43.847656 0)"/>
       <use xlink:href="#Pretendard-Regular-30" transform="translate(69.238281 0)"/>
      </g>
     </g>
    </g>
    <g id="ytick_12">
     <g id="line2d_27">
      <path d="M 506.813269 202.857769 
L 852.5825 202.857769 
" clip-path="url(#p6bb7059c92)" style="fill: none; stroke: #e5e7eb; stroke-width: 1.15; stroke-linecap: square"/>
     </g>
     <g id="line2d_28">
      <g>
       <use xlink:href="#m131d9ed4d2" x="506.813269" y="202.857769" style="fill: #334155; stroke: #334155; stroke-width: 0.8"/>
      </g>
     </g>
     <g id="text_20">
      <!-- 1.5 -->
      <g style="fill: #334155" transform="translate(480.477332 208.160503) scale(0.15 -0.15)">
       <use xlink:href="#Pretendard-Regular-31"/>
       <use xlink:href="#Pretendard-Regular-2e" transform="translate(43.847656 0)"/>
       <use xlink:href="#Pretendard-Regular-35" transform="translate(69.238281 0)"/>
      </g>
     </g>
    </g>
    <g id="ytick_13">
     <g id="line2d_29">
      <path d="M 506.813269 144.429025 
L 852.5825 144.429025 
" clip-path="url(#p6bb7059c92)" style="fill: none; stroke: #e5e7eb; stroke-width: 1.15; stroke-linecap: square"/>
     </g>
     <g id="line2d_30">
      <g>
       <use xlink:href="#m131d9ed4d2" x="506.813269" y="144.429025" style="fill: #334155; stroke: #334155; stroke-width: 0.8"/>
      </g>
     </g>
     <g id="text_21">
      <!-- 2.0 -->
      <g style="fill: #334155" transform="translate(478.264832 149.731759) scale(0.15 -0.15)">
       <use xlink:href="#Pretendard-Regular-32"/>
       <use xlink:href="#Pretendard-Regular-2e" transform="translate(58.691406 0)"/>
       <use xlink:href="#Pretendard-Regular-30" transform="translate(84.082031 0)"/>
      </g>
     </g>
    </g>
    <g id="ytick_14">
     <g id="line2d_31">
      <path d="M 506.813269 86.000281 
L 852.5825 86.000281 
" clip-path="url(#p6bb7059c92)" style="fill: none; stroke: #e5e7eb; stroke-width: 1.15; stroke-linecap: square"/>
     </g>
     <g id="line2d_32">
      <g>
       <use xlink:href="#m131d9ed4d2" x="506.813269" y="86.000281" style="fill: #334155; stroke: #334155; stroke-width: 0.8"/>
      </g>
     </g>
     <g id="text_22">
      <!-- 2.5 -->
      <g style="fill: #334155" transform="translate(478.250769 91.303016) scale(0.15 -0.15)">
       <use xlink:href="#Pretendard-Regular-32"/>
       <use xlink:href="#Pretendard-Regular-2e" transform="translate(58.691406 0)"/>
       <use xlink:href="#Pretendard-Regular-35" transform="translate(84.082031 0)"/>
      </g>
     </g>
    </g>
    <g id="text_23">
     <!-- MAE (mL) -->
     <g style="fill: #111827" transform="translate(470.730457 260.015828) rotate(-90) scale(0.17 -0.17)">
      <defs>
       <path id="Pretendard-Regular-6d" d="M 431 3394 
L 950 3394 
L 950 2863 
L 994 2863 
Q 1103 3138 1339 3288 
Q 1575 3438 1906 3438 
Q 2231 3438 2459 3289 
Q 2688 3141 2813 2863 
L 2850 2863 
Q 2984 3131 3246 3284 
Q 3509 3438 3869 3438 
Q 4178 3438 4411 3309 
Q 4644 3181 4775 2920 
Q 4906 2659 4906 2269 
L 4906 0 
L 4369 0 
L 4369 2263 
Q 4369 2616 4175 2786 
Q 3981 2956 3681 2956 
Q 3450 2956 3281 2859 
Q 3113 2763 3025 2594 
Q 2938 2425 2938 2206 
L 2938 0 
L 2394 0 
L 2394 2319 
Q 2394 2506 2309 2651 
Q 2225 2797 2073 2876 
Q 1922 2956 1731 2956 
Q 1528 2956 1353 2848 
Q 1178 2741 1073 2550 
Q 969 2359 969 2119 
L 969 0 
L 431 0 
L 431 3394 
z
" transform="scale(0.015625)"/>
       <path id="Pretendard-Regular-4c" d="M 500 4525 
L 1063 4525 
L 1063 500 
L 3163 500 
L 3163 0 
L 500 0 
L 500 4525 
z
" transform="scale(0.015625)"/>
      </defs>
      <use xlink:href="#Pretendard-Regular-4d"/>
      <use xlink:href="#Pretendard-Regular-41" transform="translate(85.253906 0)"/>
      <use xlink:href="#Pretendard-Regular-45" transform="translate(149.804688 0)"/>
      <use xlink:href="#Pretendard-Regular-20" transform="translate(206.542969 0)"/>
      <use xlink:href="#Pretendard-Regular-28" transform="translate(231.640625 0)"/>
      <use xlink:href="#Pretendard-Regular-6d" transform="translate(265.722656 0)"/>
      <use xlink:href="#Pretendard-Regular-4c" transform="translate(349.121094 0)"/>
      <use xlink:href="#Pretendard-Regular-29" transform="translate(402.441406 0)"/>
     </g>
    </g>
   </g>
   <g id="patch_8">
    <path d="M 522.530052 378.144 
L 637.919094 378.144 
L 637.919094 142.944 
L 522.530052 142.944 
z
" clip-path="url(#p6bb7059c92)" style="fill: #94a3b8; stroke: #ffffff; stroke-width: 1.5; stroke-linejoin: miter"/>
   </g>
   <g id="patch_9">
    <path d="M 721.476675 378.144 
L 836.865717 378.144 
L 836.865717 332.280708 
L 721.476675 332.280708 
z
" clip-path="url(#p6bb7059c92)" style="fill: #2563eb; stroke: #ffffff; stroke-width: 1.5; stroke-linejoin: miter"/>
   </g>
   <g id="patch_10">
    <path d="M 506.813269 378.144 
L 506.813269 67.68 
" style="fill: none; stroke: #cbd5e1; stroke-width: 0.8; stroke-linejoin: miter; stroke-linecap: square"/>
   </g>
   <g id="patch_11">
    <path d="M 506.813269 378.144 
L 852.5825 378.144 
" style="fill: none; stroke: #cbd5e1; stroke-width: 0.8; stroke-linejoin: miter; stroke-linecap: square"/>
   </g>
   <g id="text_24">
    <!-- 2.013 mL -->
    <g style="fill: #111827" transform="translate(545.700823 131.9949) scale(0.16 -0.16)">
     <defs>
      <path id="Pretendard-Bold-6d" d="M 363 3394 
L 1244 3394 
L 1244 2800 
L 1281 2800 
Q 1391 3097 1637 3267 
Q 1884 3438 2225 3438 
Q 2575 3438 2820 3267 
Q 3066 3097 3150 2800 
L 3181 2800 
Q 3291 3094 3562 3266 
Q 3834 3438 4206 3438 
Q 4522 3438 4764 3302 
Q 5006 3166 5140 2905 
Q 5275 2644 5275 2281 
L 5275 0 
L 4350 0 
L 4350 2100 
Q 4350 2381 4204 2528 
Q 4059 2675 3819 2675 
Q 3559 2675 3414 2511 
Q 3269 2347 3269 2075 
L 3269 0 
L 2369 0 
L 2369 2125 
Q 2369 2375 2225 2525 
Q 2081 2675 1844 2675 
Q 1688 2675 1561 2595 
Q 1434 2516 1361 2372 
Q 1288 2228 1288 2038 
L 1288 0 
L 363 0 
L 363 3394 
z
" transform="scale(0.015625)"/>
      <path id="Pretendard-Bold-4c" d="M 381 4525 
L 1319 4525 
L 1319 775 
L 3269 775 
L 3269 0 
L 381 0 
L 381 4525 
z
" transform="scale(0.015625)"/>
     </defs>
     <use xlink:href="#Pretendard-Bold-32"/>
     <use xlink:href="#Pretendard-Bold-2e" transform="translate(61.035156 0)"/>
     <use xlink:href="#Pretendard-Bold-30" transform="translate(89.257812 0)"/>
     <use xlink:href="#Pretendard-Bold-31" transform="translate(155.273438 0)"/>
     <use xlink:href="#Pretendard-Bold-33" transform="translate(202.148438 0)"/>
     <use xlink:href="#Pretendard-Bold-20" transform="translate(266.015625 0)"/>
     <use xlink:href="#Pretendard-Bold-6d" transform="translate(289.0625 0)"/>
     <use xlink:href="#Pretendard-Bold-4c" transform="translate(376.953125 0)"/>
    </g>
   </g>
   <g id="text_25">
    <!-- 0.392 mL -->
    <g style="fill: #111827" transform="translate(743.256196 321.331608) scale(0.16 -0.16)">
     <defs>
      <path id="Pretendard-Bold-39" d="M 1994 4588 
Q 2497 4588 2911 4370 
Q 3325 4153 3578 3661 
Q 3831 3169 3831 2381 
Q 3834 1622 3606 1070 
Q 3378 519 2958 228 
Q 2538 -63 1969 -63 
Q 1522 -63 1170 109 
Q 819 281 605 586 
Q 391 891 344 1275 
L 1269 1275 
Q 1325 1025 1511 884 
Q 1697 744 1969 744 
Q 2428 744 2670 1128 
Q 2913 1513 2913 2200 
L 2875 2200 
Q 2716 1900 2405 1731 
Q 2094 1563 1713 1563 
Q 1313 1563 989 1750 
Q 666 1938 481 2270 
Q 297 2603 294 3019 
Q 294 3469 506 3826 
Q 719 4184 1106 4386 
Q 1494 4588 1994 4588 
z
M 2013 3850 
Q 1788 3850 1605 3744 
Q 1422 3638 1317 3456 
Q 1213 3275 1213 3056 
Q 1213 2831 1314 2647 
Q 1416 2463 1597 2356 
Q 1778 2250 2006 2250 
Q 2231 2250 2417 2358 
Q 2603 2466 2711 2650 
Q 2819 2834 2819 3050 
Q 2816 3266 2709 3448 
Q 2603 3631 2420 3740 
Q 2238 3850 2013 3850 
z
" transform="scale(0.015625)"/>
     </defs>
     <use xlink:href="#Pretendard-Bold-30"/>
     <use xlink:href="#Pretendard-Bold-2e" transform="translate(66.015625 0)"/>
     <use xlink:href="#Pretendard-Bold-33" transform="translate(94.238281 0)"/>
     <use xlink:href="#Pretendard-Bold-39" transform="translate(158.105469 0)"/>
     <use xlink:href="#Pretendard-Bold-32" transform="translate(222.363281 0)"/>
     <use xlink:href="#Pretendard-Bold-20" transform="translate(283.398438 0)"/>
     <use xlink:href="#Pretendard-Bold-6d" transform="translate(306.445312 0)"/>
     <use xlink:href="#Pretendard-Bold-4c" transform="translate(394.335938 0)"/>
    </g>
   </g>
   <g id="text_26">
    <!-- 평균 절대오차 비교 -->
    <g style="fill: #111827" transform="translate(583.826947 61.68) scale(0.26 -0.26)">
     <defs>
      <path id="Pretendard-Bold-c808" d="M 3419 4256 
L 2288 4256 
Q 2300 3963 2447 3684 
Q 2594 3406 2883 3186 
Q 3172 2966 3588 2844 
L 3219 2213 
Q 2750 2347 2415 2614 
Q 2081 2881 1888 3247 
Q 1684 2841 1334 2541 
Q 984 2241 506 2094 
L 119 2713 
Q 547 2850 850 3095 
Q 1153 3341 1311 3642 
Q 1469 3944 1484 4256 
L 338 4256 
L 338 4894 
L 3419 4894 
L 3419 4256 
z
M 4963 2219 
L 4169 2219 
L 4169 3313 
L 3275 3313 
L 3275 3944 
L 4169 3944 
L 4169 5113 
L 4963 5113 
L 4963 2219 
z
M 4963 463 
L 1981 463 
L 1981 100 
L 5131 100 
L 5131 -519 
L 1181 -519 
L 1181 1044 
L 4169 1044 
L 4169 1369 
L 1175 1369 
L 1175 2000 
L 4963 2000 
L 4963 463 
z
" transform="scale(0.015625)"/>
     </defs>
     <use xlink:href="#Pretendard-Bold-d3c9"/>
     <use xlink:href="#Pretendard-Bold-ade0" transform="translate(86.425781 0)"/>
     <use xlink:href="#Pretendard-Bold-20" transform="translate(172.851562 0)"/>
     <use xlink:href="#Pretendard-Bold-c808" transform="translate(195.898438 0)"/>
     <use xlink:href="#Pretendard-Bold-b300" transform="translate(282.324219 0)"/>
     <use xlink:href="#Pretendard-Bold-c624" transform="translate(368.75 0)"/>
     <use xlink:href="#Pretendard-Bold-cc28" transform="translate(455.175781 0)"/>
     <use xlink:href="#Pretendard-Bold-20" transform="translate(541.601562 0)"/>
     <use xlink:href="#Pretendard-Bold-be44" transform="translate(564.648438 0)"/>
     <use xlink:href="#Pretendard-Bold-ad50" transform="translate(651.074219 0)"/>
    </g>
   </g>
  </g>
  <g id="text_27">
   <!-- 통합 모델보다 적정 종류별 모델에서 오차 감소 -->
   <g style="fill: #111827" transform="translate(167.937969 28.410937) scale(0.3 -0.3)">
    <defs>
     <path id="Pretendard-Bold-d1b5" d="M 5356 1556 
L 156 1556 
L 156 2181 
L 2356 2181 
L 2356 2531 
L 806 2531 
L 806 4975 
L 4750 4975 
L 4750 4363 
L 1606 4363 
L 1606 4044 
L 4619 4044 
L 4619 3469 
L 1606 3469 
L 1606 3144 
L 4800 3144 
L 4800 2531 
L 3156 2531 
L 3156 2181 
L 5356 2181 
L 5356 1556 
z
M 2756 1294 
Q 3381 1297 3825 1189 
Q 4269 1081 4501 872 
Q 4734 663 4738 363 
Q 4734 -94 4218 -334 
Q 3703 -575 2756 -575 
Q 1794 -575 1278 -334 
Q 763 -94 763 363 
Q 763 663 995 872 
Q 1228 1081 1675 1189 
Q 2122 1297 2756 1294 
z
M 2756 706 
Q 2141 706 1850 623 
Q 1559 541 1563 363 
Q 1559 181 1848 97 
Q 2138 13 2756 13 
Q 3359 13 3646 97 
Q 3934 181 3938 363 
Q 3934 541 3646 623 
Q 3359 706 2756 706 
z
" transform="scale(0.015625)"/>
     <path id="Pretendard-Bold-d569" d="M 4681 3744 
L 5450 3744 
L 5450 3081 
L 4681 3081 
L 4681 1781 
L 3881 1781 
L 3881 5113 
L 4681 5113 
L 4681 3744 
z
M 1750 1131 
L 3881 1131 
L 3881 1563 
L 4681 1563 
L 4681 -513 
L 956 -513 
L 956 1563 
L 1750 1563 
L 1750 1131 
z
M 3881 113 
L 3881 519 
L 1750 519 
L 1750 113 
L 3881 113 
z
M 3544 3988 
L 169 3988 
L 169 4613 
L 1463 4613 
L 1463 5150 
L 2256 5150 
L 2256 4613 
L 3544 4613 
L 3544 3988 
z
M 1856 3825 
Q 2266 3825 2584 3700 
Q 2903 3575 3079 3347 
Q 3256 3119 3256 2819 
Q 3256 2519 3079 2291 
Q 2903 2063 2584 1938 
Q 2266 1813 1856 1813 
Q 1441 1813 1120 1938 
Q 800 2063 622 2291 
Q 444 2519 444 2819 
Q 444 3119 622 3347 
Q 800 3575 1120 3700 
Q 1441 3825 1856 3825 
z
M 1856 3238 
Q 1566 3244 1394 3131 
Q 1222 3019 1225 2819 
Q 1222 2616 1394 2505 
Q 1566 2394 1856 2394 
Q 2150 2394 2325 2505 
Q 2500 2616 2500 2819 
Q 2500 3019 2323 3131 
Q 2147 3244 1856 3238 
z
" transform="scale(0.015625)"/>
     <path id="Pretendard-Bold-baa8" d="M 5375 88 
L 169 88 
L 169 744 
L 2363 744 
L 2363 1906 
L 719 1906 
L 719 4694 
L 4794 4694 
L 4794 1906 
L 3156 1906 
L 3156 744 
L 5375 744 
L 5375 88 
z
M 1506 2531 
L 4006 2531 
L 4006 4056 
L 1506 4056 
L 1506 2531 
z
" transform="scale(0.015625)"/>
     <path id="Pretendard-Bold-b378" d="M 5088 2131 
L 4331 2131 
L 4331 5106 
L 5088 5106 
L 5088 2131 
z
M 3944 2156 
L 3194 2156 
L 3194 3319 
L 2300 3319 
L 2300 3919 
L 3194 3919 
L 3194 5013 
L 3944 5013 
L 3944 2156 
z
M 2631 4213 
L 1206 4213 
L 1206 2906 
Q 1716 2913 2072 2936 
Q 2428 2959 2794 3019 
L 2844 2388 
Q 2400 2319 1958 2297 
Q 1516 2275 806 2275 
L 413 2275 
L 413 4838 
L 2631 4838 
L 2631 4213 
z
M 5088 438 
L 1963 438 
L 1963 113 
L 5256 113 
L 5256 -513 
L 1169 -513 
L 1169 1031 
L 4306 1031 
L 4306 1325 
L 1163 1325 
L 1163 1950 
L 5088 1950 
L 5088 438 
z
" transform="scale(0.015625)"/>
     <path id="Pretendard-Bold-bcf4" d="M 5375 88 
L 169 88 
L 169 738 
L 2363 738 
L 2363 1788 
L 719 1788 
L 719 4750 
L 1519 4750 
L 1519 3869 
L 4000 3869 
L 4000 4750 
L 4794 4750 
L 4794 1788 
L 3156 1788 
L 3156 738 
L 5375 738 
L 5375 88 
z
M 4000 2425 
L 4000 3231 
L 1519 3231 
L 1519 2425 
L 4000 2425 
z
" transform="scale(0.015625)"/>
     <path id="Pretendard-Bold-b2e4" d="M 4656 3000 
L 5494 3000 
L 5494 2350 
L 4656 2350 
L 4656 -588 
L 3856 -588 
L 3856 5113 
L 4656 5113 
L 4656 3000 
z
M 3063 3944 
L 1188 3944 
L 1188 1450 
Q 1859 1456 2387 1497 
Q 2916 1538 3450 1631 
L 3538 963 
Q 2966 866 2411 830 
Q 1856 794 1138 794 
L 875 794 
L 394 794 
L 394 4588 
L 3063 4588 
L 3063 3944 
z
" transform="scale(0.015625)"/>
     <path id="Pretendard-Bold-c801" d="M 3450 4163 
L 2319 4163 
Q 2322 3816 2464 3491 
Q 2606 3166 2898 2908 
Q 3191 2650 3625 2506 
L 3231 1894 
Q 2772 2041 2442 2331 
Q 2113 2622 1922 3019 
Q 1725 2575 1378 2253 
Q 1031 1931 544 1775 
L 138 2406 
Q 588 2550 894 2825 
Q 1200 3100 1350 3447 
Q 1500 3794 1506 4163 
L 363 4163 
L 363 4794 
L 3450 4794 
L 3450 4163 
z
M 4963 -575 
L 4169 -575 
L 4169 838 
L 1056 838 
L 1056 1475 
L 4963 1475 
L 4963 -575 
z
M 4963 1725 
L 4169 1725 
L 4169 3094 
L 3288 3094 
L 3288 3744 
L 4169 3744 
L 4169 5113 
L 4963 5113 
L 4963 1725 
z
" transform="scale(0.015625)"/>
     <path id="Pretendard-Bold-c815" d="M 4963 1738 
L 4169 1738 
L 4169 3081 
L 3281 3081 
L 3281 3725 
L 4169 3725 
L 4169 5113 
L 4963 5113 
L 4963 1738 
z
M 3019 1613 
Q 3625 1609 4064 1479 
Q 4503 1350 4740 1103 
Q 4978 856 4981 513 
Q 4978 172 4740 -75 
Q 4503 -322 4062 -451 
Q 3622 -581 3019 -581 
Q 2416 -581 1975 -451 
Q 1534 -322 1298 -75 
Q 1063 172 1063 513 
Q 1063 856 1298 1103 
Q 1534 1350 1973 1479 
Q 2413 1609 3019 1613 
z
M 3019 1000 
Q 1856 1000 1856 513 
Q 1856 269 2151 147 
Q 2447 25 3019 25 
Q 3591 25 3889 148 
Q 4188 272 4188 513 
Q 4188 1000 3019 1000 
z
M 3450 4131 
L 2319 4131 
Q 2328 3788 2473 3470 
Q 2619 3153 2908 2900 
Q 3197 2647 3625 2506 
L 3231 1881 
Q 2775 2028 2445 2320 
Q 2116 2613 1925 3009 
Q 1728 2559 1381 2229 
Q 1034 1900 544 1731 
L 131 2363 
Q 581 2513 886 2789 
Q 1191 3066 1342 3412 
Q 1494 3759 1506 4131 
L 363 4131 
L 363 4769 
L 3450 4769 
L 3450 4131 
z
" transform="scale(0.015625)"/>
     <path id="Pretendard-Bold-c885" d="M 3150 2394 
L 5356 2394 
L 5356 1750 
L 169 1750 
L 169 2394 
L 2363 2394 
L 2363 3075 
L 3150 3075 
L 3150 2394 
z
M 2756 1438 
Q 3375 1438 3819 1320 
Q 4263 1203 4498 978 
Q 4734 753 4738 431 
Q 4734 109 4498 -116 
Q 4263 -341 3819 -458 
Q 3375 -575 2756 -575 
Q 2131 -575 1684 -458 
Q 1238 -341 1000 -116 
Q 763 109 763 431 
Q 763 753 1000 978 
Q 1238 1203 1684 1320 
Q 2131 1438 2756 1438 
z
M 2756 831 
Q 1566 831 1575 431 
Q 1572 222 1864 120 
Q 2156 19 2756 19 
Q 3341 19 3637 120 
Q 3934 222 3938 431 
Q 3928 831 2756 831 
z
M 4888 4244 
L 3341 4244 
Q 3416 4041 3639 3861 
Q 3863 3681 4241 3551 
Q 4619 3422 5131 3375 
L 4850 2750 
Q 4063 2828 3525 3104 
Q 2988 3381 2756 3803 
Q 2522 3381 1990 3104 
Q 1459 2828 675 2750 
L 394 3375 
Q 903 3422 1279 3550 
Q 1656 3678 1881 3858 
Q 2106 4038 2178 4244 
L 644 4244 
L 644 4869 
L 4888 4869 
L 4888 4244 
z
" transform="scale(0.015625)"/>
     <path id="Pretendard-Bold-b958" d="M 5369 1150 
L 4169 1150 
L 4169 -575 
L 3363 -575 
L 3363 1150 
L 2175 1150 
L 2175 -575 
L 1381 -575 
L 1381 1150 
L 163 1150 
L 163 1775 
L 5369 1775 
L 5369 1150 
z
M 4769 3288 
L 1588 3288 
L 1588 2825 
L 4900 2825 
L 4900 2188 
L 781 2188 
L 781 3869 
L 3950 3869 
L 3950 4294 
L 763 4294 
L 763 4944 
L 4769 4944 
L 4769 3288 
z
" transform="scale(0.015625)"/>
     <path id="Pretendard-Bold-bcc4" d="M 4963 2188 
L 4169 2188 
L 4169 2756 
L 3119 2756 
L 3119 2350 
L 413 2350 
L 413 4869 
L 1213 4869 
L 1213 4206 
L 2331 4206 
L 2331 4869 
L 3119 4869 
L 3119 4388 
L 4169 4388 
L 4169 5113 
L 4963 5113 
L 4963 2188 
z
M 4963 456 
L 1981 456 
L 1981 113 
L 5131 113 
L 5131 -513 
L 1181 -513 
L 1181 1038 
L 4169 1038 
L 4169 1363 
L 1175 1363 
L 1175 1975 
L 4963 1975 
L 4963 456 
z
M 2331 2975 
L 2331 3600 
L 1213 3600 
L 1213 2975 
L 2331 2975 
z
M 4169 3356 
L 4169 3794 
L 3119 3794 
L 3119 3356 
L 4169 3356 
z
" transform="scale(0.015625)"/>
     <path id="Pretendard-Bold-c5d0" d="M 5100 -575 
L 4338 -575 
L 4338 5113 
L 5100 5113 
L 5100 -575 
z
M 3913 -313 
L 3163 -313 
L 3163 2375 
L 2703 2375 
Q 2669 1819 2505 1416 
Q 2341 1013 2072 797 
Q 1803 581 1456 581 
Q 1084 581 804 831 
Q 525 1081 372 1548 
Q 219 2016 219 2650 
Q 219 3281 372 3745 
Q 525 4209 804 4457 
Q 1084 4706 1456 4706 
Q 1797 4706 2061 4503 
Q 2325 4300 2489 3917 
Q 2653 3534 2697 3006 
L 3163 3006 
L 3163 5031 
L 3913 5031 
L 3913 -313 
z
M 1456 3956 
Q 1213 3956 1083 3625 
Q 953 3294 956 2650 
Q 953 2003 1083 1673 
Q 1213 1344 1456 1350 
Q 1703 1344 1839 1673 
Q 1975 2003 1975 2650 
Q 1975 3294 1839 3625 
Q 1703 3956 1456 3956 
z
" transform="scale(0.015625)"/>
     <path id="Pretendard-Bold-c11c" d="M 2319 3825 
Q 2319 3275 2470 2776 
Q 2622 2278 2931 1892 
Q 3241 1506 3700 1306 
L 3213 669 
Q 2753 894 2429 1298 
Q 2106 1703 1922 2244 
Q 1731 1666 1395 1234 
Q 1059 803 588 569 
L 88 1219 
Q 556 1428 875 1834 
Q 1194 2241 1351 2756 
Q 1509 3272 1513 3825 
L 1513 4675 
L 2319 4675 
L 2319 3825 
z
M 4969 -588 
L 4181 -588 
L 4181 2681 
L 3063 2681 
L 3063 3325 
L 4181 3325 
L 4181 5113 
L 4969 5113 
L 4969 -588 
z
" transform="scale(0.015625)"/>
     <path id="Pretendard-Bold-ac10" d="M 4681 3869 
L 5450 3869 
L 5450 3213 
L 4681 3213 
L 4681 1931 
L 3881 1931 
L 3881 5113 
L 4681 5113 
L 4681 3869 
z
M 3088 4781 
Q 3084 3659 2398 2903 
Q 1713 2147 425 1806 
L 106 2438 
Q 1044 2669 1580 3114 
Q 2116 3559 2216 4144 
L 388 4144 
L 388 4781 
L 3088 4781 
z
M 4681 -506 
L 963 -506 
L 963 1719 
L 4681 1719 
L 4681 -506 
z
M 1756 119 
L 3894 119 
L 3894 1075 
L 1756 1075 
L 1756 119 
z
" transform="scale(0.015625)"/>
     <path id="Pretendard-Bold-c18c" d="M 5375 106 
L 169 106 
L 169 744 
L 2344 744 
L 2344 2031 
L 3138 2031 
L 3138 744 
L 5375 744 
L 5375 106 
z
M 3163 4381 
Q 3163 3966 3405 3573 
Q 3647 3181 4108 2895 
Q 4569 2609 5194 2513 
L 4856 1850 
Q 4119 1984 3572 2359 
Q 3025 2734 2738 3275 
Q 2450 2734 1906 2357 
Q 1363 1981 631 1850 
L 294 2513 
Q 913 2609 1370 2895 
Q 1828 3181 2068 3575 
Q 2309 3969 2313 4381 
L 2313 4788 
L 3163 4788 
L 3163 4381 
z
" transform="scale(0.015625)"/>
    </defs>
    <use xlink:href="#Pretendard-Bold-d1b5"/>
    <use xlink:href="#Pretendard-Bold-d569" transform="translate(86.425781 0)"/>
    <use xlink:href="#Pretendard-Bold-20" transform="translate(172.851562 0)"/>
    <use xlink:href="#Pretendard-Bold-baa8" transform="translate(195.898438 0)"/>
    <use xlink:href="#Pretendard-Bold-b378" transform="translate(282.324219 0)"/>
    <use xlink:href="#Pretendard-Bold-bcf4" transform="translate(368.75 0)"/>
    <use xlink:href="#Pretendard-Bold-b2e4" transform="translate(455.175781 0)"/>
    <use xlink:href="#Pretendard-Bold-20" transform="translate(541.601562 0)"/>
    <use xlink:href="#Pretendard-Bold-c801" transform="translate(564.648438 0)"/>
    <use xlink:href="#Pretendard-Bold-c815" transform="translate(651.074219 0)"/>
    <use xlink:href="#Pretendard-Bold-20" transform="translate(737.5 0)"/>
    <use xlink:href="#Pretendard-Bold-c885" transform="translate(760.546875 0)"/>
    <use xlink:href="#Pretendard-Bold-b958" transform="translate(846.972656 0)"/>
    <use xlink:href="#Pretendard-Bold-bcc4" transform="translate(933.398438 0)"/>
    <use xlink:href="#Pretendard-Bold-20" transform="translate(1019.824219 0)"/>
    <use xlink:href="#Pretendard-Bold-baa8" transform="translate(1042.871094 0)"/>
    <use xlink:href="#Pretendard-Bold-b378" transform="translate(1129.296875 0)"/>
    <use xlink:href="#Pretendard-Bold-c5d0" transform="translate(1215.722656 0)"/>
    <use xlink:href="#Pretendard-Bold-c11c" transform="translate(1302.148438 0)"/>
    <use xlink:href="#Pretendard-Bold-20" transform="translate(1388.574219 0)"/>
    <use xlink:href="#Pretendard-Bold-c624" transform="translate(1411.621094 0)"/>
    <use xlink:href="#Pretendard-Bold-cc28" transform="translate(1498.046875 0)"/>
    <use xlink:href="#Pretendard-Bold-20" transform="translate(1584.472656 0)"/>
    <use xlink:href="#Pretendard-Bold-ac10" transform="translate(1607.519531 0)"/>
    <use xlink:href="#Pretendard-Bold-c18c" transform="translate(1693.945312 0)"/>
   </g>
  </g>
  <g id="text_28">
   <!-- 적정 종류를 실험 전에 알고 있으므로, 실제 적용 시 종류별 모델을 선택할 수 있다. -->
   <g style="fill: #475569" transform="translate(183.55125 430.56) scale(0.16 -0.16)">
    <defs>
     <path id="Pretendard-Regular-b97c" d="M 5306 2081 
L 219 2081 
L 219 2469 
L 5306 2469 
L 5306 2081 
z
M 4669 456 
L 1331 456 
L 1331 -75 
L 4850 -75 
L 4850 -431 
L 838 -431 
L 838 794 
L 4181 794 
L 4181 1269 
L 831 1269 
L 831 1638 
L 4669 1638 
L 4669 456 
z
M 4650 3731 
L 1369 3731 
L 1369 3244 
L 4750 3244 
L 4750 2888 
L 881 2888 
L 881 4069 
L 4156 4069 
L 4156 4525 
L 863 4525 
L 863 4881 
L 4650 4881 
L 4650 3731 
z
" transform="scale(0.015625)"/>
     <path id="Pretendard-Regular-c2e4" d="M 4806 2169 
L 4325 2169 
L 4325 5050 
L 4806 5050 
L 4806 2169 
z
M 4813 556 
L 1694 556 
L 1694 -44 
L 5013 -44 
L 5013 -444 
L 1213 -444 
L 1213 938 
L 4325 938 
L 4325 1494 
L 1200 1494 
L 1200 1888 
L 4813 1888 
L 4813 556 
z
M 2194 4463 
Q 2191 4075 2372 3725 
Q 2553 3375 2876 3111 
Q 3200 2847 3613 2713 
L 3369 2331 
Q 2878 2497 2508 2833 
Q 2138 3169 1950 3619 
Q 1763 3134 1388 2768 
Q 1013 2403 519 2225 
L 263 2613 
Q 678 2759 1003 3039 
Q 1328 3319 1511 3689 
Q 1694 4059 1694 4463 
L 1694 4888 
L 2194 4888 
L 2194 4463 
z
" transform="scale(0.015625)"/>
     <path id="Pretendard-Regular-d5d8" d="M 4831 1681 
L 4338 1681 
L 4338 2950 
L 3394 2950 
L 3394 3356 
L 4338 3356 
L 4338 5050 
L 4831 5050 
L 4831 1681 
z
M 4831 -431 
L 1200 -431 
L 1200 1381 
L 4831 1381 
L 4831 -431 
z
M 1688 -31 
L 4350 -31 
L 4350 988 
L 1688 988 
L 1688 -31 
z
M 3475 4063 
L 231 4063 
L 231 4463 
L 1613 4463 
L 1613 5100 
L 2094 5100 
L 2094 4463 
L 3475 4463 
L 3475 4063 
z
M 1850 3775 
Q 2225 3775 2517 3650 
Q 2809 3525 2975 3300 
Q 3141 3075 3144 2788 
Q 3141 2491 2977 2266 
Q 2813 2041 2519 1917 
Q 2225 1794 1850 1794 
Q 1475 1794 1183 1917 
Q 891 2041 727 2266 
Q 563 2491 563 2788 
Q 563 3075 727 3300 
Q 891 3525 1183 3650 
Q 1475 3775 1850 3775 
z
M 1850 3394 
Q 1613 3394 1427 3317 
Q 1241 3241 1136 3102 
Q 1031 2963 1031 2788 
Q 1031 2606 1134 2467 
Q 1238 2328 1423 2250 
Q 1609 2172 1850 2169 
Q 2091 2172 2277 2250 
Q 2463 2328 2566 2467 
Q 2669 2606 2669 2788 
Q 2669 2963 2564 3102 
Q 2459 3241 2273 3317 
Q 2088 3394 1850 3394 
z
" transform="scale(0.015625)"/>
     <path id="Pretendard-Regular-c804" d="M 4831 969 
L 4338 969 
L 4338 3100 
L 3194 3100 
L 3194 3506 
L 4338 3506 
L 4338 5044 
L 4831 5044 
L 4831 969 
z
M 4988 -388 
L 1263 -388 
L 1263 1338 
L 1756 1338 
L 1756 25 
L 4988 25 
L 4988 -388 
z
M 2156 3900 
Q 2156 3544 2329 3205 
Q 2503 2866 2814 2603 
Q 3125 2341 3525 2206 
L 3269 1813 
Q 2803 1981 2451 2314 
Q 2100 2647 1919 3081 
Q 1738 2600 1369 2233 
Q 1000 1866 506 1681 
L 250 2081 
Q 656 2225 978 2501 
Q 1300 2778 1481 3142 
Q 1663 3506 1663 3900 
L 1663 4188 
L 406 4188 
L 406 4594 
L 3400 4594 
L 3400 4188 
L 2156 4188 
L 2156 3900 
z
" transform="scale(0.015625)"/>
     <path id="Pretendard-Regular-c5d0" d="M 4988 -506 
L 4513 -506 
L 4513 5050 
L 4988 5050 
L 4988 -506 
z
M 3869 -225 
L 3400 -225 
L 3400 2475 
L 2684 2475 
Q 2659 1938 2506 1542 
Q 2353 1147 2090 933 
Q 1828 719 1488 719 
Q 1128 719 858 955 
Q 588 1191 441 1628 
Q 294 2066 294 2650 
Q 294 3234 441 3671 
Q 588 4109 858 4345 
Q 1128 4581 1488 4581 
Q 1822 4581 2081 4375 
Q 2341 4169 2495 3784 
Q 2650 3400 2681 2881 
L 3400 2881 
L 3400 4931 
L 3869 4931 
L 3869 -225 
z
M 1488 4119 
Q 1263 4119 1097 3941 
Q 931 3763 842 3430 
Q 753 3097 756 2650 
Q 753 2203 842 1872 
Q 931 1541 1098 1362 
Q 1266 1184 1488 1188 
Q 1709 1184 1876 1362 
Q 2044 1541 2134 1872 
Q 2225 2203 2225 2650 
Q 2225 3100 2134 3431 
Q 2044 3763 1878 3941 
Q 1713 4119 1488 4119 
z
" transform="scale(0.015625)"/>
     <path id="Pretendard-Regular-c54c" d="M 4569 3844 
L 5406 3844 
L 5406 3431 
L 4569 3431 
L 4569 2219 
L 4081 2219 
L 4081 5050 
L 4569 5050 
L 4569 3844 
z
M 4569 600 
L 1519 600 
L 1519 -38 
L 4775 -38 
L 4775 -431 
L 1038 -431 
L 1038 975 
L 4081 975 
L 4081 1563 
L 1025 1563 
L 1025 1956 
L 4569 1956 
L 4569 600 
z
M 1775 4844 
Q 2191 4841 2519 4684 
Q 2847 4528 3033 4248 
Q 3219 3969 3219 3613 
Q 3219 3253 3033 2970 
Q 2847 2688 2519 2531 
Q 2191 2375 1775 2375 
Q 1363 2375 1033 2533 
Q 703 2691 515 2972 
Q 328 3253 331 3613 
Q 328 3969 515 4248 
Q 703 4528 1033 4684 
Q 1363 4841 1775 4844 
z
M 1775 4431 
Q 1500 4434 1279 4329 
Q 1059 4225 934 4037 
Q 809 3850 813 3613 
Q 809 3372 934 3181 
Q 1059 2991 1279 2883 
Q 1500 2775 1775 2775 
Q 2050 2775 2269 2883 
Q 2488 2991 2613 3181 
Q 2738 3372 2738 3613 
Q 2738 3850 2613 4037 
Q 2488 4225 2269 4329 
Q 2050 4434 1775 4431 
z
" transform="scale(0.015625)"/>
     <path id="Pretendard-Regular-ace0" d="M 4681 3931 
L 4681 3863 
Q 4675 3175 4639 2629 
Q 4603 2084 4475 1369 
L 3975 1425 
Q 4075 1919 4120 2356 
Q 4166 2794 4177 3134 
Q 4188 3475 4188 3931 
L 4188 4081 
L 763 4081 
L 763 4488 
L 4681 4488 
L 4681 3931 
z
M 5288 281 
L 225 281 
L 225 688 
L 2213 688 
L 2213 2675 
L 2694 2675 
L 2694 688 
L 5288 688 
L 5288 281 
z
" transform="scale(0.015625)"/>
     <path id="Pretendard-Regular-c788" d="M 2106 1319 
Q 2106 934 2311 578 
Q 2516 222 2897 6 
Q 3150 166 3334 389 
Q 3519 613 3612 855 
Q 3706 1097 3706 1319 
L 3706 1625 
L 4188 1625 
L 4188 1319 
Q 4188 1031 4323 757 
Q 4459 484 4715 267 
Q 4972 50 5319 -69 
L 5075 -431 
Q 4666 -288 4375 -12 
Q 4084 263 3938 619 
Q 3800 263 3540 -28 
Q 3281 -319 2913 -475 
Q 2522 -325 2258 -42 
Q 1994 241 1863 606 
Q 1709 259 1425 -12 
Q 1141 -284 750 -431 
L 500 -69 
Q 841 59 1095 282 
Q 1350 506 1489 778 
Q 1628 1050 1631 1319 
L 1631 1625 
L 2106 1625 
L 2106 1319 
z
M 4813 1869 
L 4325 1869 
L 4325 5044 
L 4813 5044 
L 4813 1869 
z
M 1813 4719 
Q 2231 4719 2562 4555 
Q 2894 4391 3081 4095 
Q 3269 3800 3269 3419 
Q 3269 3044 3081 2750 
Q 2894 2456 2562 2293 
Q 2231 2131 1813 2131 
Q 1394 2131 1062 2293 
Q 731 2456 543 2750 
Q 356 3044 356 3419 
Q 356 3800 543 4095 
Q 731 4391 1062 4555 
Q 1394 4719 1813 4719 
z
M 1813 4300 
Q 1531 4303 1307 4190 
Q 1084 4078 959 3876 
Q 834 3675 838 3419 
Q 834 3166 959 2966 
Q 1084 2766 1307 2653 
Q 1531 2541 1813 2538 
Q 2091 2541 2312 2653 
Q 2534 2766 2661 2966 
Q 2788 3166 2788 3419 
Q 2788 3675 2661 3876 
Q 2534 4078 2312 4190 
Q 2091 4303 1813 4300 
z
" transform="scale(0.015625)"/>
     <path id="Pretendard-Regular-c73c" d="M 2756 4688 
Q 3334 4688 3796 4497 
Q 4259 4306 4523 3959 
Q 4788 3613 4788 3163 
Q 4788 2709 4523 2361 
Q 4259 2013 3796 1823 
Q 3334 1634 2756 1638 
Q 2178 1634 1715 1823 
Q 1253 2013 989 2361 
Q 725 2709 725 3163 
Q 725 3613 989 3959 
Q 1253 4306 1715 4497 
Q 2178 4688 2756 4688 
z
M 2756 4288 
Q 2313 4291 1955 4147 
Q 1597 4003 1394 3745 
Q 1191 3488 1194 3163 
Q 1191 2831 1394 2575 
Q 1597 2319 1955 2178 
Q 2313 2038 2756 2038 
Q 3197 2038 3551 2178 
Q 3906 2319 4109 2575 
Q 4313 2831 4313 3163 
Q 4313 3488 4109 3745 
Q 3906 4003 3551 4147 
Q 3197 4291 2756 4288 
z
M 5313 231 
L 225 231 
L 225 644 
L 5313 644 
L 5313 231 
z
" transform="scale(0.015625)"/>
     <path id="Pretendard-Regular-bbc0" d="M 5313 231 
L 225 231 
L 225 644 
L 5313 644 
L 5313 231 
z
M 4681 1938 
L 825 1938 
L 825 4563 
L 4681 4563 
L 4681 1938 
z
M 1306 2325 
L 4206 2325 
L 4206 4156 
L 1306 4156 
L 1306 2325 
z
" transform="scale(0.015625)"/>
     <path id="Pretendard-Regular-b85c" d="M 5313 181 
L 225 181 
L 225 594 
L 2513 594 
L 2513 1644 
L 863 1644 
L 863 3356 
L 4188 3356 
L 4188 4231 
L 850 4231 
L 850 4638 
L 4669 4638 
L 4669 2956 
L 1350 2956 
L 1350 2050 
L 4800 2050 
L 4800 1644 
L 2994 1644 
L 2994 594 
L 5313 594 
L 5313 181 
z
" transform="scale(0.015625)"/>
     <path id="Pretendard-Regular-2c" d="M 654 -1277 
L 191 -1277 
L 535 423 
L 1141 423 
L 654 -1277 
z
" transform="scale(0.015625)"/>
     <path id="Pretendard-Regular-c81c" d="M 4975 -506 
L 4506 -506 
L 4506 5050 
L 4975 5050 
L 4975 -506 
z
M 3850 -219 
L 3388 -219 
L 3388 2644 
L 2450 2644 
L 2450 3044 
L 3388 3044 
L 3388 4913 
L 3850 4913 
L 3850 -219 
z
M 1856 3463 
Q 1856 2978 1997 2517 
Q 2138 2056 2409 1686 
Q 2681 1316 3056 1100 
L 2756 738 
Q 2353 978 2065 1404 
Q 1778 1831 1628 2372 
Q 1475 1788 1176 1325 
Q 878 863 469 606 
L 156 975 
Q 534 1200 812 1590 
Q 1091 1981 1236 2467 
Q 1381 2953 1381 3463 
L 1381 3988 
L 313 3988 
L 313 4394 
L 2875 4394 
L 2875 3988 
L 1856 3988 
L 1856 3463 
z
" transform="scale(0.015625)"/>
     <path id="Pretendard-Regular-c6a9" d="M 5288 1894 
L 225 1894 
L 225 2300 
L 1481 2300 
L 1481 3081 
Q 1144 3213 966 3423 
Q 788 3634 788 3913 
Q 788 4238 1025 4469 
Q 1263 4700 1705 4822 
Q 2147 4944 2756 4944 
Q 3359 4944 3801 4822 
Q 4244 4700 4481 4469 
Q 4719 4238 4719 3913 
Q 4719 3638 4542 3427 
Q 4366 3216 4031 3084 
L 4031 2300 
L 5288 2300 
L 5288 1894 
z
M 2756 1469 
Q 3353 1469 3781 1356 
Q 4209 1244 4437 1023 
Q 4666 803 4669 488 
Q 4666 175 4437 -45 
Q 4209 -266 3781 -380 
Q 3353 -494 2756 -494 
Q 2153 -494 1723 -380 
Q 1294 -266 1066 -45 
Q 838 175 838 488 
Q 838 803 1064 1023 
Q 1291 1244 1722 1356 
Q 2153 1469 2756 1469 
z
M 2756 1094 
Q 2081 1088 1707 930 
Q 1334 772 1338 488 
Q 1334 300 1503 165 
Q 1672 31 1992 -41 
Q 2313 -113 2756 -113 
Q 3194 -113 3514 -41 
Q 3834 31 4004 165 
Q 4175 300 4175 488 
Q 4175 772 3798 930 
Q 3422 1088 2756 1094 
z
M 2756 4556 
Q 2306 4556 1975 4478 
Q 1644 4400 1467 4254 
Q 1291 4109 1294 3913 
Q 1291 3713 1467 3567 
Q 1644 3422 1973 3345 
Q 2303 3269 2756 3269 
Q 3206 3269 3534 3345 
Q 3863 3422 4041 3567 
Q 4219 3713 4219 3913 
Q 4219 4109 4041 4254 
Q 3863 4400 3533 4478 
Q 3203 4556 2756 4556 
z
M 3544 2300 
L 3544 2950 
Q 3184 2888 2756 2888 
Q 2328 2888 1969 2950 
L 1969 2300 
L 3544 2300 
z
" transform="scale(0.015625)"/>
     <path id="Pretendard-Regular-c2dc" d="M 2200 3556 
Q 2197 3063 2400 2577 
Q 2603 2091 2950 1712 
Q 3297 1334 3706 1150 
L 3406 763 
Q 2931 997 2545 1461 
Q 2159 1925 1963 2516 
Q 1769 1888 1381 1392 
Q 994 897 506 650 
L 194 1063 
Q 603 1253 950 1642 
Q 1297 2031 1503 2536 
Q 1709 3041 1713 3556 
L 1713 4569 
L 2200 4569 
L 2200 3556 
z
M 4806 -519 
L 4313 -519 
L 4313 5050 
L 4806 5050 
L 4806 -519 
z
" transform="scale(0.015625)"/>
     <path id="Pretendard-Regular-c744" d="M 2756 4950 
Q 3375 4950 3815 4839 
Q 4256 4728 4487 4514 
Q 4719 4300 4719 3994 
Q 4719 3525 4206 3275 
Q 3694 3025 2756 3019 
Q 2138 3022 1695 3134 
Q 1253 3247 1020 3464 
Q 788 3681 788 3994 
Q 788 4300 1020 4514 
Q 1253 4728 1695 4839 
Q 2138 4950 2756 4950 
z
M 2756 4581 
Q 2297 4581 1969 4511 
Q 1641 4441 1469 4308 
Q 1297 4175 1300 3994 
Q 1297 3706 1678 3550 
Q 2059 3394 2756 3394 
Q 3450 3394 3834 3550 
Q 4219 3706 4219 3994 
Q 4219 4175 4044 4306 
Q 3869 4438 3541 4509 
Q 3213 4581 2756 4581 
z
M 5288 2244 
L 225 2244 
L 225 2644 
L 5288 2644 
L 5288 2244 
z
M 4638 519 
L 1338 519 
L 1338 -56 
L 4806 -56 
L 4806 -444 
L 850 -444 
L 850 881 
L 4156 881 
L 4156 1388 
L 838 1388 
L 838 1763 
L 4638 1763 
L 4638 519 
z
" transform="scale(0.015625)"/>
     <path id="Pretendard-Regular-c120" d="M 2125 4000 
Q 2125 3616 2298 3258 
Q 2472 2900 2784 2623 
Q 3097 2347 3500 2200 
L 3225 1819 
Q 2769 2000 2420 2348 
Q 2072 2697 1891 3150 
Q 1716 2647 1350 2262 
Q 984 1878 494 1681 
L 231 2081 
Q 644 2234 962 2528 
Q 1281 2822 1461 3209 
Q 1641 3597 1644 4019 
L 1644 4706 
L 2125 4706 
L 2125 4000 
z
M 4831 881 
L 4338 881 
L 4338 3325 
L 3100 3325 
L 3100 3738 
L 4338 3738 
L 4338 5044 
L 4831 5044 
L 4831 881 
z
M 4956 -388 
L 1238 -388 
L 1238 1356 
L 1731 1356 
L 1731 25 
L 4956 25 
L 4956 -388 
z
" transform="scale(0.015625)"/>
     <path id="Pretendard-Regular-d0dd" d="M 2631 4231 
L 944 4231 
L 944 3538 
L 2569 3538 
L 2569 3150 
L 944 3150 
L 944 2381 
Q 1584 2384 2006 2415 
Q 2428 2447 2856 2531 
L 2906 2125 
Q 2431 2034 1979 2001 
Q 1528 1969 825 1969 
L 475 1969 
L 475 4644 
L 2631 4644 
L 2631 4231 
z
M 4944 1675 
L 4475 1675 
L 4475 3194 
L 3694 3194 
L 3694 1713 
L 3238 1713 
L 3238 4938 
L 3694 4938 
L 3694 3594 
L 4475 3594 
L 4475 5044 
L 4944 5044 
L 4944 1675 
z
M 4944 -506 
L 4463 -506 
L 4463 988 
L 1200 988 
L 1200 1388 
L 4944 1388 
L 4944 -506 
z
" transform="scale(0.015625)"/>
     <path id="Pretendard-Regular-d560" d="M 4569 3719 
L 5413 3719 
L 5413 3313 
L 4569 3313 
L 4569 1994 
L 4081 1994 
L 4081 5069 
L 4569 5069 
L 4569 3719 
z
M 4569 475 
L 1519 475 
L 1519 -69 
L 4775 -69 
L 4775 -444 
L 1038 -444 
L 1038 838 
L 4081 838 
L 4081 1338 
L 1025 1338 
L 1025 1706 
L 4569 1706 
L 4569 475 
z
M 3550 4150 
L 238 4150 
L 238 4544 
L 1650 4544 
L 1650 5106 
L 2138 5106 
L 2138 4544 
L 3550 4544 
L 3550 4150 
z
M 1894 3900 
Q 2294 3900 2595 3789 
Q 2897 3678 3062 3472 
Q 3228 3266 3231 2988 
Q 3228 2709 3062 2503 
Q 2897 2297 2595 2186 
Q 2294 2075 1894 2075 
Q 1491 2075 1186 2186 
Q 881 2297 717 2503 
Q 553 2709 556 2988 
Q 553 3266 717 3472 
Q 881 3678 1186 3789 
Q 1491 3900 1894 3900 
z
M 1894 3538 
Q 1634 3538 1436 3469 
Q 1238 3400 1130 3275 
Q 1022 3150 1025 2988 
Q 1022 2822 1130 2698 
Q 1238 2575 1434 2509 
Q 1631 2444 1894 2444 
Q 2291 2444 2528 2589 
Q 2766 2734 2769 2988 
Q 2766 3153 2656 3276 
Q 2547 3400 2350 3469 
Q 2153 3538 1894 3538 
z
" transform="scale(0.015625)"/>
     <path id="Pretendard-Regular-c218" d="M 3013 4531 
Q 3013 4156 3305 3812 
Q 3597 3469 4065 3234 
Q 4534 3000 5038 2931 
L 4838 2531 
Q 4400 2603 3990 2783 
Q 3581 2963 3259 3233 
Q 2938 3503 2763 3834 
Q 2591 3503 2267 3233 
Q 1944 2963 1534 2783 
Q 1125 2603 688 2531 
L 488 2931 
Q 994 3000 1459 3233 
Q 1925 3466 2215 3808 
Q 2506 4150 2506 4531 
L 2506 4850 
L 3013 4850 
L 3013 4531 
z
M 5288 1506 
L 2988 1506 
L 2988 -506 
L 2506 -506 
L 2506 1506 
L 225 1506 
L 225 1919 
L 5288 1919 
L 5288 1506 
z
" transform="scale(0.015625)"/>
     <path id="Pretendard-Regular-b2e4" d="M 4525 2850 
L 5456 2850 
L 5456 2438 
L 4525 2438 
L 4525 -519 
L 4038 -519 
L 4038 5050 
L 4525 5050 
L 4525 2850 
z
M 3063 4100 
L 956 4100 
L 956 1288 
Q 1734 1288 2315 1331 
Q 2897 1375 3500 1488 
L 3563 1063 
Q 2947 950 2353 912 
Q 1759 875 906 875 
L 469 875 
L 469 4506 
L 3063 4506 
L 3063 4100 
z
" transform="scale(0.015625)"/>
    </defs>
    <use xlink:href="#Pretendard-Regular-c801"/>
    <use xlink:href="#Pretendard-Regular-c815" transform="translate(86.425781 0)"/>
    <use xlink:href="#Pretendard-Regular-20" transform="translate(172.851562 0)"/>
    <use xlink:href="#Pretendard-Regular-c885" transform="translate(197.949219 0)"/>
    <use xlink:href="#Pretendard-Regular-b958" transform="translate(284.375 0)"/>
    <use xlink:href="#Pretendard-Regular-b97c" transform="translate(370.800781 0)"/>
    <use xlink:href="#Pretendard-Regular-20" transform="translate(457.226562 0)"/>
    <use xlink:href="#Pretendard-Regular-c2e4" transform="translate(482.324219 0)"/>
    <use xlink:href="#Pretendard-Regular-d5d8" transform="translate(568.75 0)"/>
    <use xlink:href="#Pretendard-Regular-20" transform="translate(655.175781 0)"/>
    <use xlink:href="#Pretendard-Regular-c804" transform="translate(680.273438 0)"/>
    <use xlink:href="#Pretendard-Regular-c5d0" transform="translate(766.699219 0)"/>
    <use xlink:href="#Pretendard-Regular-20" transform="translate(853.125 0)"/>
    <use xlink:href="#Pretendard-Regular-c54c" transform="translate(878.222656 0)"/>
    <use xlink:href="#Pretendard-Regular-ace0" transform="translate(964.648438 0)"/>
    <use xlink:href="#Pretendard-Regular-20" transform="translate(1051.074219 0)"/>
    <use xlink:href="#Pretendard-Regular-c788" transform="translate(1076.171875 0)"/>
    <use xlink:href="#Pretendard-Regular-c73c" transform="translate(1162.597656 0)"/>
    <use xlink:href="#Pretendard-Regular-bbc0" transform="translate(1249.023438 0)"/>
    <use xlink:href="#Pretendard-Regular-b85c" transform="translate(1335.449219 0)"/>
    <use xlink:href="#Pretendard-Regular-2c" transform="translate(1421.875 0)"/>
    <use xlink:href="#Pretendard-Regular-20" transform="translate(1447.65625 0)"/>
    <use xlink:href="#Pretendard-Regular-c2e4" transform="translate(1472.753906 0)"/>
    <use xlink:href="#Pretendard-Regular-c81c" transform="translate(1559.179688 0)"/>
    <use xlink:href="#Pretendard-Regular-20" transform="translate(1645.605469 0)"/>
    <use xlink:href="#Pretendard-Regular-c801" transform="translate(1670.703125 0)"/>
    <use xlink:href="#Pretendard-Regular-c6a9" transform="translate(1757.128906 0)"/>
    <use xlink:href="#Pretendard-Regular-20" transform="translate(1843.554688 0)"/>
    <use xlink:href="#Pretendard-Regular-c2dc" transform="translate(1868.652344 0)"/>
    <use xlink:href="#Pretendard-Regular-20" transform="translate(1955.078125 0)"/>
    <use xlink:href="#Pretendard-Regular-c885" transform="translate(1980.175781 0)"/>
    <use xlink:href="#Pretendard-Regular-b958" transform="translate(2066.601562 0)"/>
    <use xlink:href="#Pretendard-Regular-bcc4" transform="translate(2153.027344 0)"/>
    <use xlink:href="#Pretendard-Regular-20" transform="translate(2239.453125 0)"/>
    <use xlink:href="#Pretendard-Regular-baa8" transform="translate(2264.550781 0)"/>
    <use xlink:href="#Pretendard-Regular-b378" transform="translate(2350.976562 0)"/>
    <use xlink:href="#Pretendard-Regular-c744" transform="translate(2437.402344 0)"/>
    <use xlink:href="#Pretendard-Regular-20" transform="translate(2523.828125 0)"/>
    <use xlink:href="#Pretendard-Regular-c120" transform="translate(2548.925781 0)"/>
    <use xlink:href="#Pretendard-Regular-d0dd" transform="translate(2635.351562 0)"/>
    <use xlink:href="#Pretendard-Regular-d560" transform="translate(2721.777344 0)"/>
    <use xlink:href="#Pretendard-Regular-20" transform="translate(2808.203125 0)"/>
    <use xlink:href="#Pretendard-Regular-c218" transform="translate(2833.300781 0)"/>
    <use xlink:href="#Pretendard-Regular-20" transform="translate(2919.726562 0)"/>
    <use xlink:href="#Pretendard-Regular-c788" transform="translate(2944.824219 0)"/>
    <use xlink:href="#Pretendard-Regular-b2e4" transform="translate(3031.25 0)"/>
    <use xlink:href="#Pretendard-Regular-2e" transform="translate(3117.675781 0)"/>
   </g>
  </g>
 </g>
 <defs>
  <clipPath id="p8ea9b3f18c">
   <rect x="43.4825" y="67.68" width="345.769231" height="310.464"/>
  </clipPath>
  <clipPath id="p6bb7059c92">
   <rect x="506.813269" y="67.68" width="345.769231" height="310.464"/>
  </clipPath>
 </defs>
</svg>
